<svg xmlns="http://www.w3.org/2000/svg" xmlns:xlink="http://www.w3.org/1999/xlink" version="1.1" class="marks" width="1021" height="279" viewBox="0 0 1021 279"><rect width="1021" height="279" fill="white"/><g fill="none" stroke-miterlimit="10" transform="translate(48,20)"><g class="mark-group role-frame root" role="graphics-object" aria-roledescription="group mark container"><g transform="translate(0,0)"><path class="background" aria-hidden="true" d="M0,0h0v0h0Z"/><g><g class="mark-group role-row-header row_header" role="graphics-object" aria-roledescription="group mark container"><g transform="translate(-1,0)"><path class="background" aria-hidden="true" d="M0,0h0v100h0Z"/><g><g class="mark-group role-title"><g transform="translate(-42,50)"><path class="background" aria-hidden="true" d="M0,0h0v0h0Z" pointer-events="none"/><g><g class="mark-text role-title-text" role="graphics-symbol" aria-roledescription="title" aria-label="Title text '256 bins'" pointer-events="none"><text text-anchor="start" transform="translate(0,3)" font-family="sans-serif" font-size="10px" fill="#000" opacity="1"><tspan>256</tspan><tspan x="0" dy="12">bins</tspan></text></g></g><path class="foreground" aria-hidden="true" d="" pointer-events="none" display="none"/></g></g></g><path class="foreground" aria-hidden="true" d="" display="none"/></g><g transform="translate(-1,119)"><path class="background" aria-hidden="true" d="M0,0h0v100h0Z"/><g><g class="mark-group role-title"><g transform="translate(-42,50)"><path class="background" aria-hidden="true" d="M0,0h0v0h0Z" pointer-events="none"/><g><g class="mark-text role-title-text" role="graphics-symbol" aria-roledescription="title" aria-label="Title text '512 bins'" pointer-events="none"><text text-anchor="start" transform="translate(0,3)" font-family="sans-serif" font-size="10px" fill="#000" opacity="1"><tspan>512</tspan><tspan x="0" dy="12">bins</tspan></text></g></g><path class="foreground" aria-hidden="true" d="" pointer-events="none" display="none"/></g></g></g><path class="foreground" aria-hidden="true" d="" display="none"/></g></g><g class="mark-group role-row-footer row_footer" role="graphics-object" aria-roledescription="group mark container"><g transform="translate(829,0)"><path class="background" aria-hidden="true" d="M0,0h0v100h0Z"/><g><g class="mark-group role-axis" role="graphics-symbol" aria-roledescription="axis" aria-label="Y-axis titled 'Max Error' for a log scale with values from 0.1 to 100"><g transform="translate(3.5,0.5)"><path class="background" aria-hidden="true" d="M0,0h0v0h0Z" pointer-events="none"/><g><g class="mark-rule role-axis-tick" pointer-events="none"><line transform="translate(0,100)" x2="5" y2="0" stroke="#888" stroke-width="1" opacity="1"/><line transform="translate(0,67)" x2="5" y2="0" stroke="#888" stroke-width="1" opacity="1"/><line transform="translate(0,33)" x2="5" y2="0" stroke="#888" stroke-width="1" opacity="1"/><line transform="translate(0,0)" x2="5" y2="0" stroke="#888" stroke-width="1" opacity="1"/></g><g class="mark-text role-axis-label" pointer-events="none"><text text-anchor="start" transform="translate(7,98)" font-family="sans-serif" font-size="10px" fill="#000" opacity="1">0.1</text><text text-anchor="start" transform="translate(7,69.66666666666667)" font-family="sans-serif" font-size="10px" fill="#000" opacity="1">1</text><text text-anchor="start" transform="translate(7,36.33333333333333)" font-family="sans-serif" font-size="10px" fill="#000" opacity="1">10</text><text text-anchor="start" transform="translate(7,8)" font-family="sans-serif" font-size="10px" fill="#000" opacity="1">100</text></g><g class="mark-rule role-axis-domain" pointer-events="none"><line transform="translate(0,100)" x2="0" y2="-100" stroke="#888" stroke-width="1" opacity="1"/></g><g class="mark-text role-axis-title" pointer-events="none"><text text-anchor="middle" transform="translate(35,50) rotate(90) translate(0,-2)" font-family="sans-serif" font-size="11px" font-weight="bold" fill="#000" opacity="1">Max Error</text></g></g><path class="foreground" aria-hidden="true" d="" pointer-events="none" display="none"/></g></g></g><path class="foreground" aria-hidden="true" d="" display="none"/></g><g transform="translate(829,119)"><path class="background" aria-hidden="true" d="M0,0h0v100h0Z"/><g><g class="mark-group role-axis" role="graphics-symbol" aria-roledescription="axis" aria-label="Y-axis titled 'Max Error' for a log scale with values from 0.1 to 100"><g transform="translate(3.5,0.5)"><path class="background" aria-hidden="true" d="M0,0h0v0h0Z" pointer-events="none"/><g><g class="mark-rule role-axis-tick" pointer-events="none"><line transform="translate(0,100)" x2="5" y2="0" stroke="#888" stroke-width="1" opacity="1"/><line transform="translate(0,67)" x2="5" y2="0" stroke="#888" stroke-width="1" opacity="1"/><line transform="translate(0,33)" x2="5" y2="0" stroke="#888" stroke-width="1" opacity="1"/><line transform="translate(0,0)" x2="5" y2="0" stroke="#888" stroke-width="1" opacity="1"/></g><g class="mark-text role-axis-label" pointer-events="none"><text text-anchor="start" transform="translate(7,98)" font-family="sans-serif" font-size="10px" fill="#000" opacity="1">0.1</text><text text-anchor="start" transform="translate(7,69.66666666666667)" font-family="sans-serif" font-size="10px" fill="#000" opacity="1">1</text><text text-anchor="start" transform="translate(7,36.33333333333333)" font-family="sans-serif" font-size="10px" fill="#000" opacity="1">10</text><text text-anchor="start" transform="translate(7,8)" font-family="sans-serif" font-size="10px" fill="#000" opacity="1">100</text></g><g class="mark-rule role-axis-domain" pointer-events="none"><line transform="translate(0,100)" x2="0" y2="-100" stroke="#888" stroke-width="1" opacity="1"/></g><g class="mark-text role-axis-title" pointer-events="none"><text text-anchor="middle" transform="translate(35,50) rotate(90) translate(0,-2)" font-family="sans-serif" font-size="11px" font-weight="bold" fill="#000" opacity="1">Max Error</text></g></g><path class="foreground" aria-hidden="true" d="" pointer-events="none" display="none"/></g></g></g><path class="foreground" aria-hidden="true" d="" display="none"/></g></g><g class="mark-group role-column-header column_header" role="graphics-object" aria-roledescription="group mark container"><g transform="translate(0,-1)"><path class="background" aria-hidden="true" d="M0,0h400v0h-400Z"/><g><g class="mark-group role-title"><g transform="translate(200,-14)"><path class="background" aria-hidden="true" d="M0,0h0v0h0Z" pointer-events="none"/><g><g class="mark-text role-title-text" role="graphics-symbol" aria-roledescription="title" aria-label="Title text 'Simple Binning'" pointer-events="none"><text text-anchor="middle" transform="translate(0,8)" font-family="sans-serif" font-size="10px" font-weight="bold" fill="#000" opacity="1">Simple Binning</text></g></g><path class="foreground" aria-hidden="true" d="" pointer-events="none" display="none"/></g></g></g><path class="foreground" aria-hidden="true" d="" display="none"/></g><g transform="translate(425,-1)"><path class="background" aria-hidden="true" d="M0,0h400v0h-400Z"/><g><g class="mark-group role-title"><g transform="translate(200,-14)"><path class="background" aria-hidden="true" d="M0,0h0v0h0Z" pointer-events="none"/><g><g class="mark-text role-title-text" role="graphics-symbol" aria-roledescription="title" aria-label="Title text 'Linear Binning'" pointer-events="none"><text text-anchor="middle" transform="translate(0,8)" font-family="sans-serif" font-size="10px" font-weight="bold" fill="#000" opacity="1">Linear Binning</text></g></g><path class="foreground" aria-hidden="true" d="" pointer-events="none" display="none"/></g></g></g><path class="foreground" aria-hidden="true" d="" display="none"/></g></g><g class="mark-group role-column-footer column_footer" role="graphics-object" aria-roledescription="group mark container"><g transform="translate(0,222)"><path class="background" aria-hidden="true" d="M0,0h400v0h-400Z"/><g><g class="mark-group role-axis" role="graphics-symbol" aria-roledescription="axis" aria-label="X-axis titled 'Bandwidth' for a linear scale with values from 0.0 to 0.5"><g transform="translate(0.5,0.5)"><path class="background" aria-hidden="true" d="M0,0h0v0h0Z" pointer-events="none"/><g><g class="mark-rule role-axis-tick" pointer-events="none"><line transform="translate(0,0)" x2="0" y2="5" stroke="#888" stroke-width="1" opacity="1"/><line transform="translate(40,0)" x2="0" y2="5" stroke="#888" stroke-width="1" opacity="1"/><line transform="translate(80,0)" x2="0" y2="5" stroke="#888" stroke-width="1" opacity="1"/><line transform="translate(120,0)" x2="0" y2="5" stroke="#888" stroke-width="1" opacity="1"/><line transform="translate(160,0)" x2="0" y2="5" stroke="#888" stroke-width="1" opacity="1"/><line transform="translate(200,0)" x2="0" y2="5" stroke="#888" stroke-width="1" opacity="1"/><line transform="translate(240,0)" x2="0" y2="5" stroke="#888" stroke-width="1" opacity="1"/><line transform="translate(280,0)" x2="0" y2="5" stroke="#888" stroke-width="1" opacity="1"/><line transform="translate(320,0)" x2="0" y2="5" stroke="#888" stroke-width="1" opacity="1"/><line transform="translate(360,0)" x2="0" y2="5" stroke="#888" stroke-width="1" opacity="1"/><line transform="translate(400,0)" x2="0" y2="5" stroke="#888" stroke-width="1" opacity="1"/></g><g class="mark-text role-axis-label" pointer-events="none"><text text-anchor="start" transform="translate(0,15)" font-family="sans-serif" font-size="10px" fill="#000" opacity="1">0.00</text><text text-anchor="middle" transform="translate(40,15)" font-family="sans-serif" font-size="10px" fill="#000" opacity="0">0.05</text><text text-anchor="middle" transform="translate(80,15)" font-family="sans-serif" font-size="10px" fill="#000" opacity="1">0.10</text><text text-anchor="middle" transform="translate(120,15)" font-family="sans-serif" font-size="10px" fill="#000" opacity="0">0.15</text><text text-anchor="middle" transform="translate(160,15)" font-family="sans-serif" font-size="10px" fill="#000" opacity="1">0.20</text><text text-anchor="middle" transform="translate(200,15)" font-family="sans-serif" font-size="10px" fill="#000" opacity="0">0.25</text><text text-anchor="middle" transform="translate(240,15)" font-family="sans-serif" font-size="10px" fill="#000" opacity="1">0.30</text><text text-anchor="middle" transform="translate(280,15)" font-family="sans-serif" font-size="10px" fill="#000" opacity="0">0.35</text><text text-anchor="middle" transform="translate(320,15)" font-family="sans-serif" font-size="10px" fill="#000" opacity="1">0.40</text><text text-anchor="middle" transform="translate(360,15)" font-family="sans-serif" font-size="10px" fill="#000" opacity="0">0.45</text><text text-anchor="end" transform="translate(400,15)" font-family="sans-serif" font-size="10px" fill="#000" opacity="1">0.50</text></g><g class="mark-rule role-axis-domain" pointer-events="none"><line transform="translate(0,0)" x2="400" y2="0" stroke="#888" stroke-width="1" opacity="1"/></g><g class="mark-text role-axis-title" pointer-events="none"><text text-anchor="middle" transform="translate(200,30)" font-family="sans-serif" font-size="11px" font-weight="bold" fill="#000" opacity="1">Bandwidth</text></g></g><path class="foreground" aria-hidden="true" d="" pointer-events="none" display="none"/></g></g></g><path class="foreground" aria-hidden="true" d="" display="none"/></g><g transform="translate(425,222)"><path class="background" aria-hidden="true" d="M0,0h400v0h-400Z"/><g><g class="mark-group role-axis" role="graphics-symbol" aria-roledescription="axis" aria-label="X-axis titled 'Bandwidth' for a linear scale with values from 0.0 to 0.5"><g transform="translate(0.5,0.5)"><path class="background" aria-hidden="true" d="M0,0h0v0h0Z" pointer-events="none"/><g><g class="mark-rule role-axis-tick" pointer-events="none"><line transform="translate(0,0)" x2="0" y2="5" stroke="#888" stroke-width="1" opacity="1"/><line transform="translate(40,0)" x2="0" y2="5" stroke="#888" stroke-width="1" opacity="1"/><line transform="translate(80,0)" x2="0" y2="5" stroke="#888" stroke-width="1" opacity="1"/><line transform="translate(120,0)" x2="0" y2="5" stroke="#888" stroke-width="1" opacity="1"/><line transform="translate(160,0)" x2="0" y2="5" stroke="#888" stroke-width="1" opacity="1"/><line transform="translate(200,0)" x2="0" y2="5" stroke="#888" stroke-width="1" opacity="1"/><line transform="translate(240,0)" x2="0" y2="5" stroke="#888" stroke-width="1" opacity="1"/><line transform="translate(280,0)" x2="0" y2="5" stroke="#888" stroke-width="1" opacity="1"/><line transform="translate(320,0)" x2="0" y2="5" stroke="#888" stroke-width="1" opacity="1"/><line transform="translate(360,0)" x2="0" y2="5" stroke="#888" stroke-width="1" opacity="1"/><line transform="translate(400,0)" x2="0" y2="5" stroke="#888" stroke-width="1" opacity="1"/></g><g class="mark-text role-axis-label" pointer-events="none"><text text-anchor="start" transform="translate(0,15)" font-family="sans-serif" font-size="10px" fill="#000" opacity="1">0.00</text><text text-anchor="middle" transform="translate(40,15)" font-family="sans-serif" font-size="10px" fill="#000" opacity="0">0.05</text><text text-anchor="middle" transform="translate(80,15)" font-family="sans-serif" font-size="10px" fill="#000" opacity="1">0.10</text><text text-anchor="middle" transform="translate(120,15)" font-family="sans-serif" font-size="10px" fill="#000" opacity="0">0.15</text><text text-anchor="middle" transform="translate(160,15)" font-family="sans-serif" font-size="10px" fill="#000" opacity="1">0.20</text><text text-anchor="middle" transform="translate(200,15)" font-family="sans-serif" font-size="10px" fill="#000" opacity="0">0.25</text><text text-anchor="middle" transform="translate(240,15)" font-family="sans-serif" font-size="10px" fill="#000" opacity="1">0.30</text><text text-anchor="middle" transform="translate(280,15)" font-family="sans-serif" font-size="10px" fill="#000" opacity="0">0.35</text><text text-anchor="middle" transform="translate(320,15)" font-family="sans-serif" font-size="10px" fill="#000" opacity="1">0.40</text><text text-anchor="middle" transform="translate(360,15)" font-family="sans-serif" font-size="10px" fill="#000" opacity="0">0.45</text><text text-anchor="end" transform="translate(400,15)" font-family="sans-serif" font-size="10px" fill="#000" opacity="1">0.50</text></g><g class="mark-rule role-axis-domain" pointer-events="none"><line transform="translate(0,0)" x2="400" y2="0" stroke="#888" stroke-width="1" opacity="1"/></g><g class="mark-text role-axis-title" pointer-events="none"><text text-anchor="middle" transform="translate(200,30)" font-family="sans-serif" font-size="11px" font-weight="bold" fill="#000" opacity="1">Bandwidth</text></g></g><path class="foreground" aria-hidden="true" d="" pointer-events="none" display="none"/></g></g></g><path class="foreground" aria-hidden="true" d="" display="none"/></g></g><g class="mark-group role-scope cell" role="graphics-object" aria-roledescription="group mark container"><g transform="translate(0,0)"><path class="background" aria-hidden="true" d="M0.5,0.5h400v100h-400Z" stroke="#ddd"/><g><g class="mark-group role-axis" aria-hidden="true"><g transform="translate(0.5,100.5)"><path class="background" aria-hidden="true" d="M0,0h0v0h0Z" pointer-events="none"/><g><g class="mark-rule role-axis-grid" pointer-events="none"><line transform="translate(0,-100)" x2="0" y2="100" stroke="#ddd" stroke-width="1" opacity="1"/><line transform="translate(40,-100)" x2="0" y2="100" stroke="#ddd" stroke-width="1" opacity="1"/><line transform="translate(80,-100)" x2="0" y2="100" stroke="#ddd" stroke-width="1" opacity="1"/><line transform="translate(120,-100)" x2="0" y2="100" stroke="#ddd" stroke-width="1" opacity="1"/><line transform="translate(160,-100)" x2="0" y2="100" stroke="#ddd" stroke-width="1" opacity="1"/><line transform="translate(200,-100)" x2="0" y2="100" stroke="#ddd" stroke-width="1" opacity="1"/><line transform="translate(240,-100)" x2="0" y2="100" stroke="#ddd" stroke-width="1" opacity="1"/><line transform="translate(280,-100)" x2="0" y2="100" stroke="#ddd" stroke-width="1" opacity="1"/><line transform="translate(320,-100)" x2="0" y2="100" stroke="#ddd" stroke-width="1" opacity="1"/><line transform="translate(360,-100)" x2="0" y2="100" stroke="#ddd" stroke-width="1" opacity="1"/><line transform="translate(400,-100)" x2="0" y2="100" stroke="#ddd" stroke-width="1" opacity="1"/></g></g><path class="foreground" aria-hidden="true" d="" pointer-events="none" display="none"/></g></g><g class="mark-group role-axis" aria-hidden="true"><g transform="translate(403.5,0.5)"><path class="background" aria-hidden="true" d="M0,0h0v0h0Z" pointer-events="none"/><g><g class="mark-rule role-axis-grid" pointer-events="none"><line transform="translate(-3,100)" x2="-400" y2="0" stroke="#ddd" stroke-width="1" opacity="1"/><line transform="translate(-3,67)" x2="-400" y2="0" stroke="#ddd" stroke-width="1" opacity="1"/><line transform="translate(-3,33)" x2="-400" y2="0" stroke="#ddd" stroke-width="1" opacity="1"/><line transform="translate(-3,0)" x2="-400" y2="0" stroke="#ddd" stroke-width="1" opacity="1"/></g></g><path class="foreground" aria-hidden="true" d="" pointer-events="none" display="none"/></g></g><g class="mark-group role-scope child_pathgroup" role="graphics-object" aria-roledescription="group mark container"><g transform="translate(0,0)"><path class="background" aria-hidden="true" d="M0,0h400v100h-400Z"/><g><g class="mark-line role-mark child_marks" role="graphics-object" aria-roledescription="line mark container"><path aria-label="Bandwidth: 0.01; Max Error: 35.5630250172; Method: Box" role="graphics-symbol" aria-roledescription="line mark" d="M8,14.966710157382124L12,17.115242443608324L16,25.95118949680909L20,22.723342887040932L24,34.04638599596728L28.000000000000004,29.091394596366193L32,26.08084548875351L36.00000000000001,34.54202491524452L40,30.650431588202643L44,27.996022777068596L48.00000000000001,34.75861365260161L52,31.581677961141363L55.99999999999999,38.33124127386635L60,34.88111655199899L64,32.19079725341604L68,37.79026542166296L72,34.93252503204791L76,32.623795635548646L80,37.40996099096869L84,34.95150601767808L88,32.9507259873252L92,37.12881168763964L96,34.972661053525655L100,33.20628617448575L104,36.91286345135458L108,34.99323622110663L112.00000000000001,38.76693980705737L116.00000000000001,36.74020058127484L120.00000000000001,35.012308050893694L124,38.39562371072197L128,36.59722179285399L132,35.0296491351759L136,38.094954422999635L140,36.47974410635081L144.00000000000003,35.0453007174793L148.00000000000003,37.846724874759694L152,36.37485598668767L156,39.19918501410884L160,37.63843832032823L164,36.2813628795921L168.00000000000003,38.89254524875606L172.00000000000003,37.461247809587825L176,36.20237145622445L180,38.628193844222366L184,37.30872253320294L188,36.13479907338264L192.00000000000003,38.39303139252591L196.00000000000003,37.17608022443765L200,36.076370233142505L204,38.1884320121782L208,37.05969332849368L212,39.17482412879186L216,38.008856729650894L220.00000000000003,36.95646049094623L224.00000000000003,38.94345261495358L228.00000000000003,37.850018696551736L232.00000000000003,36.86035913309039L236.00000000000003,38.73787484738788L240,37.708550518205655L244,36.772255699010174L248,38.55403479982022L252,37.58177172408942L256,39.371209037215735L260,38.38822774090449L264,37.46752305664579L268,39.16434932165672L272,38.233536639980315L276,37.3640463000357L280,38.977257004648926L284.00000000000006,38.09339451331424L288.00000000000006,37.27006753523073L292,38.80724944583191L296,37.96603129555075L300,37.18434296672459L304,38.652452777678434L308,37.84978812438967L312,39.330281470202046L316,38.51060476698167L320,37.74313506382448L324,39.15969904720937L328,38.38015658083565L332,37.64494113324891L336.00000000000006,39.002796957370755L340.00000000000006,38.25979553972723L344,37.5542453773212L348,38.858006265198306L352,38.14639363564557L356,39.45459152011327L360,38.723987495137926L364,38.040211684228964L368,39.301095943915996L372,38.59959040627366L376,37.941565840130956L380,39.157317415924396L384.00000000000006,38.48382189869797L388.00000000000006,37.84968764342208L392,39.02207457620247L396,38.37582020534383L400,37.763909007323534" stroke="#e15759" stroke-width="1.5"/></g></g><path class="foreground" aria-hidden="true" d="" display="none"/></g><g transform="translate(0,0)"><path class="background" aria-hidden="true" d="M0,0h400v100h-400Z"/><g><g class="mark-line role-mark child_marks" role="graphics-object" aria-roledescription="line mark container"><path aria-label="Bandwidth: 0.01; Max Error: 27.3023031495; Method: ExtBox" role="graphics-symbol" aria-roledescription="line mark" d="M8,18.793357182976745L12,23.84400687975058L16,25.003872875877143L20,27.47790222422848L24,29.117302908787213L28.000000000000004,29.01995511081219L32,30.93914875908763L36.00000000000001,31.545299518849045L40,31.815465539369438L44,32.86396654305401L48.00000000000001,32.983875102651524L52,33.45232997191816L55.99999999999999,33.940308969263725L60,33.99955406653685L64,34.44909682386932L68,34.74147042266449L72,34.743136241978554L76,35.14593744993002L80,35.34569558747518L84,35.333558601897685L88,35.69838888476291L92,35.77612598324259L96,35.8604717612765L100,36.123470431878125L104,36.11256836287391L108,36.28107302549384L112.00000000000001,36.415846548756235L116.00000000000001,36.407980830153605L120.00000000000001,36.600155834486905L124,36.6747517794873L128,36.67365034608731L132,36.84154310453525L136,36.90455484140026L140,36.93112638725946L144.00000000000003,37.056038593845784L148.00000000000003,37.09596314913662L152,37.140418188601586L156,37.24475907058743L160,37.23892058238769L164,37.32674061245631L168.00000000000003,37.391835329621784L172.00000000000003,37.37305194470246L176,37.48932245131803L180,37.515028993061804L184,37.52615216127173L188,37.609855258789814L192.00000000000003,37.63042094509299L196.00000000000003,37.665527785284084L200,37.72025322261795L204,37.738292400481775L208,37.77462991739312L212,37.823379509815034L216,37.822149165862506L220.00000000000003,37.876234081220915L224.00000000000003,37.91641685229058L228.00000000000003,37.9018916238628L232.00000000000003,37.97091454637316L236.00000000000003,37.98645136324128L240,37.99708939515525L244,38.049140678333785L248,38.0541211535182L252,38.08565244186353L256,38.11485407906892L260,38.119239820832576L264,38.15374892881347L268,38.177979826956076L272,38.178941499333185L276,38.216446248976496L280,38.238487120837675L284.00000000000006,38.23720849850306L288.00000000000006,38.276379490114984L292,38.28812489413178L296,38.29788102672948L300,38.333659840600575L304,38.33201261292142L308,38.35580474855772L312,38.37669428114624L316,38.37505346081088L320,38.40658251261211L324,38.41880637830126L328,38.42003656666535L332,38.4486405290171L336.00000000000006,38.459884124967815L340.00000000000006,38.46604012802953L344,38.4895473629088L348,38.49878113622189L352,38.50744629431973L356,38.5292604311971L360,38.5287594115594L364,38.54752142125708L368,38.56333147150374L372,38.558613342234196L376,38.586272942096755L380,38.592758810719964L384.00000000000006,38.59525477444922L388.00000000000006,38.61677400054469L392,38.621871288844375L396,38.63139430357704L400,38.645904320418914" stroke="#555555" stroke-width="1.5"/></g></g><path class="foreground" aria-hidden="true" d="" display="none"/></g><g transform="translate(0,0)"><path class="background" aria-hidden="true" d="M0,0h400v100h-400Z"/><g><g class="mark-line role-mark child_marks" role="graphics-object" aria-roledescription="line mark container"><path aria-label="Bandwidth: 0.01; Max Error: 23.4407652295; Method: Deriche" role="graphics-symbol" aria-roledescription="line mark" d="M8,21.000940492441433L12,26.859622443275498L16,30.861579480229008L20,33.84557340033189L24,36.52518412765973L28.000000000000004,38.57829166991815L32,40.41254267456299L36.00000000000001,42.09479872631044L40,43.50018955452932L44,44.81025460233043L48.00000000000001,46.01826096535389L52,47.08602056905528L55.99999999999999,48.09860185497832L60,49.035067411720036L64,49.89058456208514L68,50.71208872312618L72,51.47246396563124L76,52.18368819806902L80,52.87140552466694L84,53.508162306522976L88,54.11566962010025L92,54.70297030576643L96,55.25080756582583L100,55.779209205592025L104,56.290032336153686L108,56.76946778205476L112.00000000000001,57.23541923932457L116.00000000000001,57.68561034367641L120.00000000000001,58.11153845655179L124,58.52711430467332L128,58.928351774894736L132,59.310931430211376L136,59.68505088809288L140,60.04621370310404L144.00000000000003,60.392735925958775L148.00000000000003,60.73217073340405L152,61.05994591397885L156,61.376028321460716L160,61.686038784206964L164,61.98558648771253L168.00000000000003,62.27564712512108L172.00000000000003,62.56039932789121L176,62.83578374506642L180,63.1033586681782L184,63.366207268934275L188,63.620685616421866L192.00000000000003,63.86864814988704L196.00000000000003,64.11233346333123L200,64.3485558240966L204,64.57927172803954L208,64.80606052606726L212,65.02621137190125L216,65.24165126574363L220.00000000000003,65.45456094922193L224.00000000000003,65.6674105479174L228.00000000000003,65.87562763220835L232.00000000000003,66.08039061269683L236.00000000000003,66.279920442638L240,66.47481516033L244,66.66694290676767L248,66.85453233464264L252,67.03747083847165L256,67.21823294935518L260,67.39506260152608L264,67.5672172751244L268,67.7377065791822L272,67.90479478448712L276,68.06717909705917L280,68.22808690394962L284.00000000000006,68.3865270639626L288.00000000000006,68.54006886273993L292,68.6922329972045L296,68.84266112169499L300,68.98825652869485L304,69.13243004724592L308,69.27534752461833L312,69.41382402616378L316,69.55067027403146L320,69.68637608061441L324,69.81860949710803L328,69.94871585498392L332,70.07778334034475L336.00000000000006,70.20424393294746L340.00000000000006,70.32813262316647L344,70.45107266404685L348,70.57218104058916L352,70.69031831237218L356,70.80758708200636L360,70.92363008209996L364,71.0365250442047L368,71.14853167948485L372,71.25971303351162L376,71.36787875191526L380,71.47499232136954L384.00000000000006,71.58134611050899L388.00000000000006,71.68539565562027L392,71.78794903357203L396,71.88980179146675L400,71.98999562018784" stroke="#4e79a7" stroke-width="1.5"/></g></g><path class="foreground" aria-hidden="true" d="" display="none"/></g></g></g><path class="foreground" aria-hidden="true" d="" display="none"/></g><g transform="translate(425,0)"><path class="background" aria-hidden="true" d="M0.5,0.5h400v100h-400Z" stroke="#ddd"/><g><g class="mark-group role-axis" aria-hidden="true"><g transform="translate(0.5,100.5)"><path class="background" aria-hidden="true" d="M0,0h0v0h0Z" pointer-events="none"/><g><g class="mark-rule role-axis-grid" pointer-events="none"><line transform="translate(0,-100)" x2="0" y2="100" stroke="#ddd" stroke-width="1" opacity="1"/><line transform="translate(40,-100)" x2="0" y2="100" stroke="#ddd" stroke-width="1" opacity="1"/><line transform="translate(80,-100)" x2="0" y2="100" stroke="#ddd" stroke-width="1" opacity="1"/><line transform="translate(120,-100)" x2="0" y2="100" stroke="#ddd" stroke-width="1" opacity="1"/><line transform="translate(160,-100)" x2="0" y2="100" stroke="#ddd" stroke-width="1" opacity="1"/><line transform="translate(200,-100)" x2="0" y2="100" stroke="#ddd" stroke-width="1" opacity="1"/><line transform="translate(240,-100)" x2="0" y2="100" stroke="#ddd" stroke-width="1" opacity="1"/><line transform="translate(280,-100)" x2="0" y2="100" stroke="#ddd" stroke-width="1" opacity="1"/><line transform="translate(320,-100)" x2="0" y2="100" stroke="#ddd" stroke-width="1" opacity="1"/><line transform="translate(360,-100)" x2="0" y2="100" stroke="#ddd" stroke-width="1" opacity="1"/><line transform="translate(400,-100)" x2="0" y2="100" stroke="#ddd" stroke-width="1" opacity="1"/></g></g><path class="foreground" aria-hidden="true" d="" pointer-events="none" display="none"/></g></g><g class="mark-group role-axis" aria-hidden="true"><g transform="translate(403.5,0.5)"><path class="background" aria-hidden="true" d="M0,0h0v0h0Z" pointer-events="none"/><g><g class="mark-rule role-axis-grid" pointer-events="none"><line transform="translate(-3,100)" x2="-400" y2="0" stroke="#ddd" stroke-width="1" opacity="1"/><line transform="translate(-3,67)" x2="-400" y2="0" stroke="#ddd" stroke-width="1" opacity="1"/><line transform="translate(-3,33)" x2="-400" y2="0" stroke="#ddd" stroke-width="1" opacity="1"/><line transform="translate(-3,0)" x2="-400" y2="0" stroke="#ddd" stroke-width="1" opacity="1"/></g></g><path class="foreground" aria-hidden="true" d="" pointer-events="none" display="none"/></g></g><g class="mark-group role-scope child_pathgroup" role="graphics-object" aria-roledescription="group mark container"><g transform="translate(0,0)"><path class="background" aria-hidden="true" d="M0,0h400v100h-400Z"/><g><g class="mark-line role-mark child_marks" role="graphics-object" aria-roledescription="line mark container"><path aria-label="Bandwidth: 0.01; Max Error: 20.5369564741; Method: Box" role="graphics-symbol" aria-roledescription="line mark" d="M8,22.915463911060552L12,31.503754930313686L16,41.97285718592839L20,30.00070224743484L24,50.3231843231047L28.000000000000004,39.22081291917097L32,32.06601276922054L36.00000000000001,45.87397886814779L40,37.932683784205146L44,32.981826259102675L48.00000000000001,42.64834513720314L52,37.19558436632164L55.99999999999999,47.23918065653279L60,40.92139394214003L64,36.7726375944039L68,44.48078733259908L72,39.848339872156494L76,36.50039031698847L80,42.74545907913374L84,39.10845075072287L88,36.311263141311976L92,41.55593841730175L96,38.572990471385914L100,36.17257046971369L104,40.69096777092061L108,38.16868749834725L112.00000000000001,42.75361374465246L116.00000000000001,40.034278357373L120.00000000000001,37.85095562892356L124,41.873736884154546L128,39.51904752093508L132,37.579938581623L136,41.17884805993589L140,39.104193272821206L144.00000000000003,37.36012668963323L148.00000000000003,40.61477502039607L152,38.763093697497865L156,42.03685181896657L160,40.138339815022825L164,38.47775196330422L168.00000000000003,41.45398834313727L172.00000000000003,39.739459290506055L176,38.235571698497296L180,40.96343645429319L184,39.40072842271615L188,38.026495334492516L192.00000000000003,40.54492331580527L196.00000000000003,39.109567703604995L200,37.84343600017228L204,40.18370115340385L208,38.85666375889151L212,41.22455182299267L216,39.86878575362005L220.00000000000003,38.634976775547884L224.00000000000003,40.84333899608963L228.00000000000003,39.59147999606881L232.00000000000003,38.43908844907412L236.00000000000003,40.50786458590202L240,39.33988969176111L244,38.26476172911657L248,40.210393720201566L252,39.115327917791554L256,41.081573547205394L260,39.9448384664482L264,38.914171529014816L268,40.76932878642398L272,39.7063422499931L276,38.73296328973136L280,40.488782753785266L284.00000000000006,39.490983973338025L288.00000000000006,38.56889209284942L292,40.235365377415235L296,39.2957528387884L300,38.41999117531844L304,40.00553277274093L308,39.11796008359766L312,40.70896032264321L316,39.79615151296579L320,38.95358824352668L324,40.47242589583545L328,39.60446011097203L332,38.800623581771085L336.00000000000006,40.255594648157015L340.00000000000006,39.42831779048589L344,38.65982127857238L348,40.05504083433515L352,39.26591468158344L356,40.664876884848944L360,39.867987865766395L364,39.11571041344981L368,40.45738342381969L372,39.694958532265815L376,38.976385869244965L380,40.2652307006517L384.00000000000006,39.53444122807386L388.00000000000006,38.84680492921149L392,40.086784292293984L396,39.38513322448184L400,38.72543138931979" stroke="#e15759" stroke-width="1.5"/></g></g><path class="foreground" aria-hidden="true" d="" display="none"/></g><g transform="translate(0,0)"><path class="background" aria-hidden="true" d="M0,0h400v100h-400Z"/><g><g class="mark-line role-mark child_marks" role="graphics-object" aria-roledescription="line mark container"><path aria-label="Bandwidth: 0.01; Max Error: 13.7642308299; Method: ExtBox" role="graphics-symbol" aria-roledescription="line mark" d="M8,28.708268425100314L12,36.59724414781803L16,37.357156110623976L20,38.94145882719946L24,39.99081196690898L28.000000000000004,39.02719876096401L32,40.308415148475106L36.00000000000001,40.0699244141818L40,39.635490724041475L44,40.186282830101405L48.00000000000001,39.95976551985221L52,39.806004303924425L55.99999999999999,40.114240351915896L60,39.66381479494417L64,39.90673186941771L68,39.95946412350118L72,39.558222448489936L76,39.931645734555275L80,39.82562463084055L84,39.64075286281592L88,39.84711860510907L92,39.76698809300381L96,39.70932066855991L100,39.81128374719004L104,39.71997405810919L108,39.7232184088961L112.00000000000001,39.79308238391204L116.00000000000001,39.63986470688579L120.00000000000001,39.744595930926664L124,39.752878823136314L128,39.610149292127595L132,39.758137280903206L136,39.70590865408886L140,39.66517303929318L144.00000000000003,39.7327737965057L148.00000000000003,39.68044924451496L152,39.695073503249134L156,39.7148900553546L160,39.667143170164486L164,39.691899816340445L168.00000000000003,39.7078935010329L172.00000000000003,39.64032227790884L176,39.69555004243356L180,39.703562576039985L184,39.643028184652266L188,39.70363068241306L192.00000000000003,39.676383314727474L196.00000000000003,39.66243919817563L200,39.69887621882287L204,39.659339344101966L208,39.682137557017086L212,39.68560103671129L216,39.64982313520783L220.00000000000003,39.68030680731795L224.00000000000003,39.67863010535506L228.00000000000003,39.64892538613548L232.00000000000003,39.67845017514634L236.00000000000003,39.67633917757693L240,39.65402623368814L244,39.68012996416523L248,39.66607592268411L252,39.661372493285654L256,39.68442351687648L260,39.652839521288705L264,39.67031670828719L268,39.67373172341184L272,39.644355830229685L276,39.67472725518074L280,39.66692484785689L284.00000000000006,39.65336734286843L288.00000000000006,39.670898250937825L292,39.66339582068644L296,39.658725445820274L300,39.66996145235954L304,39.66187710040218L308,39.66129789434157L312,39.67131091461731L316,39.65124300211084L320,39.66542906063596L324,39.668633424473896L328,39.64696926519882L332,39.67077559182296L336.00000000000006,39.66240778344014L340.00000000000006,39.65531122865035L344,39.668028328158535L348,39.6585673818519L352,39.66213354942639L356,39.66578130913513L360,39.65669668011488L364,39.66205070898417L368,39.66523306388103L372,39.65157441889781L376,39.66336075995602L380,39.66585572830815L384.00000000000006,39.65216903343083L388.00000000000006,39.665815999737106L392,39.66032637655444L396,39.656638666221625L400,39.66641844490864" stroke="#555555" stroke-width="1.5"/></g></g><path class="foreground" aria-hidden="true" d="" display="none"/></g><g transform="translate(0,0)"><path class="background" aria-hidden="true" d="M0,0h400v100h-400Z"/><g><g class="mark-line role-mark child_marks" role="graphics-object" aria-roledescription="line mark container"><path aria-label="Bandwidth: 0.01; Max Error: 10.6311603273; Method: Deriche" role="graphics-symbol" aria-roledescription="line mark" d="M8,32.44731107514159L12,43.541175274481304L16,51.3627093269712L20,57.25490293426765L24,61.88308763029745L28.000000000000004,65.48566990048785L32,68.47808448087069L36.00000000000001,70.98901394385241L40,73.1109858033266L44,74.91548841468855L48.00000000000001,76.45859705534652L52,77.78489607779336L55.99999999999999,78.93023257572676L60,79.9236917626381L64,80.77292839489648L68,81.51791547063124L72,82.17379937554914L76,82.75310113052603L80,83.26639683177885L84,83.72263439510915L88,84.12939990244739L92,84.49128981627511L96,84.81047338700559L100,85.09814533437229L104,85.3580528522297L108,85.59343936509327L112.00000000000001,85.80711707884309L116.00000000000001,85.99799958103488L120.00000000000001,86.17082603230641L124,86.32906525745821L128,86.47422064992965L132,86.60653900568849L136,86.72560662149719L140,86.83565617424217L144.00000000000003,86.93752279259148L148.00000000000003,87.03048004746516L152,87.11508880288837L156,87.19393375334968L160,87.26749401648394L164,87.33356371781016L168.00000000000003,87.39532441120953L172.00000000000003,87.45329619064985L176,87.50624944683135L180,87.55512925212905L184,87.60127893761869L188,87.64415434619059L192.00000000000003,87.68317548466322L196.00000000000003,87.72022798362134L200,87.75534395198143L204,87.78671257719543L208,87.81666880308289L212,87.84527977596156L216,87.87114050927866L220.00000000000003,87.89549050380805L224.00000000000003,87.91887581667446L228.00000000000003,87.94052231349065L232.00000000000003,87.96039203180591L236.00000000000003,87.97958275556664L240,87.99794653376254L244,88.01419674914877L248,88.02998596830722L252,88.0453165924502L256,88.05908165702745L260,88.072085159826L264,88.08478734554714L268,88.09674012748445L272,88.10744248982265L276,88.1179658083075L280,88.12829922820062L284.00000000000006,88.13728631252185L288.00000000000006,88.14598855454375L292,88.15459228040625L296,88.1625914374552L300,88.16976120804809L304,88.17690412879966L308,88.18400392937906L312,88.19000880720684L316,88.19590966630825L320,88.20182260709191L324,88.20731507621697L328,88.2121544030133L332,88.2170485120479L336.00000000000006,88.22198246463608L340.00000000000006,88.22608137845708L344,88.23009824356582L348,88.23418789941914L352,88.23805437782411L356,88.24131051340265L360,88.24466682041835L364,88.24810723644104L368,88.250964627337L372,88.25368110787612L376,88.25650241143583L380,88.25929526685883L384.00000000000006,88.26144894389087L388.00000000000006,88.26372600270223L392,88.26611362709981L396,88.26815244359088L400,88.26994898574601" stroke="#4e79a7" stroke-width="1.5"/></g></g><path class="foreground" aria-hidden="true" d="" display="none"/></g></g></g><path class="foreground" aria-hidden="true" d="" display="none"/></g><g transform="translate(0,119)"><path class="background" aria-hidden="true" d="M0.5,0.5h400v100h-400Z" stroke="#ddd"/><g><g class="mark-group role-axis" aria-hidden="true"><g transform="translate(0.5,100.5)"><path class="background" aria-hidden="true" d="M0,0h0v0h0Z" pointer-events="none"/><g><g class="mark-rule role-axis-grid" pointer-events="none"><line transform="translate(0,-100)" x2="0" y2="100" stroke="#ddd" stroke-width="1" opacity="1"/><line transform="translate(40,-100)" x2="0" y2="100" stroke="#ddd" stroke-width="1" opacity="1"/><line transform="translate(80,-100)" x2="0" y2="100" stroke="#ddd" stroke-width="1" opacity="1"/><line transform="translate(120,-100)" x2="0" y2="100" stroke="#ddd" stroke-width="1" opacity="1"/><line transform="translate(160,-100)" x2="0" y2="100" stroke="#ddd" stroke-width="1" opacity="1"/><line transform="translate(200,-100)" x2="0" y2="100" stroke="#ddd" stroke-width="1" opacity="1"/><line transform="translate(240,-100)" x2="0" y2="100" stroke="#ddd" stroke-width="1" opacity="1"/><line transform="translate(280,-100)" x2="0" y2="100" stroke="#ddd" stroke-width="1" opacity="1"/><line transform="translate(320,-100)" x2="0" y2="100" stroke="#ddd" stroke-width="1" opacity="1"/><line transform="translate(360,-100)" x2="0" y2="100" stroke="#ddd" stroke-width="1" opacity="1"/><line transform="translate(400,-100)" x2="0" y2="100" stroke="#ddd" stroke-width="1" opacity="1"/></g></g><path class="foreground" aria-hidden="true" d="" pointer-events="none" display="none"/></g></g><g class="mark-group role-axis" aria-hidden="true"><g transform="translate(403.5,0.5)"><path class="background" aria-hidden="true" d="M0,0h0v0h0Z" pointer-events="none"/><g><g class="mark-rule role-axis-grid" pointer-events="none"><line transform="translate(-3,100)" x2="-400" y2="0" stroke="#ddd" stroke-width="1" opacity="1"/><line transform="translate(-3,67)" x2="-400" y2="0" stroke="#ddd" stroke-width="1" opacity="1"/><line transform="translate(-3,33)" x2="-400" y2="0" stroke="#ddd" stroke-width="1" opacity="1"/><line transform="translate(-3,0)" x2="-400" y2="0" stroke="#ddd" stroke-width="1" opacity="1"/></g></g><path class="foreground" aria-hidden="true" d="" pointer-events="none" display="none"/></g></g><g class="mark-group role-scope child_pathgroup" role="graphics-object" aria-roledescription="group mark container"><g transform="translate(0,0)"><path class="background" aria-hidden="true" d="M0,0h400v100h-400Z"/><g><g class="mark-line role-mark child_marks" role="graphics-object" aria-roledescription="line mark container"><path aria-label="Bandwidth: 0.01; Max Error: 15.9085895962; Method: Box" role="graphics-symbol" aria-roledescription="line mark" d="M8,26.6122773927593L12,33.77300959881384L16,26.298675647918813L20,30.983104564035933L24,35.029954957068234L28.000000000000004,38.66826308731341L32,32.40381018414048L36.00000000000001,35.14515140947866L40,37.69702235574709L44,33.140533098871174L48.00000000000001,35.18963037922769L52,37.14819058794452L55.99999999999999,39.009688840923275L60,35.23119541937946L64,36.81349683563213L68,38.33432885397991L72,35.251481529804806L76,36.58269742553456L80,37.875470257943554L84,39.12801371954545L88,36.41349435749345L92,37.533343311725L96,38.62129184549919L100,36.28962420960609L104,37.27559941107989L108,38.23702353018288L112.00000000000001,39.18168181063466L116.00000000000001,37.07060752631044L120.00000000000001,37.936487407563924L124,38.78429767505482L128,39.614078249334895L132,37.68990058393449L136,38.458255053882894L140,39.21647697730401L144.00000000000003,37.48778532178988L148.00000000000003,38.1906736533142L152,38.88545101989672L156,39.5672751951761L160,37.96722585542014L164,38.60752107620794L168.00000000000003,39.23811374136261L172.00000000000003,37.7747512178299L176,38.368604331472945L180,38.9569904734412L184,39.535745877249504L188,38.16357018032601L192.00000000000003,38.7129467710961L196.00000000000003,39.253879828682244L200,37.985735488223696L204,38.50009129719746L208,39.00856043889037L212,39.51269991552541L216,38.31190486268742L220.00000000000003,38.792570255825574L224.00000000000003,39.26653949284066L228.00000000000003,39.73706743687996L232.00000000000003,38.60007020308191L236.00000000000003,39.04832802959734L240,39.49400682932204L244,38.427904788720014L248,38.8538592733662L252,39.276792390982806L256,39.69438040657377L260,38.67907964234782L264,39.08036119034285L268,39.479332684922156L272,38.52046825383576L276,38.90314522927114L280,39.28415426520204L284.00000000000006,39.66067659944845L288.00000000000006,38.74253983693903L292,39.10670320726845L296,39.466895265188874L300,38.59603492394197L304,38.94394611434997L308,39.29025227311747L312,39.63339490557743L316,38.79514898884866L320,39.12786716726463L324,39.45702165770276L328,39.78515790961438L332,38.97827240051179L336.00000000000006,39.294987697647976L340.00000000000006,39.61062757221973L344,38.83970050500527L348,39.14562377853548L352,39.449007427061254L356,39.750646245987184L360,39.00696316865526L364,39.29932910794168L368,39.59101075162974L372,38.877909375561046L376,39.16051198784828L380,39.442270468363205L384.00000000000006,39.72131004403001L388.00000000000006,39.03142278370323L392,39.30329369772431L396,39.57381530985773L400,38.91065077863393" stroke="#e15759" stroke-width="1.5"/></g></g><path class="foreground" aria-hidden="true" d="" display="none"/></g><g transform="translate(0,0)"><path class="background" aria-hidden="true" d="M0,0h400v100h-400Z"/><g><g class="mark-line role-mark child_marks" role="graphics-object" aria-roledescription="line mark container"><path aria-label="Bandwidth: 0.01; Max Error: 17.2951862179; Method: ExtBox" role="graphics-symbol" aria-roledescription="line mark" d="M8,25.402491918625625L12,29.42384467183142L16,31.25010787243824L20,32.13405326809466L24,33.27913276433282L28.000000000000004,34.18748878562196L32,34.67661808755178L36.00000000000001,34.94990930333613L40,35.56480416559356L44,35.92223533074964L48.00000000000001,36.10402581851112L52,36.34819995399759L55.99999999999999,36.64187656631992L60,36.815693706945055L64,36.890372077803804L68,37.12421563645678L72,37.28536691817007L76,37.37211952387566L80,37.4633947772962L84,37.6120158692312L88,37.707119433139304L92,37.749002664626644L96,37.85834308839169L100,37.95242391838044L104,38.002001354552206L108,38.04506811823326L112.00000000000001,38.13671705187359L116.00000000000001,38.19608782753764L120.00000000000001,38.22542097893997L124,38.28506392438392L128,38.34446090223634L132,38.380215161176956L136,38.40222610590433L140,38.465421162084425L144.00000000000003,38.50568685463036L148.00000000000003,38.52863842550538L152,38.56254744378743L156,38.605009378387166L160,38.63251342721258L164,38.646729131692624L168.00000000000003,38.689286549734234L172.00000000000003,38.719945543132525L176,38.7386303775193L180,38.75779924114665L184,38.79070469246299L188,38.81281524831128L192.00000000000003,38.82510101906461L196.00000000000003,38.85240155402742L200,38.87701719742061L204,38.89135746009656L208,38.90322461472652L212,38.929736858903055L216,38.948095145674145L220.00000000000003,38.958020517284375L224.00000000000003,38.976707189122095L228.00000000000003,38.996690790506165L232.00000000000003,39.00848266891103L236.00000000000003,39.015729193784175L240,39.0377254605199L244,39.05334681423086L248,39.06158123903695L252,39.074576003504745L256,39.09066953560561L260,39.10115769242798L264,39.10656379685506L268,39.124020874447126L272,39.136966435456344L276,39.14454809619989L280,39.15298985951882L284.00000000000006,39.16688670417915L288.00000000000006,39.176316279223634L292,39.18156972648479L296,39.1945221134834L300,39.2054845813386L304,39.212361481600645L308,39.217671402654084L312,39.22994033058722L316,39.23849646882708L320,39.24356059485882L324,39.25282247351589L328,39.262666989970974L332,39.26856005136751L336.00000000000006,39.27200889189382L340.00000000000006,39.28296816515682L344,39.29079314321601L348,39.29559754032689L352,39.302187944504766L356,39.31082915817042L360,39.3162262059567L364,39.31896156340519L368,39.32818449597186L372,39.335389517089546L376,39.339677303361974L380,39.3444924972676L384.00000000000006,39.35204173031054L388.00000000000006,39.357166357577945L392,39.359986147342866L396,39.36719647178767L400,39.3738299496174" stroke="#555555" stroke-width="1.5"/></g></g><path class="foreground" aria-hidden="true" d="" display="none"/></g><g transform="translate(0,0)"><path class="background" aria-hidden="true" d="M0,0h400v100h-400Z"/><g><g class="mark-line role-mark child_marks" role="graphics-object" aria-roledescription="line mark container"><path aria-label="Bandwidth: 0.01; Max Error: 12.1146181123; Method: Deriche" role="graphics-symbol" aria-roledescription="line mark" d="M8,30.556342384200207L12,36.627198708428836L16,40.90125891289609L20,44.003021421928366L24,46.57566896607187L28.000000000000004,48.71837505914761L32,50.5496715569979L36.00000000000001,52.178225610570884L40,53.64242378479504L44,54.950638440529396L48.00000000000001,56.13229457780859L52,57.22348608985786L55.99999999999999,58.23580777703127L60,59.16955154644802L64,60.03486766288164L68,60.84812067272405L72,61.615307100186854L76,62.33666696350985L80,63.01506688467966L84,63.65868937181964L88,64.27220112634676L92,64.85690166548197L96,65.41201571694018L100,65.94147590219794L104,66.44976522313266L108,66.93827417333544L112.00000000000001,67.41615288068297L116.00000000000001,67.87946821914782L120.00000000000001,68.3258432067728L124,68.75658498015824L128,69.17212178963035L132,69.57084150634505L136,69.95589817872047L140,70.3289127354775L144.00000000000003,70.69049710465168L148.00000000000003,71.03990242109269L152,71.37713833042085L156,71.70483049139497L160,72.0234151823781L164,72.33330281053395L168.00000000000003,72.63293408968676L172.00000000000003,72.92414240425467L176,73.20793528207963L180,73.48461719217119L184,73.75447553285339L188,74.0157977050604L192.00000000000003,74.27089380944909L196.00000000000003,74.52007576281143L200,74.76356463635518L204,75.00150210551776L208,75.23254936023713L212,75.45860805572352L216,75.67985066231323L220.00000000000003,75.89644103097329L224.00000000000003,76.10853651427259L228.00000000000003,76.31492904422976L232.00000000000003,76.51717028803967L236.00000000000003,76.71542124980351L240,76.90980712497286L244,77.10044844066482L248,77.2865400098748L252,77.46892389648471L256,77.64795311417528L260,77.82372482148186L264,77.99633517943265L268,78.16540138743395L272,78.33099689760485L276,78.49373861786628L280,78.65370468831568L284.00000000000006,78.8109663495442L288.00000000000006,78.96556784941812L292,79.11680515092273L296,79.26558696258333L300,79.41197976345774L304,79.55603677836878L308,79.69782663692168L312,79.83703849022979L316,79.97373815727282L320,80.10836352219766L324,80.24095427406242L328,80.37156396559826L332,80.50219090672859L336.00000000000006,80.63308704277266L340.00000000000006,80.76194391275399L344,80.88890645946785L348,81.01401917308942L352,81.13732107188657L356,81.25859136971417L360,81.3778088037426L364,81.4953624820874L368,81.61127735232174L372,81.7256114765271L376,81.83836785999688L380,81.94910775342387L384.00000000000006,82.05832815560298L388.00000000000006,82.166101317899L392,82.2724471450488L396,82.37741432653985L400,82.48087522273698" stroke="#4e79a7" stroke-width="1.5"/></g></g><path class="foreground" aria-hidden="true" d="" display="none"/></g></g></g><path class="foreground" aria-hidden="true" d="" display="none"/></g><g transform="translate(425,119)"><path class="background" aria-hidden="true" d="M0.5,0.5h400v100h-400Z" stroke="#ddd"/><g><g class="mark-group role-axis" aria-hidden="true"><g transform="translate(0.5,100.5)"><path class="background" aria-hidden="true" d="M0,0h0v0h0Z" pointer-events="none"/><g><g class="mark-rule role-axis-grid" pointer-events="none"><line transform="translate(0,-100)" x2="0" y2="100" stroke="#ddd" stroke-width="1" opacity="1"/><line transform="translate(40,-100)" x2="0" y2="100" stroke="#ddd" stroke-width="1" opacity="1"/><line transform="translate(80,-100)" x2="0" y2="100" stroke="#ddd" stroke-width="1" opacity="1"/><line transform="translate(120,-100)" x2="0" y2="100" stroke="#ddd" stroke-width="1" opacity="1"/><line transform="translate(160,-100)" x2="0" y2="100" stroke="#ddd" stroke-width="1" opacity="1"/><line transform="translate(200,-100)" x2="0" y2="100" stroke="#ddd" stroke-width="1" opacity="1"/><line transform="translate(240,-100)" x2="0" y2="100" stroke="#ddd" stroke-width="1" opacity="1"/><line transform="translate(280,-100)" x2="0" y2="100" stroke="#ddd" stroke-width="1" opacity="1"/><line transform="translate(320,-100)" x2="0" y2="100" stroke="#ddd" stroke-width="1" opacity="1"/><line transform="translate(360,-100)" x2="0" y2="100" stroke="#ddd" stroke-width="1" opacity="1"/><line transform="translate(400,-100)" x2="0" y2="100" stroke="#ddd" stroke-width="1" opacity="1"/></g></g><path class="foreground" aria-hidden="true" d="" pointer-events="none" display="none"/></g></g><g class="mark-group role-axis" aria-hidden="true"><g transform="translate(403.5,0.5)"><path class="background" aria-hidden="true" d="M0,0h0v0h0Z" pointer-events="none"/><g><g class="mark-rule role-axis-grid" pointer-events="none"><line transform="translate(-3,100)" x2="-400" y2="0" stroke="#ddd" stroke-width="1" opacity="1"/><line transform="translate(-3,67)" x2="-400" y2="0" stroke="#ddd" stroke-width="1" opacity="1"/><line transform="translate(-3,33)" x2="-400" y2="0" stroke="#ddd" stroke-width="1" opacity="1"/><line transform="translate(-3,0)" x2="-400" y2="0" stroke="#ddd" stroke-width="1" opacity="1"/></g></g><path class="foreground" aria-hidden="true" d="" pointer-events="none" display="none"/></g></g><g class="mark-group role-scope child_pathgroup" role="graphics-object" aria-roledescription="group mark container"><g transform="translate(0,0)"><path class="background" aria-hidden="true" d="M0,0h400v100h-400Z"/><g><g class="mark-line role-mark child_marks" role="graphics-object" aria-roledescription="line mark container"><path aria-label="Bandwidth: 0.01; Max Error: 5.02130162911; Method: Box" role="graphics-symbol" aria-roledescription="line mark" d="M8,43.30612299379416L12,50.31110747215152L16,32.35519127171042L20,38.27053952560115L24,43.235934522734624L28.000000000000004,47.73668857240434L32,37.05035936910114L36.00000000000001,40.16763799461215L40,43.08484090276994L44,36.57050085801142L48.00000000000001,38.83202609713793L52,40.98747956524177L55.99999999999999,43.06314044682639L60,38.082026468765875L64,39.796116650131395L68,41.454362562556724L72,37.59091789603701L76,39.01570402030718L80,40.39464749676625L84,41.74095735966491L88,38.470591113069815L92,39.65177976297471L96,40.8097900720857L100,38.067356244711334L104,39.1039070217772L108,40.11941251086184L112.00000000000001,41.11094903279751L116.00000000000001,38.677944065933076L120.00000000000001,39.58074187616997L124,40.47042677368891L128,41.34082336727165L132,39.153220700309454L136,39.9564854313434L140,40.74384927824455L144.00000000000003,38.80643103611781L148.00000000000003,39.53842342307029L152,40.25706879052263L156,40.96833007696304L160,39.18765941848851L164,39.85203365428399L168.00000000000003,40.50497965992853L172.00000000000003,38.89252347758121L176,39.50745276395495L180,40.11249083218919L184,40.71253474447214L188,39.21295690516915L192.00000000000003,39.77680005024449L196.00000000000003,40.33622773985158L200,38.9560659016041L204,39.4861873309467L208,40.008629701337654L212,40.526839912973436L216,39.23038453678414L220.00000000000003,39.721678678397154L224.00000000000003,40.2099751351885L228.00000000000003,40.69160118767999L232.00000000000003,39.46889382546105L236.00000000000003,39.92994086464612L240,40.38497475222401L244,39.244408161527964L248,39.67982668274049L252,40.11238625173552L256,40.54079173745957L260,39.45591904657133L264,39.86756784530186L268,40.27423102779844L272,39.25466389140837L276,39.646769184872454L280,40.034303071860045L284.00000000000006,40.420328347831195L288.00000000000006,39.44597995612572L292,39.81722436095527L296,40.185378483434995L300,39.26346252335489L304,39.61926634800078L308,39.97116678285788L312,40.32192400762089L316,39.43810441471689L320,39.77558483630672L324,40.112065401914386L328,40.444971953890786L332,39.59631527766935L336.00000000000006,39.91906199371614L340.00000000000006,40.2395972955212L344,39.43095719644138L348,39.74109687247108L352,40.05047274872437L356,40.35672349802578L360,39.57683630055322L364,39.875048749119024L368,40.17032804297839L372,39.42476390442218L376,39.71206664972938L380,39.99763967822656L384.00000000000006,40.28192756300428L388.00000000000006,39.56048020165033L392,39.83720704462767L396,40.11133491301783L400,39.419368419818525" stroke="#e15759" stroke-width="1.5"/></g></g><path class="foreground" aria-hidden="true" d="" display="none"/></g><g transform="translate(0,0)"><path class="background" aria-hidden="true" d="M0,0h400v100h-400Z"/><g><g class="mark-line role-mark child_marks" role="graphics-object" aria-roledescription="line mark container"><path aria-label="Bandwidth: 0.01; Max Error: 7.13831944098; Method: ExtBox" role="graphics-symbol" aria-roledescription="line mark" d="M8,38.21346737316874L12,40.591939274398015L16,40.79432682047906L20,40.04383855334554L24,40.30287027492617L28.000000000000004,40.459290487694574L32,40.24078611756764L36.00000000000001,39.89209992352524L40,40.1495934769285L44,40.14389378807517L48.00000000000001,39.98289209843774L52,39.98147827714615L55.99999999999999,40.059054454107944L60,40.01613632971278L64,39.890631706359805L68,39.976574673167L72,39.993180651952486L76,39.94476875815523L80,39.91919537770428L84,39.96441896489983L88,39.95738834120925L92,39.901727295208126L96,39.92943664301434L100,39.9466904132L104,39.929143034740164L108,39.90098298992787L112.00000000000001,39.93261350671942L116.00000000000001,39.93364725145507L120.00000000000001,39.903861604980904L124,39.91203918738141L128,39.92732140870767L132,39.918683152259845L136,39.89435628163126L140,39.91835813743997L144.00000000000003,39.91978926577796L148.00000000000003,39.90404253245053L152,39.90408639170126L156,39.91742247761378L160,39.91262895555734L164,39.894768823671L168.00000000000003,39.90924881260216L172.00000000000003,39.91230022774911L176,39.90370582332717L180,39.89996278075441L184,39.91040875252442L188,39.90893713959267L192.00000000000003,39.89754341297866L196.00000000000003,39.90368225726999L200,39.90782085686635L204,39.90324225389502L208,39.8975118677118L212,39.906014195374894L216,39.90649890911032L220.00000000000003,39.898163874913905L224.00000000000003,39.90034508646999L228.00000000000003,39.90494221241766L232.00000000000003,39.90277313143882L236.00000000000003,39.895296364375895L240,39.9031847040169L244,39.904234361891966L248,39.898475678227264L252,39.89824194029153L256,39.90299054082046L260,39.90229895667372L264,39.89523697054263L268,39.90127586278048L272,39.90229007853304L276,39.89862408225766L280,39.896867749633145L284.00000000000006,39.90161132636088L288.00000000000006,39.901341945117444L292,39.8964369087013L296,39.899257597300284L300,39.90090694602133L304,39.898682043034796L308,39.89594627950862L312,39.900555615738796L316,39.90061836969048L320,39.89698637699492L324,39.897839544329194L328,39.89989443115572L332,39.89868854083753L336.00000000000006,39.895317315687684L340.00000000000006,39.899392921623736L344,39.9000572420913L348,39.89710061788436L352,39.896823911921246L356,39.899135623941575L360,39.898665412159716L364,39.895478689993006L368,39.89852655709125L372,39.89927563898099L376,39.89717334369727L380,39.89608504373766L384.00000000000006,39.898555737382765L388.00000000000006,39.89862534090316L392,39.896039082068626L396,39.897787304769764L400,39.89859253477277" stroke="#555555" stroke-width="1.5"/></g></g><path class="foreground" aria-hidden="true" d="" display="none"/></g><g transform="translate(0,0)"><path class="background" aria-hidden="true" d="M0,0h400v100h-400Z"/><g><g class="mark-line role-mark child_marks" role="graphics-object" aria-roledescription="line mark container"><path aria-label="Bandwidth: 0.01; Max Error: 2.42612656778; Method: Deriche" role="graphics-symbol" aria-roledescription="line mark" d="M8,53.836218210512364L12,65.18516897410065L16,72.82881795145741L20,78.52903845649625L24,82.96247379259158L28.000000000000004,86.44014375936928L32,89.20559552453378L36.00000000000001,91.40572360155161L40,93.09993756175378L44,94.39335610905829L48.00000000000001,95.40616723270557L52,96.20629548043894L55.99999999999999,96.8431356525091L60,97.35386034862421L64,97.7664977257726L68,98.10227191448973L72,98.37734848012451L76,98.60412319258648L80,98.78994497673568L84,98.93783217607415L88,99.0608907897388L92,99.16378937685107L96,99.25021107118084L100,99.32308189691783L104,99.38474268087884L108,99.43707840811419L112.00000000000001,99.48161684383557L116.00000000000001,99.51960368893424L120.00000000000001,99.54915521997133L124,99.57086509352581L128,99.58913806638171L132,99.60450983209911L136,99.61742414601932L140,99.62824911484573L144.00000000000003,99.63729214470041L148.00000000000003,99.64481324881403L152,99.65096451970265L156,99.65175695663224L160,99.65192886974279L164,99.65158681309755L168.00000000000003,99.65081604459336L172.00000000000003,99.64969283914574L176,99.64827682488556L180,99.6466207607085L184,99.64476716822206L188,99.63974129479814L192.00000000000003,99.63471588548445L196.00000000000003,99.6297884435663L200,99.62497035970921L204,99.62026401889386L208,99.61567608200627L212,99.61120508147012L216,99.60658041160482L220.00000000000003,99.60673761108036L224.00000000000003,99.64086032108095L228.00000000000003,99.67266203098517L232.00000000000003,99.7023060453347L236.00000000000003,99.72994954511336L240,99.75573017245989L244,99.77854548466537L248,99.79880292337326L252,99.81768297920861L256,99.83527892301352L260,99.85167199197488L264,99.86695056723256L268,99.8811797711931L272,99.89269048644583L276,99.90332394314065L280,99.91319900622733L284.00000000000006,99.92234958923888L288.00000000000006,99.93083622680003L292,99.93869609344512L296,99.94560203022202L300,99.95088238417806L304,99.95570300510515L308,99.96012828827854L312,99.96413904896009L316,99.96779104010875L320,99.9711170157903L324,99.97360485957665L328,99.97509396250727L332,99.976376767886L336.00000000000006,99.97743153781501L340.00000000000006,99.9782756136734L344,99.97893630968986L348,99.97942741532675L352,99.97926094199987L356,99.9784345794734L360,99.97747949148112L364,99.97644914333918L368,99.97531290382256L372,99.9741452907354L376,99.97286237393446L380,99.97109907776952L384.00000000000006,99.96882145835625L388.00000000000006,99.9665220888549L392,99.96417646875328L396,99.96184994313673L400,99.95949681140736" stroke="#4e79a7" stroke-width="1.5"/></g></g><path class="foreground" aria-hidden="true" d="" display="none"/></g></g></g><path class="foreground" aria-hidden="true" d="" display="none"/></g></g><g class="mark-group role-legend" role="graphics-symbol" aria-roledescription="legend" aria-label="Symbol legend titled 'Method' for stroke color with 3 values: Box, ExtBox, Deriche"><g transform="translate(896,0)"><path class="background" aria-hidden="true" d="M0,0h72v53h-72Z" pointer-events="none"/><g><g class="mark-group role-legend-entry"><g transform="translate(0,16)"><path class="background" aria-hidden="true" d="M0,0h0v0h0Z" pointer-events="none"/><g><g class="mark-group role-scope" role="graphics-object" aria-roledescription="group mark container"><g transform="translate(0,0)"><path class="background" aria-hidden="true" d="M0,0h72v11h-72Z" pointer-events="none" opacity="1"/><g><g class="mark-symbol role-legend-symbol" pointer-events="none"><path transform="translate(6,6)" d="M-5,0L5,0" stroke="#e15759" stroke-width="1.5" opacity="1"/></g><g class="mark-text role-legend-label" pointer-events="none"><text text-anchor="start" transform="translate(16,9)" font-family="sans-serif" font-size="10px" fill="#000" opacity="1">Box</text></g></g><path class="foreground" aria-hidden="true" d="" pointer-events="none" display="none"/></g><g transform="translate(0,13)"><path class="background" aria-hidden="true" d="M0,0h72v11h-72Z" pointer-events="none" opacity="1"/><g><g class="mark-symbol role-legend-symbol" pointer-events="none"><path transform="translate(6,6)" d="M-5,0L5,0" stroke="#555555" stroke-width="1.5" opacity="1"/></g><g class="mark-text role-legend-label" pointer-events="none"><text text-anchor="start" transform="translate(16,9)" font-family="sans-serif" font-size="10px" fill="#000" opacity="1">ExtBox</text></g></g><path class="foreground" aria-hidden="true" d="" pointer-events="none" display="none"/></g><g transform="translate(0,26)"><path class="background" aria-hidden="true" d="M0,0h72v11h-72Z" pointer-events="none" opacity="1"/><g><g class="mark-symbol role-legend-symbol" pointer-events="none"><path transform="translate(6,6)" d="M-5,0L5,0" stroke="#4e79a7" stroke-width="1.5" opacity="1"/></g><g class="mark-text role-legend-label" pointer-events="none"><text text-anchor="start" transform="translate(16,9)" font-family="sans-serif" font-size="10px" fill="#000" opacity="1">Deriche</text></g></g><path class="foreground" aria-hidden="true" d="" pointer-events="none" display="none"/></g></g></g><path class="foreground" aria-hidden="true" d="" pointer-events="none" display="none"/></g></g><g class="mark-text role-legend-title" pointer-events="none"><text text-anchor="start" transform="translate(0,9)" font-family="sans-serif" font-size="11px" font-weight="bold" fill="#000" opacity="1">Method</text></g></g><path class="foreground" aria-hidden="true" d="" pointer-events="none" display="none"/></g></g></g><path class="foreground" aria-hidden="true" d="" display="none"/></g></g></g></svg>