<svg xmlns="http://www.w3.org/2000/svg" xmlns:xlink="http://www.w3.org/1999/xlink" version="1.1" class="marks" width="506" height="289" viewBox="0 0 506 289"><rect width="506" height="289" fill="white"/><g fill="none" stroke-miterlimit="10" transform="translate(48,26)"><g class="mark-group role-frame root" role="graphics-object" aria-roledescription="group mark container"><g transform="translate(0,0)"><path class="background" aria-hidden="true" d="M0,0h0v0h0Z"/><g><g class="mark-group role-row-header row_header" role="graphics-object" aria-roledescription="group mark container"><g transform="translate(-1,0)"><path class="background" aria-hidden="true" d="M0,0h0v100h0Z"/><g><g class="mark-group role-title"><g transform="translate(-42,50)"><path class="background" aria-hidden="true" d="M0,0h0v0h0Z" pointer-events="none"/><g><g class="mark-text role-title-text" role="graphics-symbol" aria-roledescription="title" aria-label="Title text '256 bins'" pointer-events="none"><text text-anchor="start" transform="translate(0,3)" font-family="sans-serif" font-size="10px" fill="#000" opacity="1"><tspan>256</tspan><tspan x="0" dy="12">bins</tspan></text></g></g><path class="foreground" aria-hidden="true" d="" pointer-events="none" display="none"/></g></g></g><path class="foreground" aria-hidden="true" d="" display="none"/></g><g transform="translate(-1,124)"><path class="background" aria-hidden="true" d="M0,0h0v100h0Z"/><g><g class="mark-group role-title"><g transform="translate(-42,50)"><path class="background" aria-hidden="true" d="M0,0h0v0h0Z" pointer-events="none"/><g><g class="mark-text role-title-text" role="graphics-symbol" aria-roledescription="title" aria-label="Title text '512 bins'" pointer-events="none"><text text-anchor="start" transform="translate(0,3)" font-family="sans-serif" font-size="10px" fill="#000" opacity="1"><tspan>512</tspan><tspan x="0" dy="12">bins</tspan></text></g></g><path class="foreground" aria-hidden="true" d="" pointer-events="none" display="none"/></g></g></g><path class="foreground" aria-hidden="true" d="" display="none"/></g></g><g class="mark-group role-row-footer row_footer" role="graphics-object" aria-roledescription="group mark container"><g transform="translate(404,0)"><path class="background" aria-hidden="true" d="M0,0h0v100h0Z"/><g><g class="mark-group role-axis" role="graphics-symbol" aria-roledescription="axis" aria-label="Y-axis titled 'Time (ms)' for a log scale with values from 1 to 100"><g transform="translate(3.5,0.5)"><path class="background" aria-hidden="true" d="M0,0h0v0h0Z" pointer-events="none"/><g><g class="mark-rule role-axis-tick" pointer-events="none"><line transform="translate(0,100)" x2="5" y2="0" stroke="#888" stroke-width="1" opacity="1"/><line transform="translate(0,50)" x2="5" y2="0" stroke="#888" stroke-width="1" opacity="1"/><line transform="translate(0,0)" x2="5" y2="0" stroke="#888" stroke-width="1" opacity="1"/></g><g class="mark-text role-axis-label" pointer-events="none"><text text-anchor="start" transform="translate(7,98)" font-family="sans-serif" font-size="10px" fill="#000" opacity="1">1</text><text text-anchor="start" transform="translate(7,53)" font-family="sans-serif" font-size="10px" fill="#000" opacity="1">10</text><text text-anchor="start" transform="translate(7,8)" font-family="sans-serif" font-size="10px" fill="#000" opacity="1">100</text></g><g class="mark-rule role-axis-domain" pointer-events="none"><line transform="translate(0,100)" x2="0" y2="-100" stroke="#888" stroke-width="1" opacity="1"/></g><g class="mark-text role-axis-title" pointer-events="none"><text text-anchor="middle" transform="translate(35,50) rotate(90) translate(0,-2)" font-family="sans-serif" font-size="11px" font-weight="bold" fill="#000" opacity="1">Time (ms)</text></g></g><path class="foreground" aria-hidden="true" d="" pointer-events="none" display="none"/></g></g></g><path class="foreground" aria-hidden="true" d="" display="none"/></g><g transform="translate(404,124)"><path class="background" aria-hidden="true" d="M0,0h0v100h0Z"/><g><g class="mark-group role-axis" role="graphics-symbol" aria-roledescription="axis" aria-label="Y-axis titled 'Time (ms)' for a log scale with values from 1 to 100"><g transform="translate(3.5,0.5)"><path class="background" aria-hidden="true" d="M0,0h0v0h0Z" pointer-events="none"/><g><g class="mark-rule role-axis-tick" pointer-events="none"><line transform="translate(0,100)" x2="5" y2="0" stroke="#888" stroke-width="1" opacity="1"/><line transform="translate(0,50)" x2="5" y2="0" stroke="#888" stroke-width="1" opacity="1"/><line transform="translate(0,0)" x2="5" y2="0" stroke="#888" stroke-width="1" opacity="1"/></g><g class="mark-text role-axis-label" pointer-events="none"><text text-anchor="start" transform="translate(7,98)" font-family="sans-serif" font-size="10px" fill="#000" opacity="1">1</text><text text-anchor="start" transform="translate(7,53)" font-family="sans-serif" font-size="10px" fill="#000" opacity="1">10</text><text text-anchor="start" transform="translate(7,8)" font-family="sans-serif" font-size="10px" fill="#000" opacity="1">100</text></g><g class="mark-rule role-axis-domain" pointer-events="none"><line transform="translate(0,100)" x2="0" y2="-100" stroke="#888" stroke-width="1" opacity="1"/></g><g class="mark-text role-axis-title" pointer-events="none"><text text-anchor="middle" transform="translate(35,50) rotate(90) translate(0,-2)" font-family="sans-serif" font-size="11px" font-weight="bold" fill="#000" opacity="1">Time (ms)</text></g></g><path class="foreground" aria-hidden="true" d="" pointer-events="none" display="none"/></g></g></g><path class="foreground" aria-hidden="true" d="" display="none"/></g></g><g class="mark-group role-column-footer column_footer" role="graphics-object" aria-roledescription="group mark container"><g transform="translate(0,226)"><path class="background" aria-hidden="true" d="M0,0h400v0h-400Z"/><g><g class="mark-group role-axis" role="graphics-symbol" aria-roledescription="axis" aria-label="X-axis titled 'Bandwidth' for a linear scale with values from 0.00 to 0.20"><g transform="translate(0.5,0.5)"><path class="background" aria-hidden="true" d="M0,0h0v0h0Z" pointer-events="none"/><g><g class="mark-rule role-axis-tick" pointer-events="none"><line transform="translate(0,0)" x2="0" y2="5" stroke="#888" stroke-width="1" opacity="1"/><line transform="translate(40,0)" x2="0" y2="5" stroke="#888" stroke-width="1" opacity="1"/><line transform="translate(80,0)" x2="0" y2="5" stroke="#888" stroke-width="1" opacity="1"/><line transform="translate(120,0)" x2="0" y2="5" stroke="#888" stroke-width="1" opacity="1"/><line transform="translate(160,0)" x2="0" y2="5" stroke="#888" stroke-width="1" opacity="1"/><line transform="translate(200,0)" x2="0" y2="5" stroke="#888" stroke-width="1" opacity="1"/><line transform="translate(240,0)" x2="0" y2="5" stroke="#888" stroke-width="1" opacity="1"/><line transform="translate(280,0)" x2="0" y2="5" stroke="#888" stroke-width="1" opacity="1"/><line transform="translate(320,0)" x2="0" y2="5" stroke="#888" stroke-width="1" opacity="1"/><line transform="translate(360,0)" x2="0" y2="5" stroke="#888" stroke-width="1" opacity="1"/><line transform="translate(400,0)" x2="0" y2="5" stroke="#888" stroke-width="1" opacity="1"/></g><g class="mark-text role-axis-label" pointer-events="none"><text text-anchor="start" transform="translate(0,15)" font-family="sans-serif" font-size="10px" fill="#000" opacity="1">0.00</text><text text-anchor="middle" transform="translate(40,15)" font-family="sans-serif" font-size="10px" fill="#000" opacity="0">0.02</text><text text-anchor="middle" transform="translate(80,15)" font-family="sans-serif" font-size="10px" fill="#000" opacity="1">0.04</text><text text-anchor="middle" transform="translate(120,15)" font-family="sans-serif" font-size="10px" fill="#000" opacity="0">0.06</text><text text-anchor="middle" transform="translate(160,15)" font-family="sans-serif" font-size="10px" fill="#000" opacity="1">0.08</text><text text-anchor="middle" transform="translate(200,15)" font-family="sans-serif" font-size="10px" fill="#000" opacity="0">0.10</text><text text-anchor="middle" transform="translate(240,15)" font-family="sans-serif" font-size="10px" fill="#000" opacity="1">0.12</text><text text-anchor="middle" transform="translate(280,15)" font-family="sans-serif" font-size="10px" fill="#000" opacity="0">0.14</text><text text-anchor="middle" transform="translate(320,15)" font-family="sans-serif" font-size="10px" fill="#000" opacity="1">0.16</text><text text-anchor="middle" transform="translate(359.99999999999994,15)" font-family="sans-serif" font-size="10px" fill="#000" opacity="0">0.18</text><text text-anchor="end" transform="translate(400,15)" font-family="sans-serif" font-size="10px" fill="#000" opacity="1">0.20</text></g><g class="mark-rule role-axis-domain" pointer-events="none"><line transform="translate(0,0)" x2="400" y2="0" stroke="#888" stroke-width="1" opacity="1"/></g><g class="mark-text role-axis-title" pointer-events="none"><text text-anchor="middle" transform="translate(200,30)" font-family="sans-serif" font-size="11px" font-weight="bold" fill="#000" opacity="1">Bandwidth</text></g></g><path class="foreground" aria-hidden="true" d="" pointer-events="none" display="none"/></g></g></g><path class="foreground" aria-hidden="true" d="" display="none"/></g></g><g class="mark-group role-scope cell" role="graphics-object" aria-roledescription="group mark container"><g transform="translate(0,0)"><path class="background" aria-hidden="true" d="M0.5,0.5h400v100h-400Z" stroke="#ddd"/><g><g class="mark-group role-axis" aria-hidden="true"><g transform="translate(0.5,100.5)"><path class="background" aria-hidden="true" d="M0,0h0v0h0Z" pointer-events="none"/><g><g class="mark-rule role-axis-grid" pointer-events="none"><line transform="translate(0,-100)" x2="0" y2="100" stroke="#ddd" stroke-width="1" opacity="1"/><line transform="translate(40,-100)" x2="0" y2="100" stroke="#ddd" stroke-width="1" opacity="1"/><line transform="translate(80,-100)" x2="0" y2="100" stroke="#ddd" stroke-width="1" opacity="1"/><line transform="translate(120,-100)" x2="0" y2="100" stroke="#ddd" stroke-width="1" opacity="1"/><line transform="translate(160,-100)" x2="0" y2="100" stroke="#ddd" stroke-width="1" opacity="1"/><line transform="translate(200,-100)" x2="0" y2="100" stroke="#ddd" stroke-width="1" opacity="1"/><line transform="translate(240,-100)" x2="0" y2="100" stroke="#ddd" stroke-width="1" opacity="1"/><line transform="translate(280,-100)" x2="0" y2="100" stroke="#ddd" stroke-width="1" opacity="1"/><line transform="translate(320,-100)" x2="0" y2="100" stroke="#ddd" stroke-width="1" opacity="1"/><line transform="translate(360,-100)" x2="0" y2="100" stroke="#ddd" stroke-width="1" opacity="1"/><line transform="translate(400,-100)" x2="0" y2="100" stroke="#ddd" stroke-width="1" opacity="1"/></g></g><path class="foreground" aria-hidden="true" d="" pointer-events="none" display="none"/></g></g><g class="mark-group role-axis" aria-hidden="true"><g transform="translate(403.5,0.5)"><path class="background" aria-hidden="true" d="M0,0h0v0h0Z" pointer-events="none"/><g><g class="mark-rule role-axis-grid" pointer-events="none"><line transform="translate(-3,100)" x2="-400" y2="0" stroke="#ddd" stroke-width="1" opacity="1"/><line transform="translate(-3,50)" x2="-400" y2="0" stroke="#ddd" stroke-width="1" opacity="1"/><line transform="translate(-3,0)" x2="-400" y2="0" stroke="#ddd" stroke-width="1" opacity="1"/></g></g><path class="foreground" aria-hidden="true" d="" pointer-events="none" display="none"/></g></g><g class="mark-rule role-mark child_layer_0_marks" role="graphics-object" aria-roledescription="rule mark container"><line aria-label="nrd: 0.0488527627765" role="graphics-symbol" aria-roledescription="rule mark" transform="translate(97.70552555299827,0)" x2="0" y2="100" stroke="#888" stroke-dasharray="4,4"/></g><g class="mark-group role-scope child_layer_1_pathgroup" role="graphics-object" aria-roledescription="group mark container"><g transform="translate(0,0)"><path class="background" aria-hidden="true" d="M0,0h400v100h-400Z"/><g><g class="mark-line role-mark child_layer_1_marks" role="graphics-object" aria-roledescription="line mark container"><path aria-label="Bandwidth: 0.01; Time (ms): 2.96375451088; method: Deriche" role="graphics-symbol" aria-roledescription="line mark" d="M20,76.40788860052174L40,77.04040320299451L60,75.85845883331189L80,76.26385403856236L100,76.19003557250068L120,77.43141321324381L139.99999999999997,77.5496345313965L160,77.54143674069795L179.99999999999997,77.0015662476114L199.99999999999997,77.28912510041617L219.99999999999997,77.48738611107933L240,77.16677946672921L260,76.66692337074956L280,78.06235585121269L300.00000000000006,78.33337290014728L320,75.8946224872221L340,77.27471974989292L360,77.33758182281768L380,76.61360806434077L400,76.43135499718295" stroke="#4e79a7" stroke-width="1.5" opacity="1"/></g></g><path class="foreground" aria-hidden="true" d="" display="none"/></g><g transform="translate(0,0)"><path class="background" aria-hidden="true" d="M0,0h400v100h-400Z"/><g><g class="mark-line role-mark child_layer_1_marks" role="graphics-object" aria-roledescription="line mark container"><path aria-label="Bandwidth: 0.01; Time (ms): 1.91453294754; method: Box" role="graphics-symbol" aria-roledescription="line mark" d="M20,85.8968577700243L40,82.29570294308361L60,81.36744731511216L80,79.01715110151837L100,79.6319022505289L120,77.04820779401925L139.99999999999997,76.15786009396086L160,75.38183015587758L179.99999999999997,73.41936837480961L199.99999999999997,72.05748027645012L219.99999999999997,70.1893092892588L240,69.69874187752399L260,67.3738988792788L280,67.26620752161274L300.00000000000006,66.03577765518119L320,61.00231809237702L340,56.67621400519166L360,57.78019828955622L380,54.06148970179101L400,54.39472320390701" stroke="#e15759" stroke-width="1.5" opacity="1"/></g></g><path class="foreground" aria-hidden="true" d="" display="none"/></g><g transform="translate(0,0)"><path class="background" aria-hidden="true" d="M0,0h400v100h-400Z"/><g><g class="mark-line role-mark child_layer_1_marks" role="graphics-object" aria-roledescription="line mark container"><path aria-label="Bandwidth: 0.01; Time (ms): 2.94261159897; method: ExtBox" role="graphics-symbol" aria-roledescription="line mark" d="M20,76.56335287457233L40,77.0587621593473L60,74.07920306675076L80,72.30463932061184L100,70.32979846053493L120,68.89397187677713L139.99999999999997,67.48931518873043L160,67.58509737885838L179.99999999999997,65.70139926879625L199.99999999999997,62.567829275266185L219.99999999999997,62.45613146563998L240,60.21879811035294L260,56.33624680173837L280,57.62346373105394L300.00000000000006,56.32045829774932L320,52.171361648400364L340,52.104407298276634L360,49.26924718912472L380,47.793147475866625L400,47.07445007448465" stroke="#555555" stroke-width="1.5" opacity="1"/></g></g><path class="foreground" aria-hidden="true" d="" display="none"/></g></g></g><path class="foreground" aria-hidden="true" d="" display="none"/></g><g transform="translate(0,124)"><path class="background" aria-hidden="true" d="M0.5,0.5h400v100h-400Z" stroke="#ddd"/><g><g class="mark-group role-axis" aria-hidden="true"><g transform="translate(0.5,100.5)"><path class="background" aria-hidden="true" d="M0,0h0v0h0Z" pointer-events="none"/><g><g class="mark-rule role-axis-grid" pointer-events="none"><line transform="translate(0,-100)" x2="0" y2="100" stroke="#ddd" stroke-width="1" opacity="1"/><line transform="translate(40,-100)" x2="0" y2="100" stroke="#ddd" stroke-width="1" opacity="1"/><line transform="translate(80,-100)" x2="0" y2="100" stroke="#ddd" stroke-width="1" opacity="1"/><line transform="translate(120,-100)" x2="0" y2="100" stroke="#ddd" stroke-width="1" opacity="1"/><line transform="translate(160,-100)" x2="0" y2="100" stroke="#ddd" stroke-width="1" opacity="1"/><line transform="translate(200,-100)" x2="0" y2="100" stroke="#ddd" stroke-width="1" opacity="1"/><line transform="translate(240,-100)" x2="0" y2="100" stroke="#ddd" stroke-width="1" opacity="1"/><line transform="translate(280,-100)" x2="0" y2="100" stroke="#ddd" stroke-width="1" opacity="1"/><line transform="translate(320,-100)" x2="0" y2="100" stroke="#ddd" stroke-width="1" opacity="1"/><line transform="translate(360,-100)" x2="0" y2="100" stroke="#ddd" stroke-width="1" opacity="1"/><line transform="translate(400,-100)" x2="0" y2="100" stroke="#ddd" stroke-width="1" opacity="1"/></g></g><path class="foreground" aria-hidden="true" d="" pointer-events="none" display="none"/></g></g><g class="mark-group role-axis" aria-hidden="true"><g transform="translate(403.5,0.5)"><path class="background" aria-hidden="true" d="M0,0h0v0h0Z" pointer-events="none"/><g><g class="mark-rule role-axis-grid" pointer-events="none"><line transform="translate(-3,100)" x2="-400" y2="0" stroke="#ddd" stroke-width="1" opacity="1"/><line transform="translate(-3,50)" x2="-400" y2="0" stroke="#ddd" stroke-width="1" opacity="1"/><line transform="translate(-3,0)" x2="-400" y2="0" stroke="#ddd" stroke-width="1" opacity="1"/></g></g><path class="foreground" aria-hidden="true" d="" pointer-events="none" display="none"/></g></g><g class="mark-rule role-mark child_layer_0_marks" role="graphics-object" aria-roledescription="rule mark container"><line aria-label="nrd: 0.0488527627765" role="graphics-symbol" aria-roledescription="rule mark" transform="translate(97.70552555299827,0)" x2="0" y2="100" stroke="#888" stroke-dasharray="4,4"/></g><g class="mark-group role-scope child_layer_1_pathgroup" role="graphics-object" aria-roledescription="group mark container"><g transform="translate(0,0)"><path class="background" aria-hidden="true" d="M0,0h400v100h-400Z"/><g><g class="mark-line role-mark child_layer_1_marks" role="graphics-object" aria-roledescription="line mark container"><path aria-label="Bandwidth: 0.01; Time (ms): 11.7289844513; method: Deriche" role="graphics-symbol" aria-roledescription="line mark" d="M20,46.53697947219679L40,46.11535139929914L60,45.39756852721567L80,46.65964902015296L100,46.52551858885127L120,46.193348955948125L139.99999999999997,46.71409649811123L160,46.559617166013645L179.99999999999997,46.843990146556756L199.99999999999997,46.95362665202409L219.99999999999997,46.71978918625788L240,47.78463738690998L260,48.18211815621358L280,47.61988114461306L300.00000000000006,47.28418475347728L320,47.072836921555606L340,46.90899942919911L360,48.32545689641014L380,47.90001603706258L400,47.55962559889396" stroke="#4e79a7" stroke-width="1.5" opacity="1"/></g></g><path class="foreground" aria-hidden="true" d="" display="none"/></g><g transform="translate(0,0)"><path class="background" aria-hidden="true" d="M0,0h400v100h-400Z"/><g><g class="mark-line role-mark child_layer_1_marks" role="graphics-object" aria-roledescription="line mark container"><path aria-label="Bandwidth: 0.01; Time (ms): 6.63757581711; method: Box" role="graphics-symbol" aria-roledescription="line mark" d="M20,58.899525259639354L40,55.89989701103293L60,50.83403960591302L80,51.00091676120455L100,47.980917614504605L120,46.15734513635255L139.99999999999997,44.498096658478545L160,42.2560035076653L179.99999999999997,39.418022956863766L199.99999999999997,34.075021641769666L219.99999999999997,31.70411398549502L240,30.809213131547953L260,28.751800860313004L280,25.98127412009077L300.00000000000006,24.90347727090424L320,21.670859259201347L340,17.627659126182216L360,18.44228633861691L380,16.25042781300019L400,13.678158921560424" stroke="#e15759" stroke-width="1.5" opacity="1"/></g></g><path class="foreground" aria-hidden="true" d="" display="none"/></g><g transform="translate(0,0)"><path class="background" aria-hidden="true" d="M0,0h400v100h-400Z"/><g><g class="mark-line role-mark child_layer_1_marks" role="graphics-object" aria-roledescription="line mark container"><path aria-label="Bandwidth: 0.01; Time (ms): 10.7159948349; method: ExtBox" role="graphics-symbol" aria-roledescription="line mark" d="M20,48.49837521966687L40,46.933255149356626L60,46.506819321000535L80,43.0299223634679L100,40.89803545941496L120,38.30902392039245L139.99999999999997,36.60535094611982L160,34.10470889276348L179.99999999999997,32.9569570473743L199.99999999999997,31.026868131750472L219.99999999999997,28.56770973596616L240,27.2399774048083L260,24.72591412667109L280,22.265787556558458L300.00000000000006,20.723717868429205L320,17.599775085859214L340,17.280903369381797L360,14.972586521888399L380,12.69384234052795L400,13.254135192814676" stroke="#555555" stroke-width="1.5" opacity="1"/></g></g><path class="foreground" aria-hidden="true" d="" display="none"/></g></g></g><path class="foreground" aria-hidden="true" d="" display="none"/></g></g><g class="mark-group role-legend" role="graphics-symbol" aria-roledescription="legend" aria-label="Symbol legend titled 'Method' for stroke color with 3 values: Box, ExtBox, Deriche"><g transform="translate(0,-21)"><path class="background" aria-hidden="true" d="M0,0h258v11h-258Z" pointer-events="none"/><g><g class="mark-group role-legend-entry"><g transform="translate(50,0)"><path class="background" aria-hidden="true" d="M0,0h0v0h0Z" pointer-events="none"/><g><g class="mark-group role-scope" role="graphics-object" aria-roledescription="group mark container"><g transform="translate(0,0)"><path class="background" aria-hidden="true" d="M0,0h40v11h-40Z" pointer-events="none" opacity="1"/><g><g class="mark-symbol role-legend-symbol" pointer-events="none"><path transform="translate(6,6)" d="M-5,0L5,0" stroke="#e15759" stroke-width="1.5" opacity="1"/></g><g class="mark-text role-legend-label" pointer-events="none"><text text-anchor="start" transform="translate(16,9)" font-family="sans-serif" font-size="10px" fill="#000" opacity="1">Box</text></g></g><path class="foreground" aria-hidden="true" d="" pointer-events="none" display="none"/></g><g transform="translate(41,0)"><path class="background" aria-hidden="true" d="M0,0h64v11h-64Z" pointer-events="none" opacity="1"/><g><g class="mark-symbol role-legend-symbol" pointer-events="none"><path transform="translate(6,6)" d="M-5,0L5,0" stroke="#555555" stroke-width="1.5" opacity="1"/></g><g class="mark-text role-legend-label" pointer-events="none"><text text-anchor="start" transform="translate(16,9)" font-family="sans-serif" font-size="10px" fill="#000" opacity="1">ExtBox</text></g></g><path class="foreground" aria-hidden="true" d="" pointer-events="none" display="none"/></g><g transform="translate(96,0)"><path class="background" aria-hidden="true" d="M0,0h72v11h-72Z" pointer-events="none" opacity="1"/><g><g class="mark-symbol role-legend-symbol" pointer-events="none"><path transform="translate(6,6)" d="M-5,0L5,0" stroke="#4e79a7" stroke-width="1.5" opacity="1"/></g><g class="mark-text role-legend-label" pointer-events="none"><text text-anchor="start" transform="translate(16,9)" font-family="sans-serif" font-size="10px" fill="#000" opacity="1">Deriche</text></g></g><path class="foreground" aria-hidden="true" d="" pointer-events="none" display="none"/></g></g></g><path class="foreground" aria-hidden="true" d="" pointer-events="none" display="none"/></g></g><g class="mark-text role-legend-title" pointer-events="none"><text text-anchor="start" transform="translate(0,9)" font-family="sans-serif" font-size="11px" font-weight="bold" fill="#000" opacity="1">Method</text></g></g><path class="foreground" aria-hidden="true" d="" pointer-events="none" display="none"/></g></g></g><path class="foreground" aria-hidden="true" d="" display="none"/></g></g></g></svg>