<svg xmlns="http://www.w3.org/2000/svg" xmlns:xlink="http://www.w3.org/1999/xlink" version="1.1" class="marks" width="455" height="151" viewBox="0 0 455 151"><rect width="455" height="151" fill="white"/><g fill="none" stroke-miterlimit="10" transform="translate(1,19)"><g class="mark-group role-frame root" role="graphics-object" aria-roledescription="group mark container"><g transform="translate(0,0)"><path class="background" aria-hidden="true" d="M0.5,0.5h400v100h-400Z" stroke="#ddd"/><g><g class="mark-group role-axis" aria-hidden="true"><g transform="translate(0.5,100.5)"><path class="background" aria-hidden="true" d="M0,0h0v0h0Z" pointer-events="none"/><g><g class="mark-rule role-axis-grid" pointer-events="none"><line transform="translate(0,-100)" x2="0" y2="100" stroke="#ddd" stroke-width="1" opacity="1"/><line transform="translate(24,-100)" x2="0" y2="100" stroke="#ddd" stroke-width="1" opacity="1"/><line transform="translate(38,-100)" x2="0" y2="100" stroke="#ddd" stroke-width="1" opacity="1"/><line transform="translate(48,-100)" x2="0" y2="100" stroke="#ddd" stroke-width="1" opacity="1"/><line transform="translate(56,-100)" x2="0" y2="100" stroke="#ddd" stroke-width="1" opacity="1"/><line transform="translate(62,-100)" x2="0" y2="100" stroke="#ddd" stroke-width="1" opacity="1"/><line transform="translate(68,-100)" x2="0" y2="100" stroke="#ddd" stroke-width="1" opacity="1"/><line transform="translate(72,-100)" x2="0" y2="100" stroke="#ddd" stroke-width="1" opacity="1"/><line transform="translate(76,-100)" x2="0" y2="100" stroke="#ddd" stroke-width="1" opacity="1"/><line transform="translate(80,-100)" x2="0" y2="100" stroke="#ddd" stroke-width="1" opacity="1"/><line transform="translate(104,-100)" x2="0" y2="100" stroke="#ddd" stroke-width="1" opacity="1"/><line transform="translate(118,-100)" x2="0" y2="100" stroke="#ddd" stroke-width="1" opacity="1"/><line transform="translate(128,-100)" x2="0" y2="100" stroke="#ddd" stroke-width="1" opacity="1"/><line transform="translate(136,-100)" x2="0" y2="100" stroke="#ddd" stroke-width="1" opacity="1"/><line transform="translate(142,-100)" x2="0" y2="100" stroke="#ddd" stroke-width="1" opacity="1"/><line transform="translate(148,-100)" x2="0" y2="100" stroke="#ddd" stroke-width="1" opacity="1"/><line transform="translate(152,-100)" x2="0" y2="100" stroke="#ddd" stroke-width="1" opacity="1"/><line transform="translate(156,-100)" x2="0" y2="100" stroke="#ddd" stroke-width="1" opacity="1"/><line transform="translate(160,-100)" x2="0" y2="100" stroke="#ddd" stroke-width="1" opacity="1"/><line transform="translate(184,-100)" x2="0" y2="100" stroke="#ddd" stroke-width="1" opacity="1"/><line transform="translate(198,-100)" x2="0" y2="100" stroke="#ddd" stroke-width="1" opacity="1"/><line transform="translate(208,-100)" x2="0" y2="100" stroke="#ddd" stroke-width="1" opacity="1"/><line transform="translate(216,-100)" x2="0" y2="100" stroke="#ddd" stroke-width="1" opacity="1"/><line transform="translate(222,-100)" x2="0" y2="100" stroke="#ddd" stroke-width="1" opacity="1"/><line transform="translate(228,-100)" x2="0" y2="100" stroke="#ddd" stroke-width="1" opacity="1"/><line transform="translate(232,-100)" x2="0" y2="100" stroke="#ddd" stroke-width="1" opacity="1"/><line transform="translate(236,-100)" x2="0" y2="100" stroke="#ddd" stroke-width="1" opacity="1"/><line transform="translate(240,-100)" x2="0" y2="100" stroke="#ddd" stroke-width="1" opacity="1"/><line transform="translate(264,-100)" x2="0" y2="100" stroke="#ddd" stroke-width="1" opacity="1"/><line transform="translate(278,-100)" x2="0" y2="100" stroke="#ddd" stroke-width="1" opacity="1"/><line transform="translate(288,-100)" x2="0" y2="100" stroke="#ddd" stroke-width="1" opacity="1"/><line transform="translate(296,-100)" x2="0" y2="100" stroke="#ddd" stroke-width="1" opacity="1"/><line transform="translate(302,-100)" x2="0" y2="100" stroke="#ddd" stroke-width="1" opacity="1"/><line transform="translate(308,-100)" x2="0" y2="100" stroke="#ddd" stroke-width="1" opacity="1"/><line transform="translate(312,-100)" x2="0" y2="100" stroke="#ddd" stroke-width="1" opacity="1"/><line transform="translate(316,-100)" x2="0" y2="100" stroke="#ddd" stroke-width="1" opacity="1"/><line transform="translate(320,-100)" x2="0" y2="100" stroke="#ddd" stroke-width="1" opacity="1"/><line transform="translate(344,-100)" x2="0" y2="100" stroke="#ddd" stroke-width="1" opacity="1"/><line transform="translate(358,-100)" x2="0" y2="100" stroke="#ddd" stroke-width="1" opacity="1"/><line transform="translate(368,-100)" x2="0" y2="100" stroke="#ddd" stroke-width="1" opacity="1"/><line transform="translate(376,-100)" x2="0" y2="100" stroke="#ddd" stroke-width="1" opacity="1"/><line transform="translate(382,-100)" x2="0" y2="100" stroke="#ddd" stroke-width="1" opacity="1"/><line transform="translate(388,-100)" x2="0" y2="100" stroke="#ddd" stroke-width="1" opacity="1"/><line transform="translate(392,-100)" x2="0" y2="100" stroke="#ddd" stroke-width="1" opacity="1"/><line transform="translate(396,-100)" x2="0" y2="100" stroke="#ddd" stroke-width="1" opacity="1"/><line transform="translate(400,-100)" x2="0" y2="100" stroke="#ddd" stroke-width="1" opacity="1"/></g></g><path class="foreground" aria-hidden="true" d="" pointer-events="none" display="none"/></g></g><g class="mark-group role-axis" aria-hidden="true"><g transform="translate(400.5,0.5)"><path class="background" aria-hidden="true" d="M0,0h0v0h0Z" pointer-events="none"/><g><g class="mark-rule role-axis-grid" pointer-events="none"><line transform="translate(0,94)" x2="-400" y2="0" stroke="#ddd" stroke-width="1" opacity="1"/><line transform="translate(0,74)" x2="-400" y2="0" stroke="#ddd" stroke-width="1" opacity="1"/><line transform="translate(0,54)" x2="-400" y2="0" stroke="#ddd" stroke-width="1" opacity="1"/><line transform="translate(0,34)" x2="-400" y2="0" stroke="#ddd" stroke-width="1" opacity="1"/><line transform="translate(0,14)" x2="-400" y2="0" stroke="#ddd" stroke-width="1" opacity="1"/></g></g><path class="foreground" aria-hidden="true" d="" pointer-events="none" display="none"/></g></g><g class="mark-group role-axis" role="graphics-symbol" aria-roledescription="axis" aria-label="X-axis titled 'Number of Data Points' for a log scale with values from 100 to 10M"><g transform="translate(0.5,100.5)"><path class="background" aria-hidden="true" d="M0,0h0v0h0Z" pointer-events="none"/><g><g class="mark-rule role-axis-tick" pointer-events="none"><line transform="translate(0,0)" x2="0" y2="5" stroke="#888" stroke-width="1" opacity="1"/><line transform="translate(24,0)" x2="0" y2="5" stroke="#888" stroke-width="1" opacity="1"/><line transform="translate(38,0)" x2="0" y2="5" stroke="#888" stroke-width="1" opacity="1"/><line transform="translate(48,0)" x2="0" y2="5" stroke="#888" stroke-width="1" opacity="1"/><line transform="translate(56,0)" x2="0" y2="5" stroke="#888" stroke-width="1" opacity="1"/><line transform="translate(62,0)" x2="0" y2="5" stroke="#888" stroke-width="1" opacity="1"/><line transform="translate(68,0)" x2="0" y2="5" stroke="#888" stroke-width="1" opacity="1"/><line transform="translate(72,0)" x2="0" y2="5" stroke="#888" stroke-width="1" opacity="1"/><line transform="translate(76,0)" x2="0" y2="5" stroke="#888" stroke-width="1" opacity="1"/><line transform="translate(80,0)" x2="0" y2="5" stroke="#888" stroke-width="1" opacity="1"/><line transform="translate(104,0)" x2="0" y2="5" stroke="#888" stroke-width="1" opacity="1"/><line transform="translate(118,0)" x2="0" y2="5" stroke="#888" stroke-width="1" opacity="1"/><line transform="translate(128,0)" x2="0" y2="5" stroke="#888" stroke-width="1" opacity="1"/><line transform="translate(136,0)" x2="0" y2="5" stroke="#888" stroke-width="1" opacity="1"/><line transform="translate(142,0)" x2="0" y2="5" stroke="#888" stroke-width="1" opacity="1"/><line transform="translate(148,0)" x2="0" y2="5" stroke="#888" stroke-width="1" opacity="1"/><line transform="translate(152,0)" x2="0" y2="5" stroke="#888" stroke-width="1" opacity="1"/><line transform="translate(156,0)" x2="0" y2="5" stroke="#888" stroke-width="1" opacity="1"/><line transform="translate(160,0)" x2="0" y2="5" stroke="#888" stroke-width="1" opacity="1"/><line transform="translate(184,0)" x2="0" y2="5" stroke="#888" stroke-width="1" opacity="1"/><line transform="translate(198,0)" x2="0" y2="5" stroke="#888" stroke-width="1" opacity="1"/><line transform="translate(208,0)" x2="0" y2="5" stroke="#888" stroke-width="1" opacity="1"/><line transform="translate(216,0)" x2="0" y2="5" stroke="#888" stroke-width="1" opacity="1"/><line transform="translate(222,0)" x2="0" y2="5" stroke="#888" stroke-width="1" opacity="1"/><line transform="translate(228,0)" x2="0" y2="5" stroke="#888" stroke-width="1" opacity="1"/><line transform="translate(232,0)" x2="0" y2="5" stroke="#888" stroke-width="1" opacity="1"/><line transform="translate(236,0)" x2="0" y2="5" stroke="#888" stroke-width="1" opacity="1"/><line transform="translate(240,0)" x2="0" y2="5" stroke="#888" stroke-width="1" opacity="1"/><line transform="translate(264,0)" x2="0" y2="5" stroke="#888" stroke-width="1" opacity="1"/><line transform="translate(278,0)" x2="0" y2="5" stroke="#888" stroke-width="1" opacity="1"/><line transform="translate(288,0)" x2="0" y2="5" stroke="#888" stroke-width="1" opacity="1"/><line transform="translate(296,0)" x2="0" y2="5" stroke="#888" stroke-width="1" opacity="1"/><line transform="translate(302,0)" x2="0" y2="5" stroke="#888" stroke-width="1" opacity="1"/><line transform="translate(308,0)" x2="0" y2="5" stroke="#888" stroke-width="1" opacity="1"/><line transform="translate(312,0)" x2="0" y2="5" stroke="#888" stroke-width="1" opacity="1"/><line transform="translate(316,0)" x2="0" y2="5" stroke="#888" stroke-width="1" opacity="1"/><line transform="translate(320,0)" x2="0" y2="5" stroke="#888" stroke-width="1" opacity="1"/><line transform="translate(344,0)" x2="0" y2="5" stroke="#888" stroke-width="1" opacity="1"/><line transform="translate(358,0)" x2="0" y2="5" stroke="#888" stroke-width="1" opacity="1"/><line transform="translate(368,0)" x2="0" y2="5" stroke="#888" stroke-width="1" opacity="1"/><line transform="translate(376,0)" x2="0" y2="5" stroke="#888" stroke-width="1" opacity="1"/><line transform="translate(382,0)" x2="0" y2="5" stroke="#888" stroke-width="1" opacity="1"/><line transform="translate(388,0)" x2="0" y2="5" stroke="#888" stroke-width="1" opacity="1"/><line transform="translate(392,0)" x2="0" y2="5" stroke="#888" stroke-width="1" opacity="1"/><line transform="translate(396,0)" x2="0" y2="5" stroke="#888" stroke-width="1" opacity="1"/><line transform="translate(400,0)" x2="0" y2="5" stroke="#888" stroke-width="1" opacity="1"/></g><g class="mark-text role-axis-label" pointer-events="none"><text text-anchor="start" transform="translate(0,15)" font-family="sans-serif" font-size="10px" fill="#000" opacity="1">100</text><text text-anchor="middle" transform="translate(24.082399653118465,15)" font-family="sans-serif" font-size="10px" fill="#000" opacity="1"/><text text-anchor="middle" transform="translate(38.16970037757297,15)" font-family="sans-serif" font-size="10px" fill="#000" opacity="1"/><text text-anchor="middle" transform="translate(48.164799306236965,15)" font-family="sans-serif" font-size="10px" fill="#000" opacity="1"/><text text-anchor="middle" transform="translate(55.91760034688148,15)" font-family="sans-serif" font-size="10px" fill="#000" opacity="1"/><text text-anchor="middle" transform="translate(62.25210003069147,15)" font-family="sans-serif" font-size="10px" fill="#000" opacity="1"/><text text-anchor="middle" transform="translate(67.60784320114051,15)" font-family="sans-serif" font-size="10px" fill="#000" opacity="1"/><text text-anchor="middle" transform="translate(72.24719895935546,15)" font-family="sans-serif" font-size="10px" fill="#000" opacity="1"/><text text-anchor="middle" transform="translate(76.33940075514599,15)" font-family="sans-serif" font-size="10px" fill="#000" opacity="1"/><text text-anchor="middle" transform="translate(79.99999999999997,15)" font-family="sans-serif" font-size="10px" fill="#000" opacity="1">1k</text><text text-anchor="middle" transform="translate(104.08239965311847,15)" font-family="sans-serif" font-size="10px" fill="#000" opacity="1"/><text text-anchor="middle" transform="translate(118.16970037757295,15)" font-family="sans-serif" font-size="10px" fill="#000" opacity="1"/><text text-anchor="middle" transform="translate(128.16479930623697,15)" font-family="sans-serif" font-size="10px" fill="#000" opacity="1"/><text text-anchor="middle" transform="translate(135.91760034688153,15)" font-family="sans-serif" font-size="10px" fill="#000" opacity="1"/><text text-anchor="middle" transform="translate(142.25210003069145,15)" font-family="sans-serif" font-size="10px" fill="#000" opacity="1"/><text text-anchor="middle" transform="translate(147.60784320114053,15)" font-family="sans-serif" font-size="10px" fill="#000" opacity="1"/><text text-anchor="middle" transform="translate(152.24719895935547,15)" font-family="sans-serif" font-size="10px" fill="#000" opacity="1"/><text text-anchor="middle" transform="translate(156.339400755146,15)" font-family="sans-serif" font-size="10px" fill="#000" opacity="1"/><text text-anchor="middle" transform="translate(160,15)" font-family="sans-serif" font-size="10px" fill="#000" opacity="1">10k</text><text text-anchor="middle" transform="translate(184.08239965311844,15)" font-family="sans-serif" font-size="10px" fill="#000" opacity="1"/><text text-anchor="middle" transform="translate(198.16970037757298,15)" font-family="sans-serif" font-size="10px" fill="#000" opacity="1"/><text text-anchor="middle" transform="translate(208.16479930623694,15)" font-family="sans-serif" font-size="10px" fill="#000" opacity="1"/><text text-anchor="middle" transform="translate(215.9176003468815,15)" font-family="sans-serif" font-size="10px" fill="#000" opacity="1"/><text text-anchor="middle" transform="translate(222.25210003069148,15)" font-family="sans-serif" font-size="10px" fill="#000" opacity="1"/><text text-anchor="middle" transform="translate(227.6078432011405,15)" font-family="sans-serif" font-size="10px" fill="#000" opacity="1"/><text text-anchor="middle" transform="translate(232.24719895935544,15)" font-family="sans-serif" font-size="10px" fill="#000" opacity="1"/><text text-anchor="middle" transform="translate(236.33940075514596,15)" font-family="sans-serif" font-size="10px" fill="#000" opacity="1"/><text text-anchor="middle" transform="translate(240,15)" font-family="sans-serif" font-size="10px" fill="#000" opacity="1">100k</text><text text-anchor="middle" transform="translate(264.0823996531185,15)" font-family="sans-serif" font-size="10px" fill="#000" opacity="1"/><text text-anchor="middle" transform="translate(278.169700377573,15)" font-family="sans-serif" font-size="10px" fill="#000" opacity="1"/><text text-anchor="middle" transform="translate(288.164799306237,15)" font-family="sans-serif" font-size="10px" fill="#000" opacity="1"/><text text-anchor="middle" transform="translate(295.9176003468815,15)" font-family="sans-serif" font-size="10px" fill="#000" opacity="1"/><text text-anchor="middle" transform="translate(302.25210003069145,15)" font-family="sans-serif" font-size="10px" fill="#000" opacity="1"/><text text-anchor="middle" transform="translate(307.6078432011405,15)" font-family="sans-serif" font-size="10px" fill="#000" opacity="1"/><text text-anchor="middle" transform="translate(312.24719895935544,15)" font-family="sans-serif" font-size="10px" fill="#000" opacity="1"/><text text-anchor="middle" transform="translate(316.339400755146,15)" font-family="sans-serif" font-size="10px" fill="#000" opacity="1"/><text text-anchor="middle" transform="translate(320,15)" font-family="sans-serif" font-size="10px" fill="#000" opacity="1">1M</text><text text-anchor="middle" transform="translate(344.08239965311844,15)" font-family="sans-serif" font-size="10px" fill="#000" opacity="1"/><text text-anchor="middle" transform="translate(358.169700377573,15)" font-family="sans-serif" font-size="10px" fill="#000" opacity="1"/><text text-anchor="middle" transform="translate(368.16479930623694,15)" font-family="sans-serif" font-size="10px" fill="#000" opacity="1"/><text text-anchor="middle" transform="translate(375.9176003468815,15)" font-family="sans-serif" font-size="10px" fill="#000" opacity="1"/><text text-anchor="middle" transform="translate(382.2521000306915,15)" font-family="sans-serif" font-size="10px" fill="#000" opacity="1"/><text text-anchor="middle" transform="translate(387.6078432011405,15)" font-family="sans-serif" font-size="10px" fill="#000" opacity="1"/><text text-anchor="middle" transform="translate(392.24719895935544,15)" font-family="sans-serif" font-size="10px" fill="#000" opacity="1"/><text text-anchor="middle" transform="translate(396.3394007551459,15)" font-family="sans-serif" font-size="10px" fill="#000" opacity="1"/><text text-anchor="end" transform="translate(400,15)" font-family="sans-serif" font-size="10px" fill="#000" opacity="1">10M</text></g><g class="mark-rule role-axis-domain" pointer-events="none"><line transform="translate(0,0)" x2="400" y2="0" stroke="#888" stroke-width="1" opacity="1"/></g><g class="mark-text role-axis-title" pointer-events="none"><text text-anchor="middle" transform="translate(200,30)" font-family="sans-serif" font-size="11px" font-weight="bold" fill="#000" opacity="1">Number of Data Points</text></g></g><path class="foreground" aria-hidden="true" d="" pointer-events="none" display="none"/></g></g><g class="mark-group role-axis" role="graphics-symbol" aria-roledescription="axis" aria-label="Y-axis titled 'Time (ms)' for a log scale with values from 0.005 to 500"><g transform="translate(400.5,0.5)"><path class="background" aria-hidden="true" d="M0,0h0v0h0Z" pointer-events="none"/><g><g class="mark-rule role-axis-tick" pointer-events="none"><line transform="translate(0,94)" x2="5" y2="0" stroke="#888" stroke-width="1" opacity="1"/><line transform="translate(0,74)" x2="5" y2="0" stroke="#888" stroke-width="1" opacity="1"/><line transform="translate(0,54)" x2="5" y2="0" stroke="#888" stroke-width="1" opacity="1"/><line transform="translate(0,34)" x2="5" y2="0" stroke="#888" stroke-width="1" opacity="1"/><line transform="translate(0,14)" x2="5" y2="0" stroke="#888" stroke-width="1" opacity="1"/></g><g class="mark-text role-axis-label" pointer-events="none"><text text-anchor="start" transform="translate(7,96.97940008672037)" font-family="sans-serif" font-size="10px" fill="#000" opacity="1">0.01</text><text text-anchor="start" transform="translate(7,76.97940008672037)" font-family="sans-serif" font-size="10px" fill="#000" opacity="1">0.1</text><text text-anchor="start" transform="translate(7,56.979400086720375)" font-family="sans-serif" font-size="10px" fill="#000" opacity="1">1</text><text text-anchor="start" transform="translate(7,36.97940008672037)" font-family="sans-serif" font-size="10px" fill="#000" opacity="1">10</text><text text-anchor="start" transform="translate(7,16.979400086720375)" font-family="sans-serif" font-size="10px" fill="#000" opacity="1">100</text></g><g class="mark-rule role-axis-domain" pointer-events="none"><line transform="translate(0,100)" x2="0" y2="-100" stroke="#888" stroke-width="1" opacity="1"/></g><g class="mark-text role-axis-title" pointer-events="none"><text text-anchor="middle" transform="translate(43,50) rotate(90) translate(0,-2)" font-family="sans-serif" font-size="11px" font-weight="bold" fill="#000" opacity="1">Time (ms)</text></g></g><path class="foreground" aria-hidden="true" d="" pointer-events="none" display="none"/></g></g><g class="mark-group role-scope pathgroup" role="graphics-object" aria-roledescription="group mark container"><g transform="translate(0,0)"><path class="background" aria-hidden="true" d="M0,0h400v100h-400Z"/><g><g class="mark-line role-mark marks" clip-path="url(#clip1)" role="graphics-object" aria-roledescription="line mark container"><path aria-label="Number of Data Points: 100.000; Time (ms): 2.85550737381; method: Direct" role="graphics-symbol" aria-roledescription="line mark" d="M0,44.865734367002034L24.082399653118465,38.616297770150744L38.16970037757297,34.89835230889386L48.164799306236965,32.68587663147778L55.91760034688148,30.82156633440365L62.25210003069147,29.063147917244837L67.60784320114051,27.805582151684938L72.24719895935546,26.699128625247802L76.33940075514599,25.55636764657182L79.99999999999997,24.544365885070228L104.08239965311847,18.710970696003926L118.16970037757295,15.186884976758453L128.16479930623697,12.651573743734112L135.91760034688153,10.733370676803967L142.25210003069145,9.151674651411401L147.60784320114053,7.665818958526927L152.24719895935547,6.620201450485119L156.339400755146,5.355884195158611L160,4.752240001795183L184.08239965311844,-1.0604536866455128L198.16970037757298,-4.571220820223432" stroke="#54a24b" stroke-width="1.5"/></g></g><path class="foreground" aria-hidden="true" d="" display="none"/></g><g transform="translate(0,0)"><path class="background" aria-hidden="true" d="M0,0h400v100h-400Z"/><g><g class="mark-line role-mark marks" clip-path="url(#clip2)" role="graphics-object" aria-roledescription="line mark container"><path aria-label="Number of Data Points: 100.000; Time (ms): 0.0325289726257; method: Box" role="graphics-symbol" aria-roledescription="line mark" d="M0,94.73399314633457L24.082399653118465,95.09034153696817L38.16970037757297,90.83553336572002L48.164799306236965,91.33487252109732L55.91760034688148,90.98334745584509L62.25210003069147,88.42014390721378L67.60784320114051,88.8237353560854L72.24719895935546,88.5054694851389L76.33940075514599,86.03811232844102L79.99999999999997,83.75234734030713L104.08239965311847,82.69322298212734L118.16970037757295,79.58234440094965L128.16479930623697,75.39667178897975L135.91760034688153,75.36606659322784L142.25210003069145,74.28443283846586L147.60784320114053,72.79431349854063L152.24719895935547,71.64650686602715L156.339400755146,70.2472880440568L160,69.54714134838851L184.08239965311844,64.47484126145949L198.16970037757298,61.23906766833329L208.16479930623694,58.77966651129781L215.9176003468815,56.48716431617197L222.25210003069148,55.32335423650431L227.6078432011405,53.34224918726975L232.24719895935544,52.7565031321096L236.33940075514596,51.732083540361096L240,50.36939598594144L264.0823996531185,44.782848320536395L278.169700377573,41.11210208543654L288.164799306237,38.87132381528393L295.9176003468815,36.359488510215364L302.25210003069145,35.24762143091866L307.6078432011405,34.00656812661774L312.24719895935544,32.65987873685644L316.339400755146,31.719397731970055L320,30.819295639446807L344.08239965311844,24.78696098408403L358.169700377573,21.33202325179934L368.16479930623694,18.71964140339093L375.9176003468815,16.834211722293258L382.2521000306915,15.266256493837894L387.6078432011405,13.686030191305997L392.24719895935544,12.815329184637314L396.3394007551459,11.67638822467545L400,10.704812318792833" stroke="#e15759" stroke-width="1.5"/></g></g><path class="foreground" aria-hidden="true" d="" display="none"/></g><g transform="translate(0,0)"><path class="background" aria-hidden="true" d="M0,0h400v100h-400Z"/><g><g class="mark-line role-mark marks" clip-path="url(#clip3)" role="graphics-object" aria-roledescription="line mark container"><path aria-label="Number of Data Points: 100.000; Time (ms): 0.0136044502258; method: ExtBox" role="graphics-symbol" aria-roledescription="line mark" d="M0,91.30578016581993L24.082399653118465,90.2543413521789L38.16970037757297,87.90916664290505L48.164799306236965,88.67426862054408L55.91760034688148,88.12561471161526L62.25210003069147,86.92432967317242L67.60784320114051,86.5290939170199L72.24719895935546,85.84443557959122L76.33940075514599,84.96694341906353L79.99999999999997,83.79722319765428L104.08239965311847,80.98525644404167L118.16970037757295,78.08623398222323L128.16479930623697,75.3232991195033L135.91760034688153,74.40247123063386L142.25210003069145,73.1960416972945L147.60784320114053,71.94390855821314L152.24719895935547,70.928210111792566L156.339400755146,68.32189151010306L160,67.66508210368416L184.08239965311844,61.91504560608173L198.16970037757298,58.967899103018006L208.16479930623694,56.40765771562928L215.9176003468815,53.82109245147107L222.25210003069148,52.8110754208023L227.6078432011405,51.25383011439064L232.24719895935544,50.48647661033199L236.33940075514596,48.919837837213954L240,48.2444060454305L264.0823996531185,41.94086671705269L278.169700377573,38.686764885009396L288.164799306237,35.38910030300809L295.9176003468815,33.758525416869176L302.25210003069145,32.33451309448265L307.6078432011405,30.397220309575502L312.24719895935544,29.79540890563769L316.339400755146,28.816441810640868L320,27.87389252674758L344.08239965311844,21.94389177746815L358.169700377573,18.350890813120834L368.16479930623694,15.863163657550261L375.9176003468815,13.87691947143982L382.2521000306915,12.354526964931889L387.6078432011405,10.898977045674318L392.24719895935544,9.833370450657796L396.3394007551459,8.847966072478453L400,7.9374057268219556" stroke="#555555" stroke-width="1.5"/></g></g><path class="foreground" aria-hidden="true" d="" display="none"/></g><g transform="translate(0,0)"><path class="background" aria-hidden="true" d="M0,0h400v100h-400Z"/><g><g class="mark-line role-mark marks" clip-path="url(#clip4)" role="graphics-object" aria-roledescription="line mark container"><path aria-label="Number of Data Points: 100.000; Time (ms): 0.0494919776917; method: Deriche" role="graphics-symbol" aria-roledescription="line mark" d="M0,83.08870391677743L24.082399653118465,82.6851718782345L38.16970037757297,83.5512239729133L48.164799306236965,84.24226913507373L55.91760034688148,84.02356774136834L62.25210003069147,82.49826669175242L67.60784320114051,82.56227017532761L72.24719895935546,82.62813876195607L76.33940075514599,80.84950227648943L79.99999999999997,78.97781844265627L104.08239965311847,78.02809500543826L118.16970037757295,75.17864418018938L128.16479930623697,72.55746843933203L135.91760034688153,72.01275119201654L142.25210003069145,70.3205912369924L147.60784320114053,69.65153872975358L152.24719895935547,67.95037725606673L156.339400755146,66.93456319342026L160,65.62120007381034L184.08239965311844,60.3754814812545L198.16970037757298,58.307160360177335L208.16479930623694,55.23782487162916L215.9176003468815,53.05472962456028L222.25210003069148,52.35328407965025L227.6078432011405,48.13321268799995L232.24719895935544,50.261975406504L236.33940075514596,48.358175726115164L240,47.87702755508704L264.0823996531185,42.130544064241846L278.169700377573,38.70280464443808L288.164799306237,35.902467760041354L295.9176003468815,33.7133229211995L302.25210003069145,32.276783481535595L307.6078432011405,30.415473396477598L312.24719895935544,29.87805694209571L316.339400755146,28.748659351452467L320,27.914208110084925L344.08239965311844,21.893674455441968L358.169700377573,18.431178542477312L368.16479930623694,15.85240135769107L375.9176003468815,13.784066953465901L382.2521000306915,12.320243762568616L387.6078432011405,10.71982654847956L392.24719895935544,9.821018473158283L396.3394007551459,8.785963326062696L400,7.907553818288182" stroke="#4e79a7" stroke-width="1.5"/></g></g><path class="foreground" aria-hidden="true" d="" display="none"/></g></g><g class="mark-group role-legend" role="graphics-symbol" aria-roledescription="legend" aria-label="Symbol legend titled 'Method' for stroke color with 4 values: Box, ExtBox, Deriche, Direct"><g transform="translate(0,-19)"><path class="background" aria-hidden="true" d="M0,0h333v11h-333Z" pointer-events="none"/><g><g class="mark-group role-legend-entry"><g transform="translate(50,0)"><path class="background" aria-hidden="true" d="M0,0h0v0h0Z" pointer-events="none"/><g><g class="mark-group role-scope" role="graphics-object" aria-roledescription="group mark container"><g transform="translate(0,0)"><path class="background" aria-hidden="true" d="M0,0h40v11h-40Z" pointer-events="none" opacity="1"/><g><g class="mark-symbol role-legend-symbol" pointer-events="none"><path transform="translate(6,6)" d="M-5,0L5,0" stroke="#e15759" stroke-width="1.5" opacity="1"/></g><g class="mark-text role-legend-label" pointer-events="none"><text text-anchor="start" transform="translate(16,9)" font-family="sans-serif" font-size="10px" fill="#000" opacity="1">Box</text></g></g><path class="foreground" aria-hidden="true" d="" pointer-events="none" display="none"/></g><g transform="translate(40,0)"><path class="background" aria-hidden="true" d="M0,0h64v11h-64Z" pointer-events="none" opacity="1"/><g><g class="mark-symbol role-legend-symbol" pointer-events="none"><path transform="translate(6,6)" d="M-5,0L5,0" stroke="#555555" stroke-width="1.5" opacity="1"/></g><g class="mark-text role-legend-label" pointer-events="none"><text text-anchor="start" transform="translate(16,9)" font-family="sans-serif" font-size="10px" fill="#000" opacity="1">ExtBox</text></g></g><path class="foreground" aria-hidden="true" d="" pointer-events="none" display="none"/></g><g transform="translate(95,0)"><path class="background" aria-hidden="true" d="M0,0h72v11h-72Z" pointer-events="none" opacity="1"/><g><g class="mark-symbol role-legend-symbol" pointer-events="none"><path transform="translate(6,6)" d="M-5,0L5,0" stroke="#4e79a7" stroke-width="1.5" opacity="1"/></g><g class="mark-text role-legend-label" pointer-events="none"><text text-anchor="start" transform="translate(16,9)" font-family="sans-serif" font-size="10px" fill="#000" opacity="1">Deriche</text></g></g><path class="foreground" aria-hidden="true" d="" pointer-events="none" display="none"/></g><g transform="translate(150,0)"><path class="background" aria-hidden="true" d="M0,0h64v11h-64Z" pointer-events="none" opacity="1"/><g><g class="mark-symbol role-legend-symbol" pointer-events="none"><path transform="translate(6,6)" d="M-5,0L5,0" stroke="#54a24b" stroke-width="1.5" opacity="1"/></g><g class="mark-text role-legend-label" pointer-events="none"><text text-anchor="start" transform="translate(16,9)" font-family="sans-serif" font-size="10px" fill="#000" opacity="1">Direct</text></g></g><path class="foreground" aria-hidden="true" d="" pointer-events="none" display="none"/></g></g></g><path class="foreground" aria-hidden="true" d="" pointer-events="none" display="none"/></g></g><g class="mark-text role-legend-title" pointer-events="none"><text text-anchor="start" transform="translate(0,9)" font-family="sans-serif" font-size="11px" font-weight="bold" fill="#000" opacity="1">Method</text></g></g><path class="foreground" aria-hidden="true" d="" pointer-events="none" display="none"/></g></g></g><path class="foreground" aria-hidden="true" d="" display="none"/></g></g></g><defs><clipPath id="clip1"><rect x="0" y="0" width="400" height="100"/></clipPath><clipPath id="clip2"><rect x="0" y="0" width="400" height="100"/></clipPath><clipPath id="clip3"><rect x="0" y="0" width="400" height="100"/></clipPath><clipPath id="clip4"><rect x="0" y="0" width="400" height="100"/></clipPath></defs></svg>