<svg xmlns="http://www.w3.org/2000/svg" xmlns:xlink="http://www.w3.org/1999/xlink" version="1.1" class="marks" width="1029" height="290" viewBox="0 0 1029 290"><rect width="1029" height="290" fill="white"/><g fill="none" stroke-miterlimit="10" transform="translate(48,21)"><g class="mark-group role-frame root" role="graphics-object" aria-roledescription="group mark container"><g transform="translate(0,0)"><path class="background" aria-hidden="true" d="M0,0h0v0h0Z"/><g><g class="mark-group role-row-header row_header" role="graphics-object" aria-roledescription="group mark container"><g transform="translate(-1,0)"><path class="background" aria-hidden="true" d="M0,0h0v100h0Z"/><g><g class="mark-group role-title"><g transform="translate(-42,50)"><path class="background" aria-hidden="true" d="M0,0h0v0h0Z" pointer-events="none"/><g><g class="mark-text role-title-text" role="graphics-symbol" aria-roledescription="title" aria-label="Title text '256 bins'" pointer-events="none"><text text-anchor="start" transform="translate(0,3)" font-family="sans-serif" font-size="10px" fill="#000" opacity="1"><tspan>256</tspan><tspan x="0" dy="12">bins</tspan></text></g></g><path class="foreground" aria-hidden="true" d="" pointer-events="none" display="none"/></g></g></g><path class="foreground" aria-hidden="true" d="" display="none"/></g><g transform="translate(-1,127)"><path class="background" aria-hidden="true" d="M0,0h0v100h0Z"/><g><g class="mark-group role-title"><g transform="translate(-42,50)"><path class="background" aria-hidden="true" d="M0,0h0v0h0Z" pointer-events="none"/><g><g class="mark-text role-title-text" role="graphics-symbol" aria-roledescription="title" aria-label="Title text '512 bins'" pointer-events="none"><text text-anchor="start" transform="translate(0,3)" font-family="sans-serif" font-size="10px" fill="#000" opacity="1"><tspan>512</tspan><tspan x="0" dy="12">bins</tspan></text></g></g><path class="foreground" aria-hidden="true" d="" pointer-events="none" display="none"/></g></g></g><path class="foreground" aria-hidden="true" d="" display="none"/></g></g><g class="mark-group role-row-footer row_footer" role="graphics-object" aria-roledescription="group mark container"><g transform="translate(829,0)"><path class="background" aria-hidden="true" d="M0,0h0v100h0Z"/><g><g class="mark-group role-axis" role="graphics-symbol" aria-roledescription="axis" aria-label="Y-axis titled 'Max Error' for a log scale with values from 0.01 to 100"><g transform="translate(3.5,0.5)"><path class="background" aria-hidden="true" d="M0,0h0v0h0Z" pointer-events="none"/><g><g class="mark-rule role-axis-tick" pointer-events="none"><line transform="translate(0,100)" x2="5" y2="0" stroke="#888" stroke-width="1" opacity="1"/><line transform="translate(0,75)" x2="5" y2="0" stroke="#888" stroke-width="1" opacity="1"/><line transform="translate(0,50)" x2="5" y2="0" stroke="#888" stroke-width="1" opacity="1"/><line transform="translate(0,25)" x2="5" y2="0" stroke="#888" stroke-width="1" opacity="1"/><line transform="translate(0,0)" x2="5" y2="0" stroke="#888" stroke-width="1" opacity="1"/></g><g class="mark-text role-axis-label" pointer-events="none"><text text-anchor="start" transform="translate(7,98)" font-family="sans-serif" font-size="10px" fill="#000" opacity="1">0.01</text><text text-anchor="start" transform="translate(7,78)" font-family="sans-serif" font-size="10px" fill="#000" opacity="1">0.1</text><text text-anchor="start" transform="translate(7,53.000000000000014)" font-family="sans-serif" font-size="10px" fill="#000" opacity="1">1</text><text text-anchor="start" transform="translate(7,28.00000000000001)" font-family="sans-serif" font-size="10px" fill="#000" opacity="1">10</text><text text-anchor="start" transform="translate(7,8)" font-family="sans-serif" font-size="10px" fill="#000" opacity="1">100</text></g><g class="mark-rule role-axis-domain" pointer-events="none"><line transform="translate(0,100)" x2="0" y2="-100" stroke="#888" stroke-width="1" opacity="1"/></g><g class="mark-text role-axis-title" pointer-events="none"><text text-anchor="middle" transform="translate(43,50) rotate(90) translate(0,-2)" font-family="sans-serif" font-size="11px" font-weight="bold" fill="#000" opacity="1">Max Error</text></g></g><path class="foreground" aria-hidden="true" d="" pointer-events="none" display="none"/></g></g></g><path class="foreground" aria-hidden="true" d="" display="none"/></g><g transform="translate(829,127)"><path class="background" aria-hidden="true" d="M0,0h0v100h0Z"/><g><g class="mark-group role-axis" role="graphics-symbol" aria-roledescription="axis" aria-label="Y-axis titled 'Max Error' for a log scale with values from 0.01 to 100"><g transform="translate(3.5,0.5)"><path class="background" aria-hidden="true" d="M0,0h0v0h0Z" pointer-events="none"/><g><g class="mark-rule role-axis-tick" pointer-events="none"><line transform="translate(0,100)" x2="5" y2="0" stroke="#888" stroke-width="1" opacity="1"/><line transform="translate(0,75)" x2="5" y2="0" stroke="#888" stroke-width="1" opacity="1"/><line transform="translate(0,50)" x2="5" y2="0" stroke="#888" stroke-width="1" opacity="1"/><line transform="translate(0,25)" x2="5" y2="0" stroke="#888" stroke-width="1" opacity="1"/><line transform="translate(0,0)" x2="5" y2="0" stroke="#888" stroke-width="1" opacity="1"/></g><g class="mark-text role-axis-label" pointer-events="none"><text text-anchor="start" transform="translate(7,98)" font-family="sans-serif" font-size="10px" fill="#000" opacity="1">0.01</text><text text-anchor="start" transform="translate(7,78)" font-family="sans-serif" font-size="10px" fill="#000" opacity="1">0.1</text><text text-anchor="start" transform="translate(7,53.000000000000014)" font-family="sans-serif" font-size="10px" fill="#000" opacity="1">1</text><text text-anchor="start" transform="translate(7,28.00000000000001)" font-family="sans-serif" font-size="10px" fill="#000" opacity="1">10</text><text text-anchor="start" transform="translate(7,8)" font-family="sans-serif" font-size="10px" fill="#000" opacity="1">100</text></g><g class="mark-rule role-axis-domain" pointer-events="none"><line transform="translate(0,100)" x2="0" y2="-100" stroke="#888" stroke-width="1" opacity="1"/></g><g class="mark-text role-axis-title" pointer-events="none"><text text-anchor="middle" transform="translate(43,50) rotate(90) translate(0,-2)" font-family="sans-serif" font-size="11px" font-weight="bold" fill="#000" opacity="1">Max Error</text></g></g><path class="foreground" aria-hidden="true" d="" pointer-events="none" display="none"/></g></g></g><path class="foreground" aria-hidden="true" d="" display="none"/></g></g><g class="mark-group role-column-header column_header" role="graphics-object" aria-roledescription="group mark container"><g transform="translate(0,-2)"><path class="background" aria-hidden="true" d="M0,0h400v0h-400Z"/><g><g class="mark-group role-title"><g transform="translate(200,-14)"><path class="background" aria-hidden="true" d="M0,0h0v0h0Z" pointer-events="none"/><g><g class="mark-text role-title-text" role="graphics-symbol" aria-roledescription="title" aria-label="Title text 'Simple Binning'" pointer-events="none"><text text-anchor="middle" transform="translate(0,8)" font-family="sans-serif" font-size="10px" font-weight="bold" fill="#000" opacity="1">Simple Binning</text></g></g><path class="foreground" aria-hidden="true" d="" pointer-events="none" display="none"/></g></g></g><path class="foreground" aria-hidden="true" d="" display="none"/></g><g transform="translate(425,-2)"><path class="background" aria-hidden="true" d="M0,0h400v0h-400Z"/><g><g class="mark-group role-title"><g transform="translate(200,-14)"><path class="background" aria-hidden="true" d="M0,0h0v0h0Z" pointer-events="none"/><g><g class="mark-text role-title-text" role="graphics-symbol" aria-roledescription="title" aria-label="Title text 'Linear Binning'" pointer-events="none"><text text-anchor="middle" transform="translate(0,8)" font-family="sans-serif" font-size="10px" font-weight="bold" fill="#000" opacity="1">Linear Binning</text></g></g><path class="foreground" aria-hidden="true" d="" pointer-events="none" display="none"/></g></g></g><path class="foreground" aria-hidden="true" d="" display="none"/></g></g><g class="mark-group role-column-footer column_footer" role="graphics-object" aria-roledescription="group mark container"><g transform="translate(0,232)"><path class="background" aria-hidden="true" d="M0,0h400v0h-400Z"/><g><g class="mark-group role-axis" role="graphics-symbol" aria-roledescription="axis" aria-label="X-axis titled 'Bandwidth' for a linear scale with values from 0.00 to 0.20"><g transform="translate(0.5,0.5)"><path class="background" aria-hidden="true" d="M0,0h0v0h0Z" pointer-events="none"/><g><g class="mark-rule role-axis-tick" pointer-events="none"><line transform="translate(0,0)" x2="0" y2="5" stroke="#888" stroke-width="1" opacity="1"/><line transform="translate(40,0)" x2="0" y2="5" stroke="#888" stroke-width="1" opacity="1"/><line transform="translate(80,0)" x2="0" y2="5" stroke="#888" stroke-width="1" opacity="1"/><line transform="translate(120,0)" x2="0" y2="5" stroke="#888" stroke-width="1" opacity="1"/><line transform="translate(160,0)" x2="0" y2="5" stroke="#888" stroke-width="1" opacity="1"/><line transform="translate(200,0)" x2="0" y2="5" stroke="#888" stroke-width="1" opacity="1"/><line transform="translate(240,0)" x2="0" y2="5" stroke="#888" stroke-width="1" opacity="1"/><line transform="translate(280,0)" x2="0" y2="5" stroke="#888" stroke-width="1" opacity="1"/><line transform="translate(320,0)" x2="0" y2="5" stroke="#888" stroke-width="1" opacity="1"/><line transform="translate(360,0)" x2="0" y2="5" stroke="#888" stroke-width="1" opacity="1"/><line transform="translate(400,0)" x2="0" y2="5" stroke="#888" stroke-width="1" opacity="1"/></g><g class="mark-text role-axis-label" pointer-events="none"><text text-anchor="start" transform="translate(0,15)" font-family="sans-serif" font-size="10px" fill="#000" opacity="1">0.00</text><text text-anchor="middle" transform="translate(40,15)" font-family="sans-serif" font-size="10px" fill="#000" opacity="0">0.02</text><text text-anchor="middle" transform="translate(80,15)" font-family="sans-serif" font-size="10px" fill="#000" opacity="1">0.04</text><text text-anchor="middle" transform="translate(120,15)" font-family="sans-serif" font-size="10px" fill="#000" opacity="0">0.06</text><text text-anchor="middle" transform="translate(160,15)" font-family="sans-serif" font-size="10px" fill="#000" opacity="1">0.08</text><text text-anchor="middle" transform="translate(200,15)" font-family="sans-serif" font-size="10px" fill="#000" opacity="0">0.10</text><text text-anchor="middle" transform="translate(240,15)" font-family="sans-serif" font-size="10px" fill="#000" opacity="1">0.12</text><text text-anchor="middle" transform="translate(280,15)" font-family="sans-serif" font-size="10px" fill="#000" opacity="0">0.14</text><text text-anchor="middle" transform="translate(320,15)" font-family="sans-serif" font-size="10px" fill="#000" opacity="1">0.16</text><text text-anchor="middle" transform="translate(359.99999999999994,15)" font-family="sans-serif" font-size="10px" fill="#000" opacity="0">0.18</text><text text-anchor="end" transform="translate(400,15)" font-family="sans-serif" font-size="10px" fill="#000" opacity="1">0.20</text></g><g class="mark-rule role-axis-domain" pointer-events="none"><line transform="translate(0,0)" x2="400" y2="0" stroke="#888" stroke-width="1" opacity="1"/></g><g class="mark-text role-axis-title" pointer-events="none"><text text-anchor="middle" transform="translate(200,30)" font-family="sans-serif" font-size="11px" font-weight="bold" fill="#000" opacity="1">Bandwidth</text></g></g><path class="foreground" aria-hidden="true" d="" pointer-events="none" display="none"/></g></g></g><path class="foreground" aria-hidden="true" d="" display="none"/></g><g transform="translate(425,232)"><path class="background" aria-hidden="true" d="M0,0h400v0h-400Z"/><g><g class="mark-group role-axis" role="graphics-symbol" aria-roledescription="axis" aria-label="X-axis titled 'Bandwidth' for a linear scale with values from 0.00 to 0.20"><g transform="translate(0.5,0.5)"><path class="background" aria-hidden="true" d="M0,0h0v0h0Z" pointer-events="none"/><g><g class="mark-rule role-axis-tick" pointer-events="none"><line transform="translate(0,0)" x2="0" y2="5" stroke="#888" stroke-width="1" opacity="1"/><line transform="translate(40,0)" x2="0" y2="5" stroke="#888" stroke-width="1" opacity="1"/><line transform="translate(80,0)" x2="0" y2="5" stroke="#888" stroke-width="1" opacity="1"/><line transform="translate(120,0)" x2="0" y2="5" stroke="#888" stroke-width="1" opacity="1"/><line transform="translate(160,0)" x2="0" y2="5" stroke="#888" stroke-width="1" opacity="1"/><line transform="translate(200,0)" x2="0" y2="5" stroke="#888" stroke-width="1" opacity="1"/><line transform="translate(240,0)" x2="0" y2="5" stroke="#888" stroke-width="1" opacity="1"/><line transform="translate(280,0)" x2="0" y2="5" stroke="#888" stroke-width="1" opacity="1"/><line transform="translate(320,0)" x2="0" y2="5" stroke="#888" stroke-width="1" opacity="1"/><line transform="translate(360,0)" x2="0" y2="5" stroke="#888" stroke-width="1" opacity="1"/><line transform="translate(400,0)" x2="0" y2="5" stroke="#888" stroke-width="1" opacity="1"/></g><g class="mark-text role-axis-label" pointer-events="none"><text text-anchor="start" transform="translate(0,15)" font-family="sans-serif" font-size="10px" fill="#000" opacity="1">0.00</text><text text-anchor="middle" transform="translate(40,15)" font-family="sans-serif" font-size="10px" fill="#000" opacity="0">0.02</text><text text-anchor="middle" transform="translate(80,15)" font-family="sans-serif" font-size="10px" fill="#000" opacity="1">0.04</text><text text-anchor="middle" transform="translate(120,15)" font-family="sans-serif" font-size="10px" fill="#000" opacity="0">0.06</text><text text-anchor="middle" transform="translate(160,15)" font-family="sans-serif" font-size="10px" fill="#000" opacity="1">0.08</text><text text-anchor="middle" transform="translate(200,15)" font-family="sans-serif" font-size="10px" fill="#000" opacity="0">0.10</text><text text-anchor="middle" transform="translate(240,15)" font-family="sans-serif" font-size="10px" fill="#000" opacity="1">0.12</text><text text-anchor="middle" transform="translate(280,15)" font-family="sans-serif" font-size="10px" fill="#000" opacity="0">0.14</text><text text-anchor="middle" transform="translate(320,15)" font-family="sans-serif" font-size="10px" fill="#000" opacity="1">0.16</text><text text-anchor="middle" transform="translate(359.99999999999994,15)" font-family="sans-serif" font-size="10px" fill="#000" opacity="0">0.18</text><text text-anchor="end" transform="translate(400,15)" font-family="sans-serif" font-size="10px" fill="#000" opacity="1">0.20</text></g><g class="mark-rule role-axis-domain" pointer-events="none"><line transform="translate(0,0)" x2="400" y2="0" stroke="#888" stroke-width="1" opacity="1"/></g><g class="mark-text role-axis-title" pointer-events="none"><text text-anchor="middle" transform="translate(200,30)" font-family="sans-serif" font-size="11px" font-weight="bold" fill="#000" opacity="1">Bandwidth</text></g></g><path class="foreground" aria-hidden="true" d="" pointer-events="none" display="none"/></g></g></g><path class="foreground" aria-hidden="true" d="" display="none"/></g></g><g class="mark-group role-scope cell" role="graphics-object" aria-roledescription="group mark container"><g transform="translate(0,0)"><path class="background" aria-hidden="true" d="M0.5,0.5h400v100h-400Z" stroke="#ddd"/><g><g class="mark-group role-axis" aria-hidden="true"><g transform="translate(0.5,100.5)"><path class="background" aria-hidden="true" d="M0,0h0v0h0Z" pointer-events="none"/><g><g class="mark-rule role-axis-grid" pointer-events="none"><line transform="translate(0,-100)" x2="0" y2="100" stroke="#ddd" stroke-width="1" opacity="1"/><line transform="translate(40,-100)" x2="0" y2="100" stroke="#ddd" stroke-width="1" opacity="1"/><line transform="translate(80,-100)" x2="0" y2="100" stroke="#ddd" stroke-width="1" opacity="1"/><line transform="translate(120,-100)" x2="0" y2="100" stroke="#ddd" stroke-width="1" opacity="1"/><line transform="translate(160,-100)" x2="0" y2="100" stroke="#ddd" stroke-width="1" opacity="1"/><line transform="translate(200,-100)" x2="0" y2="100" stroke="#ddd" stroke-width="1" opacity="1"/><line transform="translate(240,-100)" x2="0" y2="100" stroke="#ddd" stroke-width="1" opacity="1"/><line transform="translate(280,-100)" x2="0" y2="100" stroke="#ddd" stroke-width="1" opacity="1"/><line transform="translate(320,-100)" x2="0" y2="100" stroke="#ddd" stroke-width="1" opacity="1"/><line transform="translate(360,-100)" x2="0" y2="100" stroke="#ddd" stroke-width="1" opacity="1"/><line transform="translate(400,-100)" x2="0" y2="100" stroke="#ddd" stroke-width="1" opacity="1"/></g></g><path class="foreground" aria-hidden="true" d="" pointer-events="none" display="none"/></g></g><g class="mark-group role-axis" aria-hidden="true"><g transform="translate(403.5,0.5)"><path class="background" aria-hidden="true" d="M0,0h0v0h0Z" pointer-events="none"/><g><g class="mark-rule role-axis-grid" pointer-events="none"><line transform="translate(-3,100)" x2="-400" y2="0" stroke="#ddd" stroke-width="1" opacity="1"/><line transform="translate(-3,75)" x2="-400" y2="0" stroke="#ddd" stroke-width="1" opacity="1"/><line transform="translate(-3,50)" x2="-400" y2="0" stroke="#ddd" stroke-width="1" opacity="1"/><line transform="translate(-3,25)" x2="-400" y2="0" stroke="#ddd" stroke-width="1" opacity="1"/><line transform="translate(-3,0)" x2="-400" y2="0" stroke="#ddd" stroke-width="1" opacity="1"/></g></g><path class="foreground" aria-hidden="true" d="" pointer-events="none" display="none"/></g></g><g class="mark-rule role-mark child_layer_0_marks" role="graphics-object" aria-roledescription="rule mark container"><line aria-label="nrd: 0.0488527627765" role="graphics-symbol" aria-roledescription="rule mark" transform="translate(97.70552555299827,0)" x2="0" y2="100" stroke="#888" stroke-dasharray="4,4"/></g><g class="mark-group role-scope child_layer_1_pathgroup" role="graphics-object" aria-roledescription="group mark container"><g transform="translate(0,0)"><path class="background" aria-hidden="true" d="M0,0h400v100h-400Z"/><g><g class="mark-line role-mark child_layer_1_marks" role="graphics-object" aria-roledescription="line mark container"><path aria-label="Bandwidth: 0.01; Max Error: 19.3855072512; method: Deriche" role="graphics-symbol" aria-roledescription="line mark" d="M20,17.813070763374938L40,23.864557868333534L60,28.057057337179327L80,31.172529311552232L100,34.09362556677775L120,36.11606784399818L139.99999999999997,37.46381786161728L160,38.86298086609406L179.99999999999997,40.24974320405178L199.99999999999997,41.641677317828126L219.99999999999997,42.90972942647554L240,44.119616680774406L260,45.21981788560253L280,46.215098473440676L300.00000000000006,47.048980331892885L320,47.84356445431555L340,48.42884224684495L360,48.99280518211725L380,49.46154470434257L400,49.824289616876726" stroke="#4e79a7" stroke-width="1.5"/></g></g><path class="foreground" aria-hidden="true" d="" display="none"/></g><g transform="translate(0,0)"><path class="background" aria-hidden="true" d="M0,0h400v100h-400Z"/><g><g class="mark-line role-mark child_layer_1_marks" role="graphics-object" aria-roledescription="line mark container"><path aria-label="Bandwidth: 0.01; Max Error: 19.5131274709; method: Box" role="graphics-symbol" aria-roledescription="line mark" d="M20,17.74182795953144L40,19.160446181949297L60,27.728782694788666L80,29.446046875851728L100,33.44086855427978L120,30.33694255840006L139.99999999999997,33.082068103464856L160,30.71081676070525L179.99999999999997,28.852241004515566L199.99999999999997,31.323887303638287L219.99999999999997,29.591032436985L240,31.905158229802012L260,30.118195071900455L280,32.23938179646409L300.00000000000006,30.568145313772032L320,32.55486803829398L340,31.044419380909815L360,29.875912412912975L380,31.55992065523079L400,30.45303571426934" stroke="#e15759" stroke-width="1.5"/></g></g><path class="foreground" aria-hidden="true" d="" display="none"/></g><g transform="translate(0,0)"><path class="background" aria-hidden="true" d="M0,0h400v100h-400Z"/><g><g class="mark-line role-mark child_layer_1_marks" role="graphics-object" aria-roledescription="line mark container"><path aria-label="Bandwidth: 0.01; Max Error: 21.5337732524; method: ExtBox" role="graphics-symbol" aria-roledescription="line mark" d="M20,16.67199660797256L40,21.35952022385983L60,28.038574338830102L80,31.225247301469572L100,31.492176801474802L120,31.080209839696693L139.99999999999997,30.785449996328072L160,30.779656491609686L179.99999999999997,30.83525807700137L199.99999999999997,30.859635621880287L219.99999999999997,30.94483248580423L240,30.96854223529033L260,30.940480171599738L280,30.91076386063436L300.00000000000006,30.902831810157494L320,30.926635264452052L340,30.973174799558045L360,31.05610094964475L380,31.14822447061386L400,31.242106649838043" stroke="#555555" stroke-width="1.5"/></g></g><path class="foreground" aria-hidden="true" d="" display="none"/></g></g></g><path class="foreground" aria-hidden="true" d="" display="none"/></g><g transform="translate(425,0)"><path class="background" aria-hidden="true" d="M0.5,0.5h400v100h-400Z" stroke="#ddd"/><g><g class="mark-group role-axis" aria-hidden="true"><g transform="translate(0.5,100.5)"><path class="background" aria-hidden="true" d="M0,0h0v0h0Z" pointer-events="none"/><g><g class="mark-rule role-axis-grid" pointer-events="none"><line transform="translate(0,-100)" x2="0" y2="100" stroke="#ddd" stroke-width="1" opacity="1"/><line transform="translate(40,-100)" x2="0" y2="100" stroke="#ddd" stroke-width="1" opacity="1"/><line transform="translate(80,-100)" x2="0" y2="100" stroke="#ddd" stroke-width="1" opacity="1"/><line transform="translate(120,-100)" x2="0" y2="100" stroke="#ddd" stroke-width="1" opacity="1"/><line transform="translate(160,-100)" x2="0" y2="100" stroke="#ddd" stroke-width="1" opacity="1"/><line transform="translate(200,-100)" x2="0" y2="100" stroke="#ddd" stroke-width="1" opacity="1"/><line transform="translate(240,-100)" x2="0" y2="100" stroke="#ddd" stroke-width="1" opacity="1"/><line transform="translate(280,-100)" x2="0" y2="100" stroke="#ddd" stroke-width="1" opacity="1"/><line transform="translate(320,-100)" x2="0" y2="100" stroke="#ddd" stroke-width="1" opacity="1"/><line transform="translate(360,-100)" x2="0" y2="100" stroke="#ddd" stroke-width="1" opacity="1"/><line transform="translate(400,-100)" x2="0" y2="100" stroke="#ddd" stroke-width="1" opacity="1"/></g></g><path class="foreground" aria-hidden="true" d="" pointer-events="none" display="none"/></g></g><g class="mark-group role-axis" aria-hidden="true"><g transform="translate(403.5,0.5)"><path class="background" aria-hidden="true" d="M0,0h0v0h0Z" pointer-events="none"/><g><g class="mark-rule role-axis-grid" pointer-events="none"><line transform="translate(-3,100)" x2="-400" y2="0" stroke="#ddd" stroke-width="1" opacity="1"/><line transform="translate(-3,75)" x2="-400" y2="0" stroke="#ddd" stroke-width="1" opacity="1"/><line transform="translate(-3,50)" x2="-400" y2="0" stroke="#ddd" stroke-width="1" opacity="1"/><line transform="translate(-3,25)" x2="-400" y2="0" stroke="#ddd" stroke-width="1" opacity="1"/><line transform="translate(-3,0)" x2="-400" y2="0" stroke="#ddd" stroke-width="1" opacity="1"/></g></g><path class="foreground" aria-hidden="true" d="" pointer-events="none" display="none"/></g></g><g class="mark-rule role-mark child_layer_0_marks" role="graphics-object" aria-roledescription="rule mark container"><line aria-label="nrd: 0.0488527627765" role="graphics-symbol" aria-roledescription="rule mark" transform="translate(97.70552555299827,0)" x2="0" y2="100" stroke="#888" stroke-dasharray="4,4"/></g><g class="mark-group role-scope child_layer_1_pathgroup" role="graphics-object" aria-roledescription="group mark container"><g transform="translate(0,0)"><path class="background" aria-hidden="true" d="M0,0h400v100h-400Z"/><g><g class="mark-line role-mark child_layer_1_marks" role="graphics-object" aria-roledescription="line mark container"><path aria-label="Bandwidth: 0.01; Max Error: 2.94971925432; method: Deriche" role="graphics-symbol" aria-roledescription="line mark" d="M20,38.25548292344233L40,47.77914903490584L60,53.848462360667014L80,56.98144714755647L100,58.635407354702586L120,60.19453126725283L139.99999999999997,61.110667734250136L160,61.86116667168405L179.99999999999997,62.75307818773794L199.99999999999997,63.22838448390657L219.99999999999997,63.66313838704003L240,64.12761115659883L260,64.67440277880713L280,64.94497389451685L300.00000000000006,65.41896726562526L320,65.6933233693759L340,65.96738988648983L360,66.37272706857958L380,66.54356621761612L400,66.79019220415488" stroke="#4e79a7" stroke-width="1.5"/></g></g><path class="foreground" aria-hidden="true" d="" display="none"/></g><g transform="translate(0,0)"><path class="background" aria-hidden="true" d="M0,0h400v100h-400Z"/><g><g class="mark-line role-mark child_layer_1_marks" role="graphics-object" aria-roledescription="line mark container"><path aria-label="Bandwidth: 0.01; Max Error: 5.99895011173; method: Box" role="graphics-symbol" aria-roledescription="line mark" d="M20,30.54811874282978L40,24.228456900734564L60,40.17002418275493L80,35.75320214117094L100,45.09205125321215L120,38.265935228295746L139.99999999999997,43.746818060616064L160,36.68509949960869L179.99999999999997,32.796675582640724L199.99999999999997,36.076125307773324L219.99999999999997,32.86528412085141L240,35.761012642404424L260,32.75075962108631L280,35.27305199127303L300.00000000000006,32.75572491558793L320,35.05160512414018L340,32.93620225242277L360,31.385864760849703L380,33.234526921274366L400,31.810202898638362" stroke="#e15759" stroke-width="1.5"/></g></g><path class="foreground" aria-hidden="true" d="" display="none"/></g><g transform="translate(0,0)"><path class="background" aria-hidden="true" d="M0,0h400v100h-400Z"/><g><g class="mark-line role-mark child_layer_1_marks" role="graphics-object" aria-roledescription="line mark container"><path aria-label="Bandwidth: 0.01; Max Error: 7.59422787478; method: ExtBox" role="graphics-symbol" aria-roledescription="line mark" d="M20,27.98790938561058L40,30.496792933845597L60,36.22496644895137L80,39.84992369722884L100,40.81272532179722L120,40.02666209031342L139.99999999999997,37.97814330088462L160,36.81451442545741L179.99999999999997,35.98730164557533L199.99999999999997,35.32601547740979L219.99999999999997,34.87389329607955L240,34.356697367224264L260,33.86493464506369L280,33.47720773195808L300.00000000000006,33.181422994525875L320,32.98287075320149L340,32.849245176342656L360,32.789191245165306L380,32.74686039207813L400,32.722404522033365" stroke="#555555" stroke-width="1.5"/></g></g><path class="foreground" aria-hidden="true" d="" display="none"/></g></g></g><path class="foreground" aria-hidden="true" d="" display="none"/></g><g transform="translate(0,127)"><path class="background" aria-hidden="true" d="M0.5,0.5h400v100h-400Z" stroke="#ddd"/><g><g class="mark-group role-axis" aria-hidden="true"><g transform="translate(0.5,100.5)"><path class="background" aria-hidden="true" d="M0,0h0v0h0Z" pointer-events="none"/><g><g class="mark-rule role-axis-grid" pointer-events="none"><line transform="translate(0,-100)" x2="0" y2="100" stroke="#ddd" stroke-width="1" opacity="1"/><line transform="translate(40,-100)" x2="0" y2="100" stroke="#ddd" stroke-width="1" opacity="1"/><line transform="translate(80,-100)" x2="0" y2="100" stroke="#ddd" stroke-width="1" opacity="1"/><line transform="translate(120,-100)" x2="0" y2="100" stroke="#ddd" stroke-width="1" opacity="1"/><line transform="translate(160,-100)" x2="0" y2="100" stroke="#ddd" stroke-width="1" opacity="1"/><line transform="translate(200,-100)" x2="0" y2="100" stroke="#ddd" stroke-width="1" opacity="1"/><line transform="translate(240,-100)" x2="0" y2="100" stroke="#ddd" stroke-width="1" opacity="1"/><line transform="translate(280,-100)" x2="0" y2="100" stroke="#ddd" stroke-width="1" opacity="1"/><line transform="translate(320,-100)" x2="0" y2="100" stroke="#ddd" stroke-width="1" opacity="1"/><line transform="translate(360,-100)" x2="0" y2="100" stroke="#ddd" stroke-width="1" opacity="1"/><line transform="translate(400,-100)" x2="0" y2="100" stroke="#ddd" stroke-width="1" opacity="1"/></g></g><path class="foreground" aria-hidden="true" d="" pointer-events="none" display="none"/></g></g><g class="mark-group role-axis" aria-hidden="true"><g transform="translate(403.5,0.5)"><path class="background" aria-hidden="true" d="M0,0h0v0h0Z" pointer-events="none"/><g><g class="mark-rule role-axis-grid" pointer-events="none"><line transform="translate(-3,100)" x2="-400" y2="0" stroke="#ddd" stroke-width="1" opacity="1"/><line transform="translate(-3,75)" x2="-400" y2="0" stroke="#ddd" stroke-width="1" opacity="1"/><line transform="translate(-3,50)" x2="-400" y2="0" stroke="#ddd" stroke-width="1" opacity="1"/><line transform="translate(-3,25)" x2="-400" y2="0" stroke="#ddd" stroke-width="1" opacity="1"/><line transform="translate(-3,0)" x2="-400" y2="0" stroke="#ddd" stroke-width="1" opacity="1"/></g></g><path class="foreground" aria-hidden="true" d="" pointer-events="none" display="none"/></g></g><g class="mark-rule role-mark child_layer_0_marks" role="graphics-object" aria-roledescription="rule mark container"><line aria-label="nrd: 0.0488527627765" role="graphics-symbol" aria-roledescription="rule mark" transform="translate(97.70552555299827,0)" x2="0" y2="100" stroke="#888" stroke-dasharray="4,4"/></g><g class="mark-group role-scope child_layer_1_pathgroup" role="graphics-object" aria-roledescription="group mark container"><g transform="translate(0,0)"><path class="background" aria-hidden="true" d="M0,0h400v100h-400Z"/><g><g class="mark-line role-mark child_layer_1_marks" role="graphics-object" aria-roledescription="line mark container"><path aria-label="Bandwidth: 0.01; Max Error: 9.9943838056; method: Deriche" role="graphics-symbol" aria-roledescription="line mark" d="M20,25.006099418532468L40,30.596436105763193L60,34.77658743113683L80,38.0506376100558L100,40.94488998921353L120,43.75475818205863L139.99999999999997,45.94207717106631L160,47.718269958155346L179.99999999999997,49.038718645581824L199.99999999999997,50.13111748549942L219.99999999999997,51.04617734953697L240,51.844934203891114L260,52.538882985057086L280,53.22278233832981L300.00000000000006,53.85933649638981L320,54.47772312867125L340,55.07309323122136L360,55.624568804605026L380,56.17049595658051L400,56.65510612347229" stroke="#4e79a7" stroke-width="1.5"/></g></g><path class="foreground" aria-hidden="true" d="" display="none"/></g><g transform="translate(0,0)"><path class="background" aria-hidden="true" d="M0,0h400v100h-400Z"/><g><g class="mark-line role-mark child_layer_1_marks" role="graphics-object" aria-roledescription="line mark container"><path aria-label="Bandwidth: 0.01; Max Error: 17.6766046407; method: Box" role="graphics-symbol" aria-roledescription="line mark" d="M20,18.815028787690746L40,24.59138440693377L60,32.497717353149724L80,35.90917789761647L100,37.22701676312615L120,36.94501564786496L139.99999999999997,36.094254912936044L160,35.81969589001241L179.99999999999997,32.413941799516685L199.99999999999997,32.47568628608855L219.99999999999997,32.58791178991126L240,32.61531831461001L260,32.62922313480087L280,32.674920249530416L300.00000000000006,32.75173867548605L320,32.85996827946494L340,31.25297181533262L360,31.49866654130801L380,31.741813379191186L400,31.972675128239903" stroke="#e15759" stroke-width="1.5"/></g></g><path class="foreground" aria-hidden="true" d="" display="none"/></g><g transform="translate(0,0)"><path class="background" aria-hidden="true" d="M0,0h400v100h-400Z"/><g><g class="mark-line role-mark child_layer_1_marks" role="graphics-object" aria-roledescription="line mark container"><path aria-label="Bandwidth: 0.01; Max Error: 13.2892667083; method: ExtBox" role="graphics-symbol" aria-roledescription="line mark" d="M20,21.9124745609384L40,26.68477559932142L60,33.06429554097726L80,35.98856894108886L100,36.778210542598465L120,35.8591733480169L139.99999999999997,34.70090268891875L160,34.129975463001664L179.99999999999997,33.679397923239605L199.99999999999997,33.30658914734222L219.99999999999997,33.05230606119988L240,32.759672169739076L260,32.486540417442946L280,32.2825721216937L300.00000000000006,32.13962180322382L320,32.05527016513593L340,32.02277455585407L360,32.04101091152191L380,32.07773271238703L400,32.11843613854681" stroke="#555555" stroke-width="1.5"/></g></g><path class="foreground" aria-hidden="true" d="" display="none"/></g></g></g><path class="foreground" aria-hidden="true" d="" display="none"/></g><g transform="translate(425,127)"><path class="background" aria-hidden="true" d="M0.5,0.5h400v100h-400Z" stroke="#ddd"/><g><g class="mark-group role-axis" aria-hidden="true"><g transform="translate(0.5,100.5)"><path class="background" aria-hidden="true" d="M0,0h0v0h0Z" pointer-events="none"/><g><g class="mark-rule role-axis-grid" pointer-events="none"><line transform="translate(0,-100)" x2="0" y2="100" stroke="#ddd" stroke-width="1" opacity="1"/><line transform="translate(40,-100)" x2="0" y2="100" stroke="#ddd" stroke-width="1" opacity="1"/><line transform="translate(80,-100)" x2="0" y2="100" stroke="#ddd" stroke-width="1" opacity="1"/><line transform="translate(120,-100)" x2="0" y2="100" stroke="#ddd" stroke-width="1" opacity="1"/><line transform="translate(160,-100)" x2="0" y2="100" stroke="#ddd" stroke-width="1" opacity="1"/><line transform="translate(200,-100)" x2="0" y2="100" stroke="#ddd" stroke-width="1" opacity="1"/><line transform="translate(240,-100)" x2="0" y2="100" stroke="#ddd" stroke-width="1" opacity="1"/><line transform="translate(280,-100)" x2="0" y2="100" stroke="#ddd" stroke-width="1" opacity="1"/><line transform="translate(320,-100)" x2="0" y2="100" stroke="#ddd" stroke-width="1" opacity="1"/><line transform="translate(360,-100)" x2="0" y2="100" stroke="#ddd" stroke-width="1" opacity="1"/><line transform="translate(400,-100)" x2="0" y2="100" stroke="#ddd" stroke-width="1" opacity="1"/></g></g><path class="foreground" aria-hidden="true" d="" pointer-events="none" display="none"/></g></g><g class="mark-group role-axis" aria-hidden="true"><g transform="translate(403.5,0.5)"><path class="background" aria-hidden="true" d="M0,0h0v0h0Z" pointer-events="none"/><g><g class="mark-rule role-axis-grid" pointer-events="none"><line transform="translate(-3,100)" x2="-400" y2="0" stroke="#ddd" stroke-width="1" opacity="1"/><line transform="translate(-3,75)" x2="-400" y2="0" stroke="#ddd" stroke-width="1" opacity="1"/><line transform="translate(-3,50)" x2="-400" y2="0" stroke="#ddd" stroke-width="1" opacity="1"/><line transform="translate(-3,25)" x2="-400" y2="0" stroke="#ddd" stroke-width="1" opacity="1"/><line transform="translate(-3,0)" x2="-400" y2="0" stroke="#ddd" stroke-width="1" opacity="1"/></g></g><path class="foreground" aria-hidden="true" d="" pointer-events="none" display="none"/></g></g><g class="mark-rule role-mark child_layer_0_marks" role="graphics-object" aria-roledescription="rule mark container"><line aria-label="nrd: 0.0488527627765" role="graphics-symbol" aria-roledescription="rule mark" transform="translate(97.70552555299827,0)" x2="0" y2="100" stroke="#888" stroke-dasharray="4,4"/></g><g class="mark-group role-scope child_layer_1_pathgroup" role="graphics-object" aria-roledescription="group mark container"><g transform="translate(0,0)"><path class="background" aria-hidden="true" d="M0,0h400v100h-400Z"/><g><g class="mark-line role-mark child_layer_1_marks" role="graphics-object" aria-roledescription="line mark container"><path aria-label="Bandwidth: 0.01; Max Error: 0.181749736616; method: Deriche" role="graphics-symbol" aria-roledescription="line mark" d="M20,68.51315524573116L40,77.1580397729614L60,84.00725721757073L80,88.0858184938254L100,89.72260988486188L120,91.9722263292979L139.99999999999997,92.96246227423467L160,94.21219663210397L179.99999999999997,94.57014062859082L199.99999999999997,96.36582420602184L219.99999999999997,98.14196447384276L240,98.65027024371577L260,100.4227403730535L280,100.68440019066247L300.00000000000006,100.69386768640337L320,100.87881020351341L340,101.72243800893739L360,101.05841916440778L380,100.88132702757014L400,101.73597451155393" stroke="#4e79a7" stroke-width="1.5"/></g></g><path class="foreground" aria-hidden="true" d="" display="none"/></g><g transform="translate(0,0)"><path class="background" aria-hidden="true" d="M0,0h400v100h-400Z"/><g><g class="mark-line role-mark child_layer_1_marks" role="graphics-object" aria-roledescription="line mark container"><path aria-label="Bandwidth: 0.01; Max Error: 11.6462390485; method: Box" role="graphics-symbol" aria-roledescription="line mark" d="M20,23.345357497237075L40,27.999657408041955L60,35.06733722272259L80,39.76472369805026L100,41.35477105400995L120,41.9187949807685L139.99999999999997,39.81785398303681L160,39.04258674614758L179.99999999999997,34.38248363783829L199.99999999999997,34.31521649341478L219.99999999999997,34.32875383412255L240,34.22837784488419L260,34.09984219803336L280,34.018647651521206L300.00000000000006,33.98798867763676L320,34.00993791096912L340,32.144241791804475L360,32.345384523384L380,32.54647217347044L400,32.737525026933966" stroke="#e15759" stroke-width="1.5"/></g></g><path class="foreground" aria-hidden="true" d="" display="none"/></g><g transform="translate(0,0)"><path class="background" aria-hidden="true" d="M0,0h400v100h-400Z"/><g><g class="mark-line role-mark child_layer_1_marks" role="graphics-object" aria-roledescription="line mark container"><path aria-label="Bandwidth: 0.01; Max Error: 6.1740641879; method: ExtBox" role="graphics-symbol" aria-roledescription="line mark" d="M20,30.235721493537902L40,31.086543698242973L60,36.168857635020345L80,39.85124475125652L100,40.790696780598445L120,40.17812747444679L139.99999999999997,37.842846535125155L160,36.768375565258225L179.99999999999997,35.92544775080773L199.99999999999997,35.317310490759546L219.99999999999997,34.888067858477214L240,34.399795545800856L260,33.933011599009156L280,33.56757462294794L300.00000000000006,33.294757885481786L320,33.10768578757307L340,32.992172252333354L360,32.93957644052541L380,32.9120841249098L400,32.89514615159207" stroke="#555555" stroke-width="1.5"/></g></g><path class="foreground" aria-hidden="true" d="" display="none"/></g></g></g><path class="foreground" aria-hidden="true" d="" display="none"/></g></g><g class="mark-group role-legend" role="graphics-symbol" aria-roledescription="legend" aria-label="Symbol legend titled 'Method' for stroke color with 3 values: Box, ExtBox, Deriche"><g transform="translate(904,0)"><path class="background" aria-hidden="true" d="M0,0h72v53h-72Z" pointer-events="none"/><g><g class="mark-group role-legend-entry"><g transform="translate(0,16)"><path class="background" aria-hidden="true" d="M0,0h0v0h0Z" pointer-events="none"/><g><g class="mark-group role-scope" role="graphics-object" aria-roledescription="group mark container"><g transform="translate(0,0)"><path class="background" aria-hidden="true" d="M0,0h72v11h-72Z" pointer-events="none" opacity="1"/><g><g class="mark-symbol role-legend-symbol" pointer-events="none"><path transform="translate(6,6)" d="M-5,0L5,0" stroke="#e15759" stroke-width="1.5" opacity="1"/></g><g class="mark-text role-legend-label" pointer-events="none"><text text-anchor="start" transform="translate(16,9)" font-family="sans-serif" font-size="10px" fill="#000" opacity="1">Box</text></g></g><path class="foreground" aria-hidden="true" d="" pointer-events="none" display="none"/></g><g transform="translate(0,13)"><path class="background" aria-hidden="true" d="M0,0h72v11h-72Z" pointer-events="none" opacity="1"/><g><g class="mark-symbol role-legend-symbol" pointer-events="none"><path transform="translate(6,6)" d="M-5,0L5,0" stroke="#555555" stroke-width="1.5" opacity="1"/></g><g class="mark-text role-legend-label" pointer-events="none"><text text-anchor="start" transform="translate(16,9)" font-family="sans-serif" font-size="10px" fill="#000" opacity="1">ExtBox</text></g></g><path class="foreground" aria-hidden="true" d="" pointer-events="none" display="none"/></g><g transform="translate(0,26)"><path class="background" aria-hidden="true" d="M0,0h72v11h-72Z" pointer-events="none" opacity="1"/><g><g class="mark-symbol role-legend-symbol" pointer-events="none"><path transform="translate(6,6)" d="M-5,0L5,0" stroke="#4e79a7" stroke-width="1.5" opacity="1"/></g><g class="mark-text role-legend-label" pointer-events="none"><text text-anchor="start" transform="translate(16,9)" font-family="sans-serif" font-size="10px" fill="#000" opacity="1">Deriche</text></g></g><path class="foreground" aria-hidden="true" d="" pointer-events="none" display="none"/></g></g></g><path class="foreground" aria-hidden="true" d="" pointer-events="none" display="none"/></g></g><g class="mark-text role-legend-title" pointer-events="none"><text text-anchor="start" transform="translate(0,9)" font-family="sans-serif" font-size="11px" font-weight="bold" fill="#000" opacity="1">Method</text></g></g><path class="foreground" aria-hidden="true" d="" pointer-events="none" display="none"/></g></g></g><path class="foreground" aria-hidden="true" d="" display="none"/></g></g></g></svg>