<svg xmlns="http://www.w3.org/2000/svg" xmlns:xlink="http://www.w3.org/1999/xlink" version="1.1" class="marks" width="1021" height="286" viewBox="0 0 1021 286"><rect width="1021" height="286" fill="white"/><g fill="none" stroke-miterlimit="10" transform="translate(48,21)"><g class="mark-group role-frame root" role="graphics-object" aria-roledescription="group mark container"><g transform="translate(0,0)"><path class="background" aria-hidden="true" d="M0,0h0v0h0Z"/><g><g class="mark-group role-row-header row_header" role="graphics-object" aria-roledescription="group mark container"><g transform="translate(-1,0)"><path class="background" aria-hidden="true" d="M0,0h0v100h0Z"/><g><g class="mark-group role-title"><g transform="translate(-42,50)"><path class="background" aria-hidden="true" d="M0,0h0v0h0Z" pointer-events="none"/><g><g class="mark-text role-title-text" role="graphics-symbol" aria-roledescription="title" aria-label="Title text '256 bins'" pointer-events="none"><text text-anchor="start" transform="translate(0,3)" font-family="sans-serif" font-size="10px" fill="#000" opacity="1"><tspan>256</tspan><tspan x="0" dy="12">bins</tspan></text></g></g><path class="foreground" aria-hidden="true" d="" pointer-events="none" display="none"/></g></g></g><path class="foreground" aria-hidden="true" d="" display="none"/></g><g transform="translate(-1,125)"><path class="background" aria-hidden="true" d="M0,0h0v100h0Z"/><g><g class="mark-group role-title"><g transform="translate(-42,50)"><path class="background" aria-hidden="true" d="M0,0h0v0h0Z" pointer-events="none"/><g><g class="mark-text role-title-text" role="graphics-symbol" aria-roledescription="title" aria-label="Title text '512 bins'" pointer-events="none"><text text-anchor="start" transform="translate(0,3)" font-family="sans-serif" font-size="10px" fill="#000" opacity="1"><tspan>512</tspan><tspan x="0" dy="12">bins</tspan></text></g></g><path class="foreground" aria-hidden="true" d="" pointer-events="none" display="none"/></g></g></g><path class="foreground" aria-hidden="true" d="" display="none"/></g></g><g class="mark-group role-row-footer row_footer" role="graphics-object" aria-roledescription="group mark container"><g transform="translate(829,0)"><path class="background" aria-hidden="true" d="M0,0h0v100h0Z"/><g><g class="mark-group role-axis" role="graphics-symbol" aria-roledescription="axis" aria-label="Y-axis titled 'Max Error' for a log scale with values from 0.1 to 100"><g transform="translate(3.5,0.5)"><path class="background" aria-hidden="true" d="M0,0h0v0h0Z" pointer-events="none"/><g><g class="mark-rule role-axis-tick" pointer-events="none"><line transform="translate(0,100)" x2="5" y2="0" stroke="#888" stroke-width="1" opacity="1"/><line transform="translate(0,67)" x2="5" y2="0" stroke="#888" stroke-width="1" opacity="1"/><line transform="translate(0,33)" x2="5" y2="0" stroke="#888" stroke-width="1" opacity="1"/><line transform="translate(0,0)" x2="5" y2="0" stroke="#888" stroke-width="1" opacity="1"/></g><g class="mark-text role-axis-label" pointer-events="none"><text text-anchor="start" transform="translate(7,98)" font-family="sans-serif" font-size="10px" fill="#000" opacity="1">0.1</text><text text-anchor="start" transform="translate(7,69.66666666666667)" font-family="sans-serif" font-size="10px" fill="#000" opacity="1">1</text><text text-anchor="start" transform="translate(7,36.33333333333333)" font-family="sans-serif" font-size="10px" fill="#000" opacity="1">10</text><text text-anchor="start" transform="translate(7,8)" font-family="sans-serif" font-size="10px" fill="#000" opacity="1">100</text></g><g class="mark-rule role-axis-domain" pointer-events="none"><line transform="translate(0,100)" x2="0" y2="-100" stroke="#888" stroke-width="1" opacity="1"/></g><g class="mark-text role-axis-title" pointer-events="none"><text text-anchor="middle" transform="translate(35,50) rotate(90) translate(0,-2)" font-family="sans-serif" font-size="11px" font-weight="bold" fill="#000" opacity="1">Max Error</text></g></g><path class="foreground" aria-hidden="true" d="" pointer-events="none" display="none"/></g></g></g><path class="foreground" aria-hidden="true" d="" display="none"/></g><g transform="translate(829,125)"><path class="background" aria-hidden="true" d="M0,0h0v100h0Z"/><g><g class="mark-group role-axis" role="graphics-symbol" aria-roledescription="axis" aria-label="Y-axis titled 'Max Error' for a log scale with values from 0.1 to 100"><g transform="translate(3.5,0.5)"><path class="background" aria-hidden="true" d="M0,0h0v0h0Z" pointer-events="none"/><g><g class="mark-rule role-axis-tick" pointer-events="none"><line transform="translate(0,100)" x2="5" y2="0" stroke="#888" stroke-width="1" opacity="1"/><line transform="translate(0,67)" x2="5" y2="0" stroke="#888" stroke-width="1" opacity="1"/><line transform="translate(0,33)" x2="5" y2="0" stroke="#888" stroke-width="1" opacity="1"/><line transform="translate(0,0)" x2="5" y2="0" stroke="#888" stroke-width="1" opacity="1"/></g><g class="mark-text role-axis-label" pointer-events="none"><text text-anchor="start" transform="translate(7,98)" font-family="sans-serif" font-size="10px" fill="#000" opacity="1">0.1</text><text text-anchor="start" transform="translate(7,69.66666666666667)" font-family="sans-serif" font-size="10px" fill="#000" opacity="1">1</text><text text-anchor="start" transform="translate(7,36.33333333333333)" font-family="sans-serif" font-size="10px" fill="#000" opacity="1">10</text><text text-anchor="start" transform="translate(7,8)" font-family="sans-serif" font-size="10px" fill="#000" opacity="1">100</text></g><g class="mark-rule role-axis-domain" pointer-events="none"><line transform="translate(0,100)" x2="0" y2="-100" stroke="#888" stroke-width="1" opacity="1"/></g><g class="mark-text role-axis-title" pointer-events="none"><text text-anchor="middle" transform="translate(35,50) rotate(90) translate(0,-2)" font-family="sans-serif" font-size="11px" font-weight="bold" fill="#000" opacity="1">Max Error</text></g></g><path class="foreground" aria-hidden="true" d="" pointer-events="none" display="none"/></g></g></g><path class="foreground" aria-hidden="true" d="" display="none"/></g></g><g class="mark-group role-column-header column_header" role="graphics-object" aria-roledescription="group mark container"><g transform="translate(0,-2)"><path class="background" aria-hidden="true" d="M0,0h400v0h-400Z"/><g><g class="mark-group role-title"><g transform="translate(200,-14)"><path class="background" aria-hidden="true" d="M0,0h0v0h0Z" pointer-events="none"/><g><g class="mark-text role-title-text" role="graphics-symbol" aria-roledescription="title" aria-label="Title text 'Simple Binning'" pointer-events="none"><text text-anchor="middle" transform="translate(0,8)" font-family="sans-serif" font-size="10px" font-weight="bold" fill="#000" opacity="1">Simple Binning</text></g></g><path class="foreground" aria-hidden="true" d="" pointer-events="none" display="none"/></g></g></g><path class="foreground" aria-hidden="true" d="" display="none"/></g><g transform="translate(425,-2)"><path class="background" aria-hidden="true" d="M0,0h400v0h-400Z"/><g><g class="mark-group role-title"><g transform="translate(200,-14)"><path class="background" aria-hidden="true" d="M0,0h0v0h0Z" pointer-events="none"/><g><g class="mark-text role-title-text" role="graphics-symbol" aria-roledescription="title" aria-label="Title text 'Linear Binning'" pointer-events="none"><text text-anchor="middle" transform="translate(0,8)" font-family="sans-serif" font-size="10px" font-weight="bold" fill="#000" opacity="1">Linear Binning</text></g></g><path class="foreground" aria-hidden="true" d="" pointer-events="none" display="none"/></g></g></g><path class="foreground" aria-hidden="true" d="" display="none"/></g></g><g class="mark-group role-column-footer column_footer" role="graphics-object" aria-roledescription="group mark container"><g transform="translate(0,228)"><path class="background" aria-hidden="true" d="M0,0h400v0h-400Z"/><g><g class="mark-group role-axis" role="graphics-symbol" aria-roledescription="axis" aria-label="X-axis titled 'Bandwidth' for a linear scale with values from 0 to 1,000"><g transform="translate(0.5,0.5)"><path class="background" aria-hidden="true" d="M0,0h0v0h0Z" pointer-events="none"/><g><g class="mark-rule role-axis-tick" pointer-events="none"><line transform="translate(0,0)" x2="0" y2="5" stroke="#888" stroke-width="1" opacity="1"/><line transform="translate(40,0)" x2="0" y2="5" stroke="#888" stroke-width="1" opacity="1"/><line transform="translate(80,0)" x2="0" y2="5" stroke="#888" stroke-width="1" opacity="1"/><line transform="translate(120,0)" x2="0" y2="5" stroke="#888" stroke-width="1" opacity="1"/><line transform="translate(160,0)" x2="0" y2="5" stroke="#888" stroke-width="1" opacity="1"/><line transform="translate(200,0)" x2="0" y2="5" stroke="#888" stroke-width="1" opacity="1"/><line transform="translate(240,0)" x2="0" y2="5" stroke="#888" stroke-width="1" opacity="1"/><line transform="translate(280,0)" x2="0" y2="5" stroke="#888" stroke-width="1" opacity="1"/><line transform="translate(320,0)" x2="0" y2="5" stroke="#888" stroke-width="1" opacity="1"/><line transform="translate(360,0)" x2="0" y2="5" stroke="#888" stroke-width="1" opacity="1"/><line transform="translate(400,0)" x2="0" y2="5" stroke="#888" stroke-width="1" opacity="1"/></g><g class="mark-text role-axis-label" pointer-events="none"><text text-anchor="start" transform="translate(0,15)" font-family="sans-serif" font-size="10px" fill="#000" opacity="1">0</text><text text-anchor="middle" transform="translate(40,15)" font-family="sans-serif" font-size="10px" fill="#000" opacity="0">100</text><text text-anchor="middle" transform="translate(80,15)" font-family="sans-serif" font-size="10px" fill="#000" opacity="1">200</text><text text-anchor="middle" transform="translate(120,15)" font-family="sans-serif" font-size="10px" fill="#000" opacity="0">300</text><text text-anchor="middle" transform="translate(160,15)" font-family="sans-serif" font-size="10px" fill="#000" opacity="1">400</text><text text-anchor="middle" transform="translate(200,15)" font-family="sans-serif" font-size="10px" fill="#000" opacity="0">500</text><text text-anchor="middle" transform="translate(240,15)" font-family="sans-serif" font-size="10px" fill="#000" opacity="1">600</text><text text-anchor="middle" transform="translate(280,15)" font-family="sans-serif" font-size="10px" fill="#000" opacity="0">700</text><text text-anchor="middle" transform="translate(320,15)" font-family="sans-serif" font-size="10px" fill="#000" opacity="1">800</text><text text-anchor="middle" transform="translate(360,15)" font-family="sans-serif" font-size="10px" fill="#000" opacity="0">900</text><text text-anchor="end" transform="translate(400,15)" font-family="sans-serif" font-size="10px" fill="#000" opacity="1">1,000</text></g><g class="mark-rule role-axis-domain" pointer-events="none"><line transform="translate(0,0)" x2="400" y2="0" stroke="#888" stroke-width="1" opacity="1"/></g><g class="mark-text role-axis-title" pointer-events="none"><text text-anchor="middle" transform="translate(200,30)" font-family="sans-serif" font-size="11px" font-weight="bold" fill="#000" opacity="1">Bandwidth</text></g></g><path class="foreground" aria-hidden="true" d="" pointer-events="none" display="none"/></g></g></g><path class="foreground" aria-hidden="true" d="" display="none"/></g><g transform="translate(425,228)"><path class="background" aria-hidden="true" d="M0,0h400v0h-400Z"/><g><g class="mark-group role-axis" role="graphics-symbol" aria-roledescription="axis" aria-label="X-axis titled 'Bandwidth' for a linear scale with values from 0 to 1,000"><g transform="translate(0.5,0.5)"><path class="background" aria-hidden="true" d="M0,0h0v0h0Z" pointer-events="none"/><g><g class="mark-rule role-axis-tick" pointer-events="none"><line transform="translate(0,0)" x2="0" y2="5" stroke="#888" stroke-width="1" opacity="1"/><line transform="translate(40,0)" x2="0" y2="5" stroke="#888" stroke-width="1" opacity="1"/><line transform="translate(80,0)" x2="0" y2="5" stroke="#888" stroke-width="1" opacity="1"/><line transform="translate(120,0)" x2="0" y2="5" stroke="#888" stroke-width="1" opacity="1"/><line transform="translate(160,0)" x2="0" y2="5" stroke="#888" stroke-width="1" opacity="1"/><line transform="translate(200,0)" x2="0" y2="5" stroke="#888" stroke-width="1" opacity="1"/><line transform="translate(240,0)" x2="0" y2="5" stroke="#888" stroke-width="1" opacity="1"/><line transform="translate(280,0)" x2="0" y2="5" stroke="#888" stroke-width="1" opacity="1"/><line transform="translate(320,0)" x2="0" y2="5" stroke="#888" stroke-width="1" opacity="1"/><line transform="translate(360,0)" x2="0" y2="5" stroke="#888" stroke-width="1" opacity="1"/><line transform="translate(400,0)" x2="0" y2="5" stroke="#888" stroke-width="1" opacity="1"/></g><g class="mark-text role-axis-label" pointer-events="none"><text text-anchor="start" transform="translate(0,15)" font-family="sans-serif" font-size="10px" fill="#000" opacity="1">0</text><text text-anchor="middle" transform="translate(40,15)" font-family="sans-serif" font-size="10px" fill="#000" opacity="0">100</text><text text-anchor="middle" transform="translate(80,15)" font-family="sans-serif" font-size="10px" fill="#000" opacity="1">200</text><text text-anchor="middle" transform="translate(120,15)" font-family="sans-serif" font-size="10px" fill="#000" opacity="0">300</text><text text-anchor="middle" transform="translate(160,15)" font-family="sans-serif" font-size="10px" fill="#000" opacity="1">400</text><text text-anchor="middle" transform="translate(200,15)" font-family="sans-serif" font-size="10px" fill="#000" opacity="0">500</text><text text-anchor="middle" transform="translate(240,15)" font-family="sans-serif" font-size="10px" fill="#000" opacity="1">600</text><text text-anchor="middle" transform="translate(280,15)" font-family="sans-serif" font-size="10px" fill="#000" opacity="0">700</text><text text-anchor="middle" transform="translate(320,15)" font-family="sans-serif" font-size="10px" fill="#000" opacity="1">800</text><text text-anchor="middle" transform="translate(360,15)" font-family="sans-serif" font-size="10px" fill="#000" opacity="0">900</text><text text-anchor="end" transform="translate(400,15)" font-family="sans-serif" font-size="10px" fill="#000" opacity="1">1,000</text></g><g class="mark-rule role-axis-domain" pointer-events="none"><line transform="translate(0,0)" x2="400" y2="0" stroke="#888" stroke-width="1" opacity="1"/></g><g class="mark-text role-axis-title" pointer-events="none"><text text-anchor="middle" transform="translate(200,30)" font-family="sans-serif" font-size="11px" font-weight="bold" fill="#000" opacity="1">Bandwidth</text></g></g><path class="foreground" aria-hidden="true" d="" pointer-events="none" display="none"/></g></g></g><path class="foreground" aria-hidden="true" d="" display="none"/></g></g><g class="mark-group role-scope cell" role="graphics-object" aria-roledescription="group mark container"><g transform="translate(0,0)"><path class="background" aria-hidden="true" d="M0.5,0.5h400v100h-400Z" stroke="#ddd"/><g><g class="mark-group role-axis" aria-hidden="true"><g transform="translate(0.5,100.5)"><path class="background" aria-hidden="true" d="M0,0h0v0h0Z" pointer-events="none"/><g><g class="mark-rule role-axis-grid" pointer-events="none"><line transform="translate(0,-100)" x2="0" y2="100" stroke="#ddd" stroke-width="1" opacity="1"/><line transform="translate(40,-100)" x2="0" y2="100" stroke="#ddd" stroke-width="1" opacity="1"/><line transform="translate(80,-100)" x2="0" y2="100" stroke="#ddd" stroke-width="1" opacity="1"/><line transform="translate(120,-100)" x2="0" y2="100" stroke="#ddd" stroke-width="1" opacity="1"/><line transform="translate(160,-100)" x2="0" y2="100" stroke="#ddd" stroke-width="1" opacity="1"/><line transform="translate(200,-100)" x2="0" y2="100" stroke="#ddd" stroke-width="1" opacity="1"/><line transform="translate(240,-100)" x2="0" y2="100" stroke="#ddd" stroke-width="1" opacity="1"/><line transform="translate(280,-100)" x2="0" y2="100" stroke="#ddd" stroke-width="1" opacity="1"/><line transform="translate(320,-100)" x2="0" y2="100" stroke="#ddd" stroke-width="1" opacity="1"/><line transform="translate(360,-100)" x2="0" y2="100" stroke="#ddd" stroke-width="1" opacity="1"/><line transform="translate(400,-100)" x2="0" y2="100" stroke="#ddd" stroke-width="1" opacity="1"/></g></g><path class="foreground" aria-hidden="true" d="" pointer-events="none" display="none"/></g></g><g class="mark-group role-axis" aria-hidden="true"><g transform="translate(403.5,0.5)"><path class="background" aria-hidden="true" d="M0,0h0v0h0Z" pointer-events="none"/><g><g class="mark-rule role-axis-grid" pointer-events="none"><line transform="translate(-3,100)" x2="-400" y2="0" stroke="#ddd" stroke-width="1" opacity="1"/><line transform="translate(-3,67)" x2="-400" y2="0" stroke="#ddd" stroke-width="1" opacity="1"/><line transform="translate(-3,33)" x2="-400" y2="0" stroke="#ddd" stroke-width="1" opacity="1"/><line transform="translate(-3,0)" x2="-400" y2="0" stroke="#ddd" stroke-width="1" opacity="1"/></g></g><path class="foreground" aria-hidden="true" d="" pointer-events="none" display="none"/></g></g><g class="mark-group role-scope child_layer_0_pathgroup" role="graphics-object" aria-roledescription="group mark container"><g transform="translate(0,0)"><path class="background" aria-hidden="true" d="M0,0h400v100h-400Z"/><g><g class="mark-line role-mark child_layer_0_marks" role="graphics-object" aria-roledescription="line mark container"><path aria-label="Bandwidth: 20; Max Error: 24.9376750986; method: Box" role="graphics-symbol" aria-roledescription="line mark" d="M8,20.104801252735715L12,25.47728668148146L16,31.900392431516934L20,35.87276838143205L24,40.371610521411306L28.000000000000004,43.08867607028674L32,43.36869635294237L36,48.75277860720687L40,50.79674759302378L44,53.65934431388343L48,56.19786411190852L52,57.74563081321305L56.00000000000001,57.967963176794136L60,67.31987493049178L64,57.68246269724324L68,73.31077602440249L72,57.835559936195715L76,72.88198298051802L80,57.362835856112596L84,72.891050801371L88,56.96404939952598L92,69.35852626708304L96,57.74268110916605L100,68.08330572630985L104,60.01315470880295L108,69.07599935482787L112.00000000000001,63.33371527828318L115.99999999999999,72.78332471840994L120,63.86419160200823L124,70.68698663377876L128,64.34059910310695L132,69.37463786761025L136,64.59581727823343L140,69.38327435668099L144,64.81885811451097L148,69.64038084027024L152,65.06214805916265L156,69.95148876883503L160,65.29379809603748L164,70.35991505723686L168,65.46594223510114L172,58.47419639889119L176,65.5673358813075L180,58.12625063089052L184,65.04287755593255L188,57.78165483467428L192,64.5163557242238L196,57.46378810942365L200,64.02443713140654L204,57.14265000361098L208,63.528718438502054L212,56.840636599925375L216,63.06089391058472L220.00000000000003,56.55418862941992L224.00000000000003,62.12231496626839L227.99999999999997,55.92926764531363L231.99999999999997,60.931030181413036L236,55.13113627045132L240,59.83643878701057L244,54.38952140357649L248,58.84612627413509L252,53.72054319923657L256,57.959798980289214L260,53.10877058070176L264,57.15608656192786L268,52.545073526757506L272,56.410378614796144L276,52.02781658802642L280,55.72920406714642L284,51.54800546647921L288,55.09848799512422L292,51.10145067637381L296,54.51402340891256L300,50.688060136887024L304,53.97571776146543L308,50.309536904737186L312,53.481681486475516L316,49.96240109329197L320,53.02798228285517L324,49.63887232176678L328,52.60546906755202L332,49.33953251550851L336,46.6946765340348L340,49.06380160399115L344,46.497718123780864L348,48.810708864384175L352,46.318867005705364L356,48.579094366288004L360,46.15348372883374L364,48.36344933238054L368,46.001085314724556L372,48.16320777653562L376,45.85914358124976L380,47.97540499468661L384,45.72731108673042L388,47.79964459531122L392,45.60516748146206L396,47.63543831997921L400,45.491108512601805" stroke="#e15759" stroke-width="1.5"/></g></g><path class="foreground" aria-hidden="true" d="" display="none"/></g><g transform="translate(0,0)"><path class="background" aria-hidden="true" d="M0,0h400v100h-400Z"/><g><g class="mark-line role-mark child_layer_0_marks" role="graphics-object" aria-roledescription="line mark container"><path aria-label="Bandwidth: 20; Max Error: 34.5777468103; method: ExtBox" role="graphics-symbol" aria-roledescription="line mark" d="M8,15.373443669022036L12,27.881135645455966L16,34.31892804314126L20,37.50792662231195L24,41.1615903748246L28.000000000000004,45.25339444582524L32,48.713492007205026L36,51.63827245217776L40,54.21611699093323L44,56.154329789049484L48,58.82992334504843L52,61.80041256749496L56.00000000000001,69.04575637892634L60,69.3319470268218L64,68.25319327041868L68,67.58643273784278L72,66.88098962620866L76,65.4515074596414L80,64.08029032292026L84,62.914609472310026L88,61.905954962713686L92,61.04833640887969L96,61.17350270709634L100,61.54683061243335L104,62.33767260544548L108,63.86356428428234L112.00000000000001,65.72039919081351L115.99999999999999,65.95036931453885L120,65.99132874671604L124,66.11709160560102L128,66.10771897974506L132,66.10106547571577L136,65.98729807498475L140,65.93391108258015L144,65.81985147078277L148,65.77962280915499L152,65.67847948843519L156,65.64111266364982L160,65.52342927089119L164,65.45453433122108L168,65.30629816658384L172,65.21064874771105L176,64.95586001952964L180,64.53736567839626L184,64.03949873574219L188,63.62353694285643L192,63.161018824782566L196,62.76638384734924L200,62.34334106930225L204,61.95572419348634L208,61.559516561394204L212,61.194619519281886L216,60.822984651888554L220.00000000000003,60.48575187389027L224.00000000000003,59.84591186076993L227.99999999999997,59.19023587621051L231.99999999999997,58.55254052240678L236,57.947631010369136L240,57.36659774549094L244,56.82209843715105L248,56.30027703545415L252,55.80427361089956L256,55.33826130750723L260,54.886672673004355L264,54.46393579695176L268,54.05150906637973L272,53.663559565589715L276,53.28251396720967L280,52.92812146048678L284,52.5735189147323L288,52.25048222887361L292,51.92070390082697L296,51.62428860810968L300,51.318477555831585L304,51.047997650454555L308,50.765393816555616L312,50.517797408428734L316,50.256447877833565L320,50.02763525599691L324,49.78377761095464L328,49.57339140911765L332,49.34546160017177L336,49.152794707428136L340,48.942360257836505L344,48.76411483685078L348,48.5702409862286L352,48.40478889541679L356,48.22644676021874L360,48.071013116884096L364,47.90545984300051L368,47.75936870191738L372,47.60526708196099L376,47.46739701772535L380,47.323242145241565L384,47.19316670797774L388,47.05835674018394L392,46.9351156276993L396,46.809354462820274L400,46.692167723807444" stroke="#555555" stroke-width="1.5"/></g></g><path class="foreground" aria-hidden="true" d="" display="none"/></g><g transform="translate(0,0)"><path class="background" aria-hidden="true" d="M0,0h400v100h-400Z"/><g><g class="mark-line role-mark child_layer_0_marks" role="graphics-object" aria-roledescription="line mark container"><path aria-label="Bandwidth: 20; Max Error: 34.472993588; method: Deriche" role="graphics-symbol" aria-roledescription="line mark" d="M8,15.41736671368259L12,26.689371082253764L16,31.77215805227769L20,36.24465207056049L24,39.9731173151445L28.000000000000004,42.9398894607004L32,45.84417730208051L36,48.56266594059056L40,52.12550114359937L44,55.897045899310804L48,59.85413745109782L52,63.85456507129626L56.00000000000001,67.8038073034354L60,70.01177620241461L64,70.98346450990117L68,71.98005372432928L72,72.67961928008602L76,73.42623324471417L80,74.07514224038022L84,74.48780019896742L88,75.08105191539931L92,75.3881361958836L96,75.69757977148234L100,75.9424367319604L104,76.21729935900008L108,76.37687642834942L112.00000000000001,76.6753610534229L115.99999999999999,76.81799923070062L120,77.09154629298266L124,77.23925906275305L128,77.4254529721451L132,77.60818150431358L136,77.79559685104628L140,77.92165322213395L144,78.13866668909986L148,78.26014481501613L152,78.52366172699246L156,78.72083024602873L160,78.86563804674752L164,78.97003042256955L168,79.16625375621321L172,79.34854502508158L176,79.50530309026675L180,79.6298267559956L184,79.74348905176426L188,79.83389512254674L192,79.92109327819098L196,80.00955878265962L200,80.14290310910775L204,80.27069843411951L208,80.38185325562557L212,80.48496077345128L216,80.58134061730247L220.00000000000003,80.67555531537286L224.00000000000003,80.76140947031499L227.99999999999997,80.83694854330216L231.99999999999997,80.91230523779672L236,80.986437661651L240,81.0564761812753L244,81.12663931501235L248,81.19402806441438L252,81.25448500470759L256,81.3157898785264L260,81.37581579579559L264,81.43518791831951L268,81.4966503220689L272,81.55481736198294L276,81.61541924563642L280,81.6756835525531L284,81.73530221131512L288,81.79792276373708L292,81.85731387840566L296,81.92829791117676L300,81.99370554291755L304,82.04900797784929L308,82.1073759095535L312,82.16342533056282L316,82.2208379712952L320,82.27760220878999L324,82.33424723709207L328,82.3908077595767L332,82.44685604278526L336,82.50259355483425L340,82.55819323910902L344,82.61269660119427L348,82.66797078914017L352,82.72097765022023L356,82.77562926981356L360,82.82737259521079L364,82.88015294234387L368,82.93186976558822L372,82.98274641133625L376,83.03448442013406L380,83.08345980436359L384,83.13343697747919L388,83.18235330589074L392,83.2303970929658L396,83.27926835515154L400,83.32541020749369" stroke="#4e79a7" stroke-width="1.5"/></g></g><path class="foreground" aria-hidden="true" d="" display="none"/></g></g><g class="mark-rule role-mark child_layer_1_marks" role="graphics-object" aria-roledescription="rule mark container"><line aria-label="nrd: 204.105885717" role="graphics-symbol" aria-roledescription="rule mark" transform="translate(81.64235428681508,0)" x2="0" y2="100" stroke="#888" stroke-dasharray="4,4"/></g></g><path class="foreground" aria-hidden="true" d="" display="none"/></g><g transform="translate(425,0)"><path class="background" aria-hidden="true" d="M0.5,0.5h400v100h-400Z" stroke="#ddd"/><g><g class="mark-group role-axis" aria-hidden="true"><g transform="translate(0.5,100.5)"><path class="background" aria-hidden="true" d="M0,0h0v0h0Z" pointer-events="none"/><g><g class="mark-rule role-axis-grid" pointer-events="none"><line transform="translate(0,-100)" x2="0" y2="100" stroke="#ddd" stroke-width="1" opacity="1"/><line transform="translate(40,-100)" x2="0" y2="100" stroke="#ddd" stroke-width="1" opacity="1"/><line transform="translate(80,-100)" x2="0" y2="100" stroke="#ddd" stroke-width="1" opacity="1"/><line transform="translate(120,-100)" x2="0" y2="100" stroke="#ddd" stroke-width="1" opacity="1"/><line transform="translate(160,-100)" x2="0" y2="100" stroke="#ddd" stroke-width="1" opacity="1"/><line transform="translate(200,-100)" x2="0" y2="100" stroke="#ddd" stroke-width="1" opacity="1"/><line transform="translate(240,-100)" x2="0" y2="100" stroke="#ddd" stroke-width="1" opacity="1"/><line transform="translate(280,-100)" x2="0" y2="100" stroke="#ddd" stroke-width="1" opacity="1"/><line transform="translate(320,-100)" x2="0" y2="100" stroke="#ddd" stroke-width="1" opacity="1"/><line transform="translate(360,-100)" x2="0" y2="100" stroke="#ddd" stroke-width="1" opacity="1"/><line transform="translate(400,-100)" x2="0" y2="100" stroke="#ddd" stroke-width="1" opacity="1"/></g></g><path class="foreground" aria-hidden="true" d="" pointer-events="none" display="none"/></g></g><g class="mark-group role-axis" aria-hidden="true"><g transform="translate(403.5,0.5)"><path class="background" aria-hidden="true" d="M0,0h0v0h0Z" pointer-events="none"/><g><g class="mark-rule role-axis-grid" pointer-events="none"><line transform="translate(-3,100)" x2="-400" y2="0" stroke="#ddd" stroke-width="1" opacity="1"/><line transform="translate(-3,67)" x2="-400" y2="0" stroke="#ddd" stroke-width="1" opacity="1"/><line transform="translate(-3,33)" x2="-400" y2="0" stroke="#ddd" stroke-width="1" opacity="1"/><line transform="translate(-3,0)" x2="-400" y2="0" stroke="#ddd" stroke-width="1" opacity="1"/></g></g><path class="foreground" aria-hidden="true" d="" pointer-events="none" display="none"/></g></g><g class="mark-group role-scope child_layer_0_pathgroup" role="graphics-object" aria-roledescription="group mark container"><g transform="translate(0,0)"><path class="background" aria-hidden="true" d="M0,0h400v100h-400Z"/><g><g class="mark-line role-mark child_layer_0_marks" role="graphics-object" aria-roledescription="line mark container"><path aria-label="Bandwidth: 20; Max Error: 18.2935502088; method: Box" role="graphics-symbol" aria-roledescription="line mark" d="M8,24.590066776669296L12,43.771703383443125L16,30.080086466883195L20,54.40954192379876L24,38.59373512076289L28.000000000000004,62.4052478958681L32,41.863908424998556L36,61.43768374220671L40,49.75842776306625L44,60.110652391438975L48,55.77921054088342L52,62.83744093865504L56.00000000000001,57.080759049845064L60,70.99177573409973L64,57.36462710177197L68,71.15629452040089L72,57.170552664552L76,71.62082011107682L80,56.49020090236429L84,71.8427049518063L88,56.00269182284015L92,67.44752139833915L96,56.62327956743454L100,65.91701907180551L104,58.76621186191811L108,66.82357622080677L112.00000000000001,62.3506946392856L115.99999999999999,70.04432056260757L120,64.69983410243925L124,71.67161099198154L128,65.16297801139484L132,69.7761519377332L136,65.4184024725361L140,69.3082047858844L144,65.6584202072027L148,69.14268930106905L152,65.8679526458223L156,69.30064556116915L160,66.0615627032207L164,69.73315658265588L168,66.19765686754121L172,59.0141377659521L176,66.28353151343447L180,58.644716385382466L184,65.8870456737102L188,58.28761816557366L192,65.33048749753438L196,57.945204625414846L200,64.78876676278813L204,57.59400093780235L208,64.23652997910887L212,57.26716210253737L216,63.682298922909276L220.00000000000003,56.93018229140356L224.00000000000003,62.346562379050255L227.99999999999997,56.070651686219264L231.99999999999997,61.140339156792564L236,55.26858309098521L240,60.03364986123483L244,54.52532117381366L248,59.02840058368407L252,53.848994176465595L256,58.13006949347508L260,53.22978380679617L264,57.3100114196339L268,52.659560210827706L272,56.555411342894715L276,52.13295623215464L280,55.8611247628297L284,51.644490768662706L288,55.21764109566679L292,51.190387633491106L296,54.623808319364485L300,50.77176792317217L304,54.07811918982187L308,50.38819089457694L312,53.5769911380972L316,50.03382217104312L320,53.11387133991416L324,49.704329252697164L328,52.683676149075495L332,49.3997852294512L336,46.742651012413376L340,49.11944903375822L344,46.542349516169914L348,48.86226504675283L352,46.35978102677615L356,48.62614978640912L360,46.19105314693856L364,48.40647564249105L368,46.03563611329942L372,48.20261546199283L376,45.891621435477326L380,48.012323533145484L384,45.75789941266258L388,47.834302874763765L392,45.633934907001525L396,47.66792927582949L400,45.51820686666071" stroke="#e15759" stroke-width="1.5"/></g></g><path class="foreground" aria-hidden="true" d="" display="none"/></g><g transform="translate(0,0)"><path class="background" aria-hidden="true" d="M0,0h400v100h-400Z"/><g><g class="mark-line role-mark child_layer_0_marks" role="graphics-object" aria-roledescription="line mark container"><path aria-label="Bandwidth: 20; Max Error: 13.1117021313; method: ExtBox" role="graphics-symbol" aria-roledescription="line mark" d="M8,29.41136418436735L12,42.64895862048298L16,46.88501365488552L20,49.60402029025144L24,53.11914523114767L28.000000000000004,55.97427034797838L32,56.12025822952924L36,55.18369666215974L40,58.803699628457665L44,57.542857481971296L48,58.679445821849406L52,62.13201655549203L56.00000000000001,66.53197820055381L60,65.64778049710324L64,65.7404267253596L68,66.08026705786233L72,65.74586266846501L76,64.38665343098934L80,63.037132547984534L84,61.66754970025477L88,60.63072066676878L92,59.80787790890323L96,59.809313207286486L100,60.190919762788006L104,60.90555685147412L108,62.22752364006596L112.00000000000001,63.948476169169965L115.99999999999999,65.74321670333649L120,66.91631478231216L124,67.05564980412954L128,66.65671761473986L132,66.32325997183379L136,66.30285173355234L140,66.36098723931863L144,66.4695392541936L148,66.64499574135422L152,66.51972519722877L156,66.45432020066563L160,66.3030680075226L164,66.19977870556907L168,66.02866920995719L172,65.89381964173899L176,65.70662079050724L180,65.34547579613026L184,64.82567003301554L188,64.38162929172898L192,63.90031153904418L196,63.47306780532397L200,63.02225554813514L204,62.60264158124086L208,62.17089518937928L212,61.78795389653822L216,61.37994128382624L220.00000000000003,60.751617281391354L224.00000000000003,60.034089776074765L227.99999999999997,59.37349035331807L231.99999999999997,58.726237008918524L236,58.117528072656064L240,57.531662981423146L244,56.98064274562693L248,56.45329216827737L252,55.95105103967154L256,55.47886364545796L260,55.02258668982955L264,54.593828633665L268,54.177201519571184L272,53.78264978609334L276,53.395896967514055L280,53.03704769938559L284,52.677005049718005L288,52.34957856256946L292,52.01524707592662L296,51.71468494663023L300,51.4058733210506L304,51.131510687844205L308,50.84624638499561L312,50.59418738339103L316,50.32963507947144L320,50.096956834217664L324,49.850061875554466L328,49.636315589049396L332,49.40574546225322L336,49.210149760076426L340,48.99744036395906L344,48.81647582220177L348,48.62068103180187L352,48.45241508622703L356,48.27205315433824L360,48.11431648005248L364,47.94676495357264L368,47.79888442867626L372,47.643117926583045L376,47.503708632100626L380,47.3584498567925L384,47.22696898565309L388,47.09112133192186L392,46.96697195603083L396,46.839848149450056L400,46.72184338679778" stroke="#555555" stroke-width="1.5"/></g></g><path class="foreground" aria-hidden="true" d="" display="none"/></g><g transform="translate(0,0)"><path class="background" aria-hidden="true" d="M0,0h400v100h-400Z"/><g><g class="mark-line role-mark child_layer_0_marks" role="graphics-object" aria-roledescription="line mark container"><path aria-label="Bandwidth: 20; Max Error: 13.6914809393; method: Deriche" role="graphics-symbol" aria-roledescription="line mark" d="M8,28.78498579519244L12,46.379430381486706L16,51.86440766356243L20,60.42551406313468L24,65.05341704911922L28.000000000000004,67.75479153325084L32,69.72175462465712L36,71.63275126806322L40,72.18113393039674L44,73.11326023274228L48,73.84836504754954L52,74.19600825311714L56.00000000000001,74.99097421163555L60,75.04569315770519L64,75.60097930535731L68,75.76663293955953L72,75.58762410783011L76,75.93279293809358L80,76.11302868940079L84,76.04372055405487L88,76.45536622625453L92,76.57125631421047L96,76.83251575866288L100,77.0115366458491L104,77.28666290802167L108,77.41446653231489L112.00000000000001,77.74782803691586L115.99999999999999,77.8787474960525L120,78.16480735246009L124,78.382455421254L128,78.57623155767583L132,78.81417925788789L136,79.00111462231658L140,79.15900277913217L144,79.37403424619934L148,79.49334488797118L152,79.77599174575221L156,79.96754192359109L160,80.09266355119892L164,80.17926006573671L168,80.3957038958605L172,80.57050020158904L176,80.7129693875977L180,80.81715466457784L184,80.9099375678793L188,80.97649052807677L192,81.04154252083671L196,81.16387754282597L200,81.28650168839074L204,81.39806267280191L208,81.49184053708281L212,81.5798080681912L216,81.6662158710097L220.00000000000003,81.7457328851727L224.00000000000003,81.81593314481684L227.99999999999997,81.88143470564567L231.99999999999997,81.94443991455083L236,82.00483277931629L240,82.06691555987469L244,82.12471018362804L248,82.18156531242984L252,82.23152610080214L256,82.28056503923449L260,82.33049064048488L264,82.3783740618728L268,82.42807768108666L272,82.47528631447064L276,82.52413661161195L280,82.5717296958713L284,82.62035108726833L288,82.6689823553927L292,82.73078118137276L296,82.7908096497113L300,82.84896763499631L304,82.91009013769757L308,82.96733121292401L312,83.01527212567208L316,83.05747776247648L320,83.10291242152255L324,83.14653354665225L328,83.19185600838837L332,83.23579203093885L336,83.28110097651111L340,83.32461166088395L344,83.36999378184746L348,83.41258978791174L352,83.45721746665342L356,83.49948472204377L360,83.54256331158977L364,83.58515806998153L368,83.62658692057092L372,83.6692551257216L376,83.7092762358277L380,83.75013980403173L384,83.79064749514149L388,83.82973930971647L392,83.86975005829618L396,83.90809885022085L400,83.94609357624113" stroke="#4e79a7" stroke-width="1.5"/></g></g><path class="foreground" aria-hidden="true" d="" display="none"/></g></g><g class="mark-rule role-mark child_layer_1_marks" role="graphics-object" aria-roledescription="rule mark container"><line aria-label="nrd: 204.105885717" role="graphics-symbol" aria-roledescription="rule mark" transform="translate(81.64235428681508,0)" x2="0" y2="100" stroke="#888" stroke-dasharray="4,4"/></g></g><path class="foreground" aria-hidden="true" d="" display="none"/></g><g transform="translate(0,125)"><path class="background" aria-hidden="true" d="M0.5,0.5h400v100h-400Z" stroke="#ddd"/><g><g class="mark-group role-axis" aria-hidden="true"><g transform="translate(0.5,100.5)"><path class="background" aria-hidden="true" d="M0,0h0v0h0Z" pointer-events="none"/><g><g class="mark-rule role-axis-grid" pointer-events="none"><line transform="translate(0,-100)" x2="0" y2="100" stroke="#ddd" stroke-width="1" opacity="1"/><line transform="translate(40,-100)" x2="0" y2="100" stroke="#ddd" stroke-width="1" opacity="1"/><line transform="translate(80,-100)" x2="0" y2="100" stroke="#ddd" stroke-width="1" opacity="1"/><line transform="translate(120,-100)" x2="0" y2="100" stroke="#ddd" stroke-width="1" opacity="1"/><line transform="translate(160,-100)" x2="0" y2="100" stroke="#ddd" stroke-width="1" opacity="1"/><line transform="translate(200,-100)" x2="0" y2="100" stroke="#ddd" stroke-width="1" opacity="1"/><line transform="translate(240,-100)" x2="0" y2="100" stroke="#ddd" stroke-width="1" opacity="1"/><line transform="translate(280,-100)" x2="0" y2="100" stroke="#ddd" stroke-width="1" opacity="1"/><line transform="translate(320,-100)" x2="0" y2="100" stroke="#ddd" stroke-width="1" opacity="1"/><line transform="translate(360,-100)" x2="0" y2="100" stroke="#ddd" stroke-width="1" opacity="1"/><line transform="translate(400,-100)" x2="0" y2="100" stroke="#ddd" stroke-width="1" opacity="1"/></g></g><path class="foreground" aria-hidden="true" d="" pointer-events="none" display="none"/></g></g><g class="mark-group role-axis" aria-hidden="true"><g transform="translate(403.5,0.5)"><path class="background" aria-hidden="true" d="M0,0h0v0h0Z" pointer-events="none"/><g><g class="mark-rule role-axis-grid" pointer-events="none"><line transform="translate(-3,100)" x2="-400" y2="0" stroke="#ddd" stroke-width="1" opacity="1"/><line transform="translate(-3,67)" x2="-400" y2="0" stroke="#ddd" stroke-width="1" opacity="1"/><line transform="translate(-3,33)" x2="-400" y2="0" stroke="#ddd" stroke-width="1" opacity="1"/><line transform="translate(-3,0)" x2="-400" y2="0" stroke="#ddd" stroke-width="1" opacity="1"/></g></g><path class="foreground" aria-hidden="true" d="" pointer-events="none" display="none"/></g></g><g class="mark-group role-scope child_layer_0_pathgroup" role="graphics-object" aria-roledescription="group mark container"><g transform="translate(0,0)"><path class="background" aria-hidden="true" d="M0,0h400v100h-400Z"/><g><g class="mark-line role-mark child_layer_0_marks" role="graphics-object" aria-roledescription="line mark container"><path aria-label="Bandwidth: 20; Max Error: 15.2144840449; method: Box" role="graphics-symbol" aria-roledescription="line mark" d="M8,27.258092363146236L12,34.317993764739896L16,35.68546132720824L20,40.01389651776825L24,44.1136987406672L28.000000000000004,46.79710741254852L32,49.11455630100422L36,52.04385731288158L40,57.49631402428095L44,57.50589328678113L48,59.9115256502923L52,64.40266026464894L56.00000000000001,64.68657822537403L60,63.60082764362802L64,63.597715879515825L68,64.74864986440015L72,64.70800047475845L76,64.07972988588236L80,63.394605152260965L84,62.47537487290526L88,61.416907611767904L92,60.886757882679476L96,60.87294103845991L100,61.37141344243315L104,62.39864433846793L108,63.907587652216925L112.00000000000001,65.94773175148735L115.99999999999999,67.80222537147363L120,69.09039420254352L124,68.268501205661L128,67.65945980978844L132,67.43942765023284L136,67.53513891874371L140,67.71563510445893L144,67.9811867083657L148,68.17648389776676L152,68.40004075773875L156,68.69651542704275L160,69.14522440585053L164,69.60358821444484L168,63.580150358248474L172,63.314599340330744L176,63.067373468218534L180,62.82159273868648L184,62.59292398605618L188,62.37013119096551L192,62.152858660036095L196,61.94537969252757L200,61.727825162905404L204,61.511888230372044L208,61.29641301565334L212,61.088015254166805L216,60.88451905267074L220.00000000000003,60.679145374113254L224.00000000000003,60.46327342787803L227.99999999999997,60.226934835239135L231.99999999999997,59.97706620829464L236,59.56186597530526L240,59.042046342818026L244,58.546921147892185L248,58.0790654405118L252,57.63799988503291L256,57.21873708512162L260,56.81894493374537L264,56.43666177902161L268,56.07050440288306L272,55.71955011872352L276,55.38323990684913L280,55.05922360597808L284,54.74641673856511L288,54.44701772525997L292,54.16097520685788L296,53.88728877748585L300,53.62492965506864L304,53.37404773230527L308,53.13351457673517L312,52.90330600723443L316,52.682441569053886L320,52.46964772714217L324,52.26488141217962L328,52.06804931282796L332,51.87901917932912L336,48.7746371671159L340,48.64695182136556L344,48.5248338403633L348,48.408207824775616L352,48.296249789637635L356,48.188415253333176L360,48.084626536222515L364,47.984797248015866L368,47.88883436136886L372,47.79644621892145L376,47.70717044513001L380,47.620948174235004L384,47.53771530021543L388,47.45740369250239L392,47.37977275199455L396,47.3045967346019L400,47.23180142019046" stroke="#e15759" stroke-width="1.5"/></g></g><path class="foreground" aria-hidden="true" d="" display="none"/></g><g transform="translate(0,0)"><path class="background" aria-hidden="true" d="M0,0h400v100h-400Z"/><g><g class="mark-line role-mark child_layer_0_marks" role="graphics-object" aria-roledescription="line mark container"><path aria-label="Bandwidth: 20; Max Error: 10.4598099522; method: ExtBox" role="graphics-symbol" aria-roledescription="line mark" d="M8,32.68254020797039L12,39.04700169416816L16,44.19125025304228L20,48.0561459455226L24,50.37616386618389L28.000000000000004,53.08165415747796L32,54.29647371064824L36,56.68249222258215L40,58.59633443084431L44,58.922914328378376L48,61.12633119207409L52,65.59013968902L56.00000000000001,68.11713823477446L60,65.94858178220602L64,65.20739299997078L68,66.06562005038079L72,65.97793574748285L76,64.7789831090206L80,63.62448481939249L84,62.33002744033992L88,61.00644502723564L92,60.29510287018245L96,60.1493658752303L100,60.55484263780004L104,61.49010803487802L108,62.98263016642678L112.00000000000001,64.91631099956791L115.99999999999999,66.60904580484252L120,67.89585564751732L124,67.07202233409349L128,66.51810734282742L132,66.36365630718892L136,66.47634202174928L140,66.66980834065137L144,66.9232989792767L148,67.18298779444277L152,67.48681951818412L156,67.92626937016028L160,68.46257582143964L164,68.97426519720969L168,68.3024288407226L172,67.67304715940257L176,67.09521157106757L180,66.53465502104383L184,66.00672820910991L188,65.50178857983082L192,65.01626072832676L196,64.5479214649519L200,64.09048556669563L204,63.636192410438284L208,63.19013515484675L212,62.761511582631194L216,62.350337538820874L220.00000000000003,61.943891977403844L224.00000000000003,61.53768910861104L227.99999999999997,61.1158267798366L231.99999999999997,60.685774302132266L236,60.06114954803166L240,59.38141668135894L244,58.73860039841867L248,58.13371184847335L252,57.565780125021895L256,57.02859822066259L260,56.51851524521179L264,56.031889019959756L268,55.56888577572347L272,55.12633800005635L276,54.701974190813104L280,54.29531125189164L284,53.90585022180813L288,53.53342764005497L292,53.17709828313023L296,52.836212026247885L300,52.51022822122937L304,52.19861325237508L308,51.90027079439277L312,51.614231945189346L316,51.33947398534182L320,51.075200392520536L324,50.82104955764035L328,50.57678277517168L332,50.342132081754364L336,50.116809304828806L340,49.90051323390164L344,49.69293527716929L348,49.493655785053136L352,49.30199580935177L356,49.11722479084235L360,48.93889400393654L364,48.76673840374196L368,48.60047903540028L372,48.43987102236975L376,48.28447203804696L380,48.133992014584315L384,47.988229344326726L388,47.84699607365851L392,47.71011105973645L396,47.57729028734946L400,47.44835156690858" stroke="#555555" stroke-width="1.5"/></g></g><path class="foreground" aria-hidden="true" d="" display="none"/></g><g transform="translate(0,0)"><path class="background" aria-hidden="true" d="M0,0h400v100h-400Z"/><g><g class="mark-line role-mark child_layer_0_marks" role="graphics-object" aria-roledescription="line mark container"><path aria-label="Bandwidth: 20; Max Error: 12.9028763065; method: Deriche" role="graphics-symbol" aria-roledescription="line mark" d="M8,29.643782202450662L12,37.36588812099841L16,41.44827676635747L20,45.302410606811904L24,48.55363241026646L28.000000000000004,51.08783411521198L32,53.329598707324834L36,55.85362614313403L40,58.68028233483913L44,62.55931512712007L48,67.52412989473886L52,73.05438914155737L56.00000000000001,75.88711021253644L60,77.9942055818323L64,80.34549830878761L68,82.64614354179022L72,85.15348163802665L76,87.53413523473631L80,89.21409370241001L84,91.13297983183632L88,93.00851581318148L92,94.1247248802916L96,94.40166667317187L100,94.70322875010736L104,94.80998211399L108,94.90839470482962L112.00000000000001,94.93234006692511L115.99999999999999,95.07385380669369L120,95.20221027973199L124,95.27832613517481L128,95.41924582401597L132,95.5262279871089L136,95.66625698526595L140,95.7489770276162L144,95.7093950053509L148,95.92820435525114L152,96.19028002421473L156,96.3422955159993L160,96.52947471285083L164,96.60035827535683L168,96.7851276511246L172,96.85979225120737L176,96.90519061218555L180,97.04920904066408L184,97.15395355898538L188,97.18003991826045L192,97.20585627261798L196,97.26992493319014L200,97.36854775440163L204,97.46396076294018L208,97.50679740554962L212,97.52712778154773L216,97.54516421422127L220.00000000000003,97.59541129160807L224.00000000000003,97.67269983846201L227.99999999999997,97.73180212164723L231.99999999999997,97.79044271864431L236,97.84817787593718L240,97.90474070053894L244,97.96136090117405L248,98.01216884603681L252,98.04400582424694L256,98.07681044069137L260,98.11028391498621L264,98.14417675122984L268,98.17785468934595L272,98.21176912423806L276,98.24621054619011L280,98.28143599131921L284,98.31770958922212L288,98.36116314591001L292,98.42069616863758L296,98.47163337392554L300,98.52417420603703L304,98.57854333903734L308,98.63381298378616L312,98.67461744701092L316,98.69873840088627L320,98.72506812861936L324,98.75359614594468L328,98.78395754827486L332,98.81583114286931L336,98.84900480432385L340,98.8831974157735L344,98.91829974768187L348,98.95412251888366L352,98.99057192449402L356,99.0275284344039L360,99.06492662369652L364,99.1026781193988L368,99.140586271275L372,99.17821302371162L376,99.21608037046246L380,99.25408282923986L384,99.29226629148516L388,99.32987523862295L392,99.36757360765255L396,99.40537925298962L400,99.44235264056871" stroke="#4e79a7" stroke-width="1.5"/></g></g><path class="foreground" aria-hidden="true" d="" display="none"/></g></g><g class="mark-rule role-mark child_layer_1_marks" role="graphics-object" aria-roledescription="rule mark container"><line aria-label="nrd: 204.105885717" role="graphics-symbol" aria-roledescription="rule mark" transform="translate(81.64235428681508,0)" x2="0" y2="100" stroke="#888" stroke-dasharray="4,4"/></g></g><path class="foreground" aria-hidden="true" d="" display="none"/></g><g transform="translate(425,125)"><path class="background" aria-hidden="true" d="M0.5,0.5h400v100h-400Z" stroke="#ddd"/><g><g class="mark-group role-axis" aria-hidden="true"><g transform="translate(0.5,100.5)"><path class="background" aria-hidden="true" d="M0,0h0v0h0Z" pointer-events="none"/><g><g class="mark-rule role-axis-grid" pointer-events="none"><line transform="translate(0,-100)" x2="0" y2="100" stroke="#ddd" stroke-width="1" opacity="1"/><line transform="translate(40,-100)" x2="0" y2="100" stroke="#ddd" stroke-width="1" opacity="1"/><line transform="translate(80,-100)" x2="0" y2="100" stroke="#ddd" stroke-width="1" opacity="1"/><line transform="translate(120,-100)" x2="0" y2="100" stroke="#ddd" stroke-width="1" opacity="1"/><line transform="translate(160,-100)" x2="0" y2="100" stroke="#ddd" stroke-width="1" opacity="1"/><line transform="translate(200,-100)" x2="0" y2="100" stroke="#ddd" stroke-width="1" opacity="1"/><line transform="translate(240,-100)" x2="0" y2="100" stroke="#ddd" stroke-width="1" opacity="1"/><line transform="translate(280,-100)" x2="0" y2="100" stroke="#ddd" stroke-width="1" opacity="1"/><line transform="translate(320,-100)" x2="0" y2="100" stroke="#ddd" stroke-width="1" opacity="1"/><line transform="translate(360,-100)" x2="0" y2="100" stroke="#ddd" stroke-width="1" opacity="1"/><line transform="translate(400,-100)" x2="0" y2="100" stroke="#ddd" stroke-width="1" opacity="1"/></g></g><path class="foreground" aria-hidden="true" d="" pointer-events="none" display="none"/></g></g><g class="mark-group role-axis" aria-hidden="true"><g transform="translate(403.5,0.5)"><path class="background" aria-hidden="true" d="M0,0h0v0h0Z" pointer-events="none"/><g><g class="mark-rule role-axis-grid" pointer-events="none"><line transform="translate(-3,100)" x2="-400" y2="0" stroke="#ddd" stroke-width="1" opacity="1"/><line transform="translate(-3,67)" x2="-400" y2="0" stroke="#ddd" stroke-width="1" opacity="1"/><line transform="translate(-3,33)" x2="-400" y2="0" stroke="#ddd" stroke-width="1" opacity="1"/><line transform="translate(-3,0)" x2="-400" y2="0" stroke="#ddd" stroke-width="1" opacity="1"/></g></g><path class="foreground" aria-hidden="true" d="" pointer-events="none" display="none"/></g></g><g class="mark-group role-scope child_layer_0_pathgroup" role="graphics-object" aria-roledescription="group mark container"><g transform="translate(0,0)"><path class="background" aria-hidden="true" d="M0,0h400v100h-400Z"/><g><g class="mark-line role-mark child_layer_0_marks" role="graphics-object" aria-roledescription="line mark container"><path aria-label="Bandwidth: 20; Max Error: 13.2659618833; method: Box" role="graphics-symbol" aria-roledescription="line mark" d="M8,29.242041829336152L12,36.674211097504006L16,37.921481156465944L20,42.48702596982379L24,45.828664345771955L28.000000000000004,48.25015700901303L32,49.46698084971764L36,50.16412134221113L40,55.59462588385903L44,56.037277080965865L48,57.94647655416112L52,62.25638507661824L56.00000000000001,63.8639689810289L60,63.46990822172298L64,63.89600424498967L68,65.31183723109335L72,65.54513613544206L76,64.53635083234492L80,63.655425463282775L84,62.60171444695908L88,61.51687589665199L92,60.92387516365741L96,60.90818002634908L100,61.35078658754676L104,62.294762804820394L108,63.60004359975275L112.00000000000001,65.48033533956435L115.99999999999999,67.49532316425844L120,69.3334114177423L124,69.07731009368759L128,68.29649521301366L132,67.86987700735551L136,67.80176824721508L140,67.86599506094248L144,68.04794902494058L148,68.1978197229415L152,68.39725000218836L156,68.69808569958322L160,69.13696654322416L164,69.59816914708907L168,63.50827261236957L172,63.239873251616366L176,62.99315798328997L180,62.75359546059076L184,62.528743526647524L188,62.30770117780183L192,62.091295460056116L196,61.881308873710175L200,61.65991627560251L204,61.43854527338941L208,61.21806831416555L212,61.00735723550379L216,60.80135888719671L220.00000000000003,60.59160605107448L224.00000000000003,60.37162634330656L227.99999999999997,60.131490182459515L231.99999999999997,59.87901061172957L236,59.57346143091089L240,59.054420305478786L244,58.560086624702244L248,58.09190787715093L252,57.650410290095664L256,57.23186257125544L260,56.83357157318431L264,56.452373019204046L268,56.08832781661981L272,55.73801894512778L276,55.40175707668668L280,55.07880672370508L284,54.76698090490413L288,54.467866708481395L292,54.181983218010245L296,53.90804309329999L300,53.645856856931154L304,53.394956483458664L308,53.15430973652975L312,52.923700929282994L316,52.70214296221324L320,52.48869476476826L324,52.2833106554716L328,52.085894862993484L332,51.896312832018076L336,48.78731632343395L340,48.65931008543465L344,48.53696473472095L348,48.42011999512273L352,48.30807910391547L356,48.20011188496527L360,48.09618156420932L364,47.99621429331806L368,47.9001169866899L372,47.80766368829599L376,47.71835987138524L380,47.63210713620848L384,47.548841689275065L388,47.468495677875175L392,47.39090663862724L396,47.31580338486005L400,47.24307396391355" stroke="#e15759" stroke-width="1.5"/></g></g><path class="foreground" aria-hidden="true" d="" display="none"/></g><g transform="translate(0,0)"><path class="background" aria-hidden="true" d="M0,0h400v100h-400Z"/><g><g class="mark-line role-mark child_layer_0_marks" role="graphics-object" aria-roledescription="line mark container"><path aria-label="Bandwidth: 20; Max Error: 6.27609043331; method: ExtBox" role="graphics-symbol" aria-roledescription="line mark" d="M8,40.07702690709473L12,51.97868978215896L16,52.02292239121695L20,53.98891267842478L24,54.95459054575102L28.000000000000004,57.491111185214535L32,56.416533672962935L36,55.75279816883083L40,59.80174688118374L44,57.96433828305177L48,58.91124746917512L52,62.732075194806455L56.00000000000001,66.9148176358041L60,65.72193847871294L64,65.50717862992896L68,66.43317725387536L72,66.69362041918478L76,65.2747711715317L80,63.892415014723625L84,62.45540106597287L88,61.09699289358993L92,60.32925570462622L96,60.18339766708949L100,60.53798123015927L104,61.39043167378342L108,62.69296019818928L112.00000000000001,64.50369383716917L115.99999999999999,66.39246781053507L120,68.04174332866968L124,67.75844191818663L128,67.03848660329169L132,66.72907044976478L136,66.6960001612114L140,66.78515615268088L144,66.96680910289889L148,67.19274427682505L152,67.48370174699598L156,67.92045174395756L160,68.45559086528031L164,68.88069855265034L168,68.20493913687326L172,67.57390336162291L176,66.99883111294315L180,66.44682373949016L184,65.92460633654134L188,65.4245140384469L192,64.9413501603877L196,64.47352802089009L200,64.01292381462684L204,63.551000674729885L208,63.10263303286694L212,62.67248516345494L216,62.259703789527144L220.00000000000003,61.849336846151594L224.00000000000003,61.43965759888581L227.99999999999997,61.014284567405255L231.99999999999997,60.582517079262765L236,60.07285399114759L240,59.39449378830781L244,58.751848896724525L248,58.14657038144353L252,57.57801203318136L256,57.04156449429587L260,56.53301499302135L264,56.047384831146715L268,55.58519950864347L272,55.14370166245429L276,54.71997168639842L280,54.313572757100935L284,53.924407668847984L288,53.55219865758788L292,53.196334023767356L296,52.85530857952425L300,52.52916031681306L304,52.21742112834331L308,51.91876366352671L312,51.63220541514788L316,51.35683190960477L320,51.091940051956875L324,50.83720769433132L328,50.59239342998251L332,50.357226796876844L336,50.13141731674898L340,49.91466165515702L344,49.706649266121616L348,49.5069809687096L352,49.315015280896866L356,49.13000620201421L360,48.95134270259185L364,48.77888695539423L368,48.61244406229157L372,48.451698009831944L376,48.29620632149977L380,48.14554552750984L384,47.99963073634698L388,47.858335832047175L392,47.72144253145184L396,47.58865370097188L400,47.45975002241671" stroke="#555555" stroke-width="1.5"/></g></g><path class="foreground" aria-hidden="true" d="" display="none"/></g><g transform="translate(0,0)"><path class="background" aria-hidden="true" d="M0,0h400v100h-400Z"/><g><g class="mark-line role-mark child_layer_0_marks" role="graphics-object" aria-roledescription="line mark container"><path aria-label="Bandwidth: 20; Max Error: 3.06181370211; method: Deriche" role="graphics-symbol" aria-roledescription="line mark" d="M8,50.46737459137487L12,62.662710614378646L16,70.58445994579097L20,77.38505073490285L24,82.85022555621885L28.000000000000004,84.87916573054977L32,87.17756210226895L36,88.37637886445162L40,89.81203994642996L44,90.8545967067268L48,91.75439093862427L52,91.52891508166654L56.00000000000001,91.62572029823208L60,91.73921896083708L64,92.07573891876147L68,92.29446639428895L72,92.33985263061754L76,92.69772749305955L80,92.59594921997486L84,92.64963214206267L88,92.92843026812639L92,93.15374015092577L96,93.23336728989881L100,93.46903292900907L104,93.57821234213866L108,93.69202603758438L112.00000000000001,93.82784642621792L115.99999999999999,94.04475703439472L120,94.26544570692815L124,94.48772748980787L128,94.70080452999403L132,94.8723658095469L136,95.042002511057L140,95.1543416014454L144,95.25690842175175L148,95.48207995508659L152,95.77982375895276L156,95.94708721574192L160,96.17389980621655L164,96.26556339340691L168,96.48195534756715L172,96.59557896366407L176,96.65287431807795L180,96.82238161516334L184,96.95888462288585L188,97.01468894348783L192,97.06610610215962L196,97.15650645784041L200,97.27439048163014L204,97.37739709704441L208,97.4253535295496L212,97.46223057196126L216,97.4983542152713L220.00000000000003,97.54906602683914L224.00000000000003,97.64170689638556L227.99999999999997,97.71349846740193L231.99999999999997,97.78535268420306L236,97.85378061894617L240,97.92200432970432L244,97.9891629067043L248,98.04875610254985L252,98.09008957720884L256,98.13192224768915L260,98.17399033740091L264,98.21619522275805L268,98.2585583810755L272,98.30121024071995L276,98.34411929691014L280,98.38787564347733L284,98.43285687031333L288,98.47909708913296L292,98.54595058121039L296,98.60545693032307L300,98.6664999401822L304,98.72947307564655L308,98.7925524628224L312,98.82300934770123L316,98.85587449529154L320,98.88991985777035L324,98.92566867630553L328,98.96302910220321L332,99.0016880267828L336,99.04144949790195L340,99.08204049764355L344,99.12336090273153L348,99.16523044592273L352,99.20756296960197L356,99.25017797264985L360,99.29252171894342L364,99.33503784163123L368,99.3777113539062L372,99.42045994071424L376,99.46297359578665L380,99.50505294878221L384,99.54720198336932L388,99.58937500103066L392,99.6309237648374L396,99.67231918633351L400,99.71296750152815" stroke="#4e79a7" stroke-width="1.5"/></g></g><path class="foreground" aria-hidden="true" d="" display="none"/></g></g><g class="mark-rule role-mark child_layer_1_marks" role="graphics-object" aria-roledescription="rule mark container"><line aria-label="nrd: 204.105885717" role="graphics-symbol" aria-roledescription="rule mark" transform="translate(81.64235428681508,0)" x2="0" y2="100" stroke="#888" stroke-dasharray="4,4"/></g></g><path class="foreground" aria-hidden="true" d="" display="none"/></g></g><g class="mark-group role-legend" role="graphics-symbol" aria-roledescription="legend" aria-label="Symbol legend titled 'Method' for stroke color with 3 values: Box, ExtBox, Deriche"><g transform="translate(896,0)"><path class="background" aria-hidden="true" d="M0,0h72v53h-72Z" pointer-events="none"/><g><g class="mark-group role-legend-entry"><g transform="translate(0,16)"><path class="background" aria-hidden="true" d="M0,0h0v0h0Z" pointer-events="none"/><g><g class="mark-group role-scope" role="graphics-object" aria-roledescription="group mark container"><g transform="translate(0,0)"><path class="background" aria-hidden="true" d="M0,0h72v11h-72Z" pointer-events="none" opacity="1"/><g><g class="mark-symbol role-legend-symbol" pointer-events="none"><path transform="translate(6,6)" d="M-5,0L5,0" stroke="#e15759" stroke-width="1.5" opacity="1"/></g><g class="mark-text role-legend-label" pointer-events="none"><text text-anchor="start" transform="translate(16,9)" font-family="sans-serif" font-size="10px" fill="#000" opacity="1">Box</text></g></g><path class="foreground" aria-hidden="true" d="" pointer-events="none" display="none"/></g><g transform="translate(0,13)"><path class="background" aria-hidden="true" d="M0,0h72v11h-72Z" pointer-events="none" opacity="1"/><g><g class="mark-symbol role-legend-symbol" pointer-events="none"><path transform="translate(6,6)" d="M-5,0L5,0" stroke="#555555" stroke-width="1.5" opacity="1"/></g><g class="mark-text role-legend-label" pointer-events="none"><text text-anchor="start" transform="translate(16,9)" font-family="sans-serif" font-size="10px" fill="#000" opacity="1">ExtBox</text></g></g><path class="foreground" aria-hidden="true" d="" pointer-events="none" display="none"/></g><g transform="translate(0,26)"><path class="background" aria-hidden="true" d="M0,0h72v11h-72Z" pointer-events="none" opacity="1"/><g><g class="mark-symbol role-legend-symbol" pointer-events="none"><path transform="translate(6,6)" d="M-5,0L5,0" stroke="#4e79a7" stroke-width="1.5" opacity="1"/></g><g class="mark-text role-legend-label" pointer-events="none"><text text-anchor="start" transform="translate(16,9)" font-family="sans-serif" font-size="10px" fill="#000" opacity="1">Deriche</text></g></g><path class="foreground" aria-hidden="true" d="" pointer-events="none" display="none"/></g></g></g><path class="foreground" aria-hidden="true" d="" pointer-events="none" display="none"/></g></g><g class="mark-text role-legend-title" pointer-events="none"><text text-anchor="start" transform="translate(0,9)" font-family="sans-serif" font-size="11px" font-weight="bold" fill="#000" opacity="1">Method</text></g></g><path class="foreground" aria-hidden="true" d="" pointer-events="none" display="none"/></g></g></g><path class="foreground" aria-hidden="true" d="" display="none"/></g></g></g></svg>